<?xml version="1.0" encoding="UTF-8"?>
<!-- Generator: visioncortex VTracer 0.6.4 -->
<svg version="1.1" xmlns="http://www.w3.org/2000/svg" width="128" height="128">
<path d="M0 0 C15.756 10.924 25.999 24.496 30.688 43.25 C32.702 61.694 30.098 76.173 20.688 92.25 C6.969 108.774 -7.903 117.768 -29.312 120.25 C-50.041 120.093 -65.539 113.826 -80.312 99.25 C-95.057 82.506 -97.618 64.754 -96.312 43.25 C-91.816 25.394 -82.499 11.779 -67.312 1.25 C-45.381 -10.755 -22.465 -11.629 0 0 Z M-59.312 4.25 C-53.892 10.574 -48.233 16.401 -42.312 22.25 C-40.002 21.59 -37.692 20.93 -35.312 20.25 C-29.312 20.25 -29.312 20.25 -22.312 24.25 C-21.653 25.24 -20.993 26.23 -20.312 27.25 C-10.034 25.291 -10.034 25.291 -2.312 19.25 C0.328 19.25 2.968 19.25 5.688 19.25 C7.007 18.59 8.328 17.93 9.688 17.25 C0.625 6.376 -11.39 0.57 -25.312 -1.75 C-37.956 -2.194 -47.704 -0.725 -59.312 4.25 Z M-77 17.875 C-87.59 31.862 -91.098 45.964 -90.312 63.25 C-86.237 67.326 -78.76 66.645 -73.312 67.25 C-70.672 67.25 -68.032 67.25 -65.312 67.25 C-64.323 66.26 -63.332 65.27 -62.312 64.25 C-58.848 63.755 -58.848 63.755 -55.312 63.25 C-51.394 58.963 -51.394 58.963 -47.875 53.688 C-46.639 51.933 -45.403 50.179 -44.129 48.371 C-42.735 46.331 -42.735 46.331 -41.312 44.25 C-42.302 43.755 -42.302 43.755 -43.312 43.25 C-45.69 36.117 -46.133 31.3 -43.312 24.25 C-46.265 21.244 -49.224 18.245 -52.188 15.25 C-53.835 13.579 -55.482 11.909 -57.18 10.188 C-65.21 2.536 -70.305 11.294 -77 17.875 Z M4.688 22.25 C4.028 23.57 3.368 24.89 2.688 26.25 C0.047 25.92 -2.593 25.59 -5.312 25.25 C-10.025 26.782 -14.702 28.433 -19.312 30.25 C-19.642 33.22 -19.972 36.19 -20.312 39.25 C-21.632 41.23 -22.953 43.21 -24.312 45.25 C-22.355 48.688 -20.397 52.126 -18.438 55.562 C-17.347 57.477 -16.256 59.391 -15.133 61.363 C-13.593 64.032 -12.022 66.686 -10.312 69.25 C-7.672 69.58 -5.032 69.91 -2.312 70.25 C-1.653 72.23 -0.993 74.21 -0.312 76.25 C6.345 78.2 12.823 79.269 19.688 80.25 C25.298 65.41 26.689 51.576 21.688 36.25 C18.077 27.684 18.077 27.684 12.688 20.25 C8.538 19.952 8.538 19.952 4.688 22.25 Z M-51.254 59.531 C-54.183 64.752 -54.183 64.752 -50.312 72.25 C-42.181 76.896 -37.809 78.25 -28.312 78.25 C-26.662 78.58 -25.013 78.91 -23.312 79.25 C-20.343 78.59 -17.373 77.93 -14.312 77.25 C-11.569 70.352 -11.569 70.352 -14.688 64.316 C-21.45 51.177 -21.45 51.177 -33.375 43.625 C-42.381 47.033 -45.796 51.808 -51.254 59.531 Z M-89.312 68.25 C-85.283 81.579 -79.623 93.863 -67.312 101.25 C-67.312 99.93 -67.312 98.61 -67.312 97.25 C-67.972 97.25 -68.632 97.25 -69.312 97.25 C-69.312 94.94 -69.312 92.63 -69.312 90.25 C-67.993 89.92 -66.672 89.59 -65.312 89.25 C-62.354 81.394 -62.218 77.987 -65.312 70.25 C-73.454 69.076 -81.068 68.25 -89.312 68.25 Z M-59.312 77.25 C-61.756 83.816 -61.756 83.816 -63.312 90.25 C-62.653 90.25 -61.992 90.25 -61.312 90.25 C-62.312 96.25 -62.312 96.25 -64.312 99.25 C-62.94 105.51 -62.94 105.51 -57.938 107.938 C-43.059 114.054 -28.75 115.287 -13.312 110.25 C-5.744 107.009 -5.744 107.009 0.688 103.25 C1.017 101.93 1.347 100.61 1.688 99.25 C0.037 98.26 -1.612 97.27 -3.312 96.25 C-2.983 94.27 -2.653 92.29 -2.312 90.25 C-3.303 87.94 -4.292 85.63 -5.312 83.25 C-7.623 82.59 -9.933 81.93 -12.312 81.25 C-13.303 80.59 -14.292 79.93 -15.312 79.25 C-19.007 80.143 -22.678 81.138 -26.312 82.25 C-26.642 83.57 -26.972 84.89 -27.312 86.25 C-29.623 85.59 -31.933 84.93 -34.312 84.25 C-34.642 83.26 -34.972 82.27 -35.312 81.25 C-47.339 74.515 -47.339 74.515 -59.312 77.25 Z M-1.312 79.25 C-1.972 80.57 -2.632 81.89 -3.312 83.25 C-0.979 89.417 -0.979 89.417 3.688 91.25 C3.688 93.56 3.688 95.87 3.688 98.25 C4.677 98.25 5.668 98.25 6.688 98.25 C14.167 91.264 14.167 91.264 17.688 82.25 C8.265 80.095 8.265 80.095 -1.312 79.25 Z " fill="#264D96" transform="translate(96.3125,7.75)"/>
<path d="M0 0 C15.756 10.924 25.999 24.496 30.688 43.25 C32.715 61.811 29.923 75.984 20.688 92.25 C18.707 94.56 16.728 96.87 14.688 99.25 C14.358 98.59 14.028 97.93 13.688 97.25 C9.388 96.85 9.388 96.85 5.688 100.25 C5.028 100.25 4.368 100.25 3.688 100.25 C3.688 100.91 3.688 101.57 3.688 102.25 C3.028 102.25 2.368 102.25 1.688 102.25 C1.688 101.26 1.688 100.27 1.688 99.25 C0.368 98.92 -0.953 98.59 -2.312 98.25 C-3.302 97.26 -3.302 97.26 -4.312 96.25 C-3.983 94.27 -3.653 92.29 -3.312 90.25 C-3.972 88.93 -4.632 87.61 -5.312 86.25 C-5.312 85.26 -5.312 84.27 -5.312 83.25 C-7.623 82.92 -9.933 82.59 -12.312 82.25 C-13.303 81.59 -14.292 80.93 -15.312 80.25 C-18.778 81.24 -18.778 81.24 -22.312 82.25 C-23.632 82.25 -24.953 82.25 -26.312 82.25 C-26.642 83.57 -26.972 84.89 -27.312 86.25 C-29.293 86.25 -31.273 86.25 -33.312 86.25 C-33.972 85.59 -34.633 84.93 -35.312 84.25 C-35.312 83.26 -35.312 82.27 -35.312 81.25 C-38.282 80.26 -41.252 79.27 -44.312 78.25 C-47.282 76.93 -50.252 75.61 -53.312 74.25 C-52.983 71.94 -52.653 69.63 -52.312 67.25 C-51.653 68.57 -50.992 69.89 -50.312 71.25 C-42.137 75.633 -37.748 77.25 -28.312 77.25 C-26.662 77.58 -25.013 77.91 -23.312 78.25 C-18.858 77.755 -18.858 77.755 -14.312 77.25 C-14.312 75.6 -14.312 73.95 -14.312 72.25 C-13.983 71.59 -13.653 70.93 -13.312 70.25 C-14.983 67.486 -16.654 64.722 -18.375 61.875 C-20.004 59.029 -21.634 56.182 -23.312 53.25 C-22.653 51.93 -21.993 50.61 -21.312 49.25 C-19.474 52.205 -17.642 55.164 -15.812 58.125 C-14.281 60.596 -14.281 60.596 -12.719 63.117 C-10.312 67.25 -10.312 67.25 -10.312 69.25 C-8.333 69.25 -6.352 69.25 -4.312 69.25 C-0.312 73.25 -0.312 73.25 -0.312 76.25 C2.616 76.724 5.545 77.199 8.562 77.688 C17.688 79.25 17.688 79.25 19.688 80.25 C25.47 58.386 25.052 42.039 13.688 22.25 C8.977 20.878 8.977 20.878 5.688 22.25 C4.697 23.9 3.708 25.55 2.688 27.25 C0.047 26.92 -2.593 26.59 -5.312 26.25 C-9.353 27.454 -13.365 28.77 -17.312 30.25 C-17.642 31.9 -17.972 33.55 -18.312 35.25 C-18.972 36.57 -19.632 37.89 -20.312 39.25 C-20.312 34.917 -20.312 30.583 -20.312 26.25 C-9.813 23.375 -9.813 23.375 -5.312 22.25 C-4.322 20.93 -3.333 19.61 -2.312 18.25 C0.328 18.25 2.968 18.25 5.688 18.25 C6.678 17.59 7.667 16.93 8.688 16.25 C-7.095 0.783 -25.358 -1.078 -46.312 -1.75 C-45.653 -2.08 -44.992 -2.41 -44.312 -2.75 C-43.983 -3.74 -43.653 -4.73 -43.312 -5.75 C-27.623 -10.233 -14.281 -7.393 0 0 Z M-1.312 79.25 C-1.972 80.57 -2.632 81.89 -3.312 83.25 C-0.979 89.417 -0.979 89.417 3.688 91.25 C3.688 93.56 3.688 95.87 3.688 98.25 C4.678 98.25 5.668 98.25 6.688 98.25 C14.167 91.264 14.167 91.264 17.688 82.25 C8.265 80.095 8.265 80.095 -1.312 79.25 Z " fill="#254B93" transform="translate(96.3125,7.75)"/>
<path d="M0 0 C3.96 2.475 3.96 2.475 8 5 C8 6.32 8 7.64 8 9 C8.99 9.33 9.98 9.66 11 10 C10.34 10 9.68 10 9 10 C9.062 11.712 9.124 13.424 9.188 15.188 C9 21 9 21 6 26 C6.495 28.97 6.495 28.97 7 32 C6.34 32 5.68 32 5 32 C4.34 30.68 3.68 29.36 3 28 C-3.488 26.575 -3.488 26.575 -11 28 C-16.222 32.981 -20.079 38.402 -23 45 C-22.67 47.97 -22.34 50.94 -22 54 C-22.66 54 -23.32 54 -24 54 C-24.33 54.99 -24.66 55.98 -25 57 C-27.475 57.495 -27.475 57.495 -30 58 C-30.99 60.475 -30.99 60.475 -32 63 C-32.33 63 -32.66 63 -33 63 C-35.015 55.948 -36.389 50.778 -33 44 C-29.535 43.505 -29.535 43.505 -26 43 C-20.664 36.246 -20.664 36.246 -16 29 C-15.01 27.68 -14.02 26.36 -13 25 C-14.32 22.69 -15.64 20.38 -17 18 C-17 15.36 -17 12.72 -17 10 C-16.01 9.01 -15.02 8.02 -14 7 C-13.34 7 -12.68 7 -12 7 C-12 6.34 -12 5.68 -12 5 C-11.34 5 -10.68 5 -10 5 C-9.67 3.68 -9.34 2.36 -9 1 C-6 0 -6 0 0 0 Z " fill="#2853A3" transform="translate(67,27)"/>
<path d="M0 0 C5.178 5.178 8.347 11.7 12 18 C12 18.66 12 19.32 12 20 C13.98 20 15.96 20 18 20 C22 24 22 24 22 27 C24.929 27.474 27.858 27.949 30.875 28.438 C40 30 40 30 42 31 C42.66 28.69 43.32 26.38 44 24 C44.66 24.33 45.32 24.66 46 25 C46 25.66 46 26.32 46 27 C45.34 27 44.68 27 44 27 C43.67 28.98 43.34 30.96 43 33 C42.01 33.66 41.02 34.32 40 35 C40 34.34 40 33.68 40 33 C37.803 32.814 37.803 32.814 35.562 32.625 C30 32 30 32 21 30 C19.527 34.371 19.527 34.371 22 40 C23.65 40.66 25.3 41.32 27 42 C27 44.31 27 46.62 27 49 C27.33 49.66 27.66 50.32 28 51 C27.34 51 26.68 51 26 51 C26 51.66 26 52.32 26 53 C25.34 53 24.68 53 24 53 C24 52.01 24 51.02 24 50 C22.68 49.67 21.36 49.34 20 49 C19.34 48.34 18.68 47.68 18 47 C18.33 45.02 18.66 43.04 19 41 C18.34 39.68 17.68 38.36 17 37 C17 36.01 17 35.02 17 34 C14.69 33.67 12.38 33.34 10 33 C9.01 32.34 8.02 31.68 7 31 C4.69 31.66 2.38 32.32 0 33 C-1.32 33 -2.64 33 -4 33 C-4.33 34.32 -4.66 35.64 -5 37 C-6.98 37 -8.96 37 -11 37 C-11.66 36.34 -12.32 35.68 -13 35 C-13 34.01 -13 33.02 -13 32 C-15.97 31.01 -18.94 30.02 -22 29 C-26.455 27.02 -26.455 27.02 -31 25 C-30.67 22.69 -30.34 20.38 -30 18 C-29.34 19.32 -28.68 20.64 -28 22 C-19.825 26.383 -15.436 28 -6 28 C-4.35 28.33 -2.7 28.66 -1 29 C1.97 28.67 4.94 28.34 8 28 C8 26.35 8 24.7 8 23 C8.33 22.34 8.66 21.68 9 21 C7.35 18.236 5.7 15.472 4 12.625 C-1 4 -1 4 0 0 Z " fill="#264E98" transform="translate(74,57)"/>
<path d="M0 0 C4.515 3.093 8.549 6.409 12.562 10.125 C11.243 11.115 9.922 12.105 8.562 13.125 C8.233 13.785 7.903 14.445 7.562 15.125 C6.139 13.908 4.716 12.691 3.25 11.438 C-12.035 -0.153 -27.864 -1.28 -46.438 -1.875 C-45.778 -2.205 -45.117 -2.535 -44.438 -2.875 C-44.108 -3.865 -43.778 -4.855 -43.438 -5.875 C-27.708 -10.369 -14.264 -7.542 0 0 Z " fill="#234789" transform="translate(96.4375,7.875)"/>
<path d="M0 0 C0 0.33 0 0.66 0 1 C-2.31 1.66 -4.62 2.32 -7 3 C-7.33 3.66 -7.66 4.32 -8 5 C-6.68 5.66 -5.36 6.32 -4 7 C-5.856 7.433 -7.712 7.866 -9.625 8.312 C-16.098 9.795 -16.098 9.795 -22 13 C-19.426 15.655 -16.84 18.299 -14.25 20.938 C-12.092 23.148 -12.092 23.148 -9.891 25.402 C-6.352 29.252 -6.352 29.252 -2 30 C-2.33 30.66 -2.66 31.32 -3 32 C-3.66 32 -4.32 32 -5 32 C-5 32.66 -5 33.32 -5 34 C-6.485 34.495 -6.485 34.495 -8 35 C-8.33 33.68 -8.66 32.36 -9 31 C-11.489 28.144 -14.089 25.384 -16.75 22.688 C-18.877 20.497 -18.877 20.497 -21.047 18.262 C-23.004 16.647 -23.004 16.647 -25 15 C-26.65 15.33 -28.3 15.66 -30 16 C-30 15.01 -30 14.02 -30 13 C-31.65 13 -33.3 13 -35 13 C-25.468 3.468 -13.127 0 0 0 Z " fill="#20407C" transform="translate(60,0)"/>
<path d="M0 0 C0.33 0.66 0.66 1.32 1 2 C1.66 2 2.32 2 3 2 C1.07 9.719 -6.217 13.518 -12.688 17.5 C-18 20 -18 20 -24 20 C-24 19.34 -24 18.68 -24 18 C-25.32 17.67 -26.64 17.34 -28 17 C-27.34 17 -26.68 17 -26 17 C-26 16.34 -26 15.68 -26 15 C-10.375 7 -10.375 7 -7 7 C-7 6.34 -7 5.68 -7 5 C-5.02 3.68 -3.04 2.36 -1 1 C-0.67 0.67 -0.34 0.34 0 0 Z " fill="#264E99" transform="translate(107,103)"/>
<path d="M0 0 C-1.356 6.782 -4.876 8.475 -10 13 C-12.035 15.977 -14.043 18.972 -16 22 C-16.99 22.33 -17.98 22.66 -19 23 C-20.458 17.166 -18.641 14.344 -16 9 C-8.427 0 -8.427 0 0 0 Z " fill="#254A91" transform="translate(30,13)"/>
<path d="M0 0 C0.33 1.32 0.66 2.64 1 4 C0.01 4.495 0.01 4.495 -1 5 C-1 6.65 -1 8.3 -1 10 C-0.34 10 0.32 10 1 10 C0.01 12.97 -0.98 15.94 -2 19 C-4.614 28.048 -5.565 36.597 -6 46 C-6.33 46 -6.66 46 -7 46 C-7 39.4 -7 32.8 -7 26 C-7.99 26 -8.98 26 -10 26 C-11.742 19.033 -7.792 13.36 -5 7 C-3.35 4.69 -1.7 2.38 0 0 Z " fill="#214381" transform="translate(12,25)"/>
<path d="M0 0 C1.485 1.98 1.485 1.98 3 4 C0.69 4.66 -1.62 5.32 -4 6 C-4.99 7.65 -5.98 9.3 -7 11 C-9.64 10.67 -12.28 10.34 -15 10 C-19.041 11.204 -23.052 12.52 -27 14 C-27.33 15.65 -27.66 17.3 -28 19 C-28.66 20.32 -29.32 21.64 -30 23 C-30 18.667 -30 14.333 -30 10 C-19.5 7.125 -19.5 7.125 -15 6 C-14.01 4.68 -13.02 3.36 -12 2 C-9.36 2 -6.72 2 -4 2 C-2.68 1.34 -1.36 0.68 0 0 Z " fill="#20407C" transform="translate(106,24)"/>
<path d="M0 0 C0.66 1.32 1.32 2.64 2 4 C10.175 8.383 14.564 10 24 10 C29 11 29 11 32 12 C32.495 12.99 32.495 12.99 33 14 C30.69 14.33 28.38 14.66 26 15 C25.67 16.32 25.34 17.64 25 19 C23.02 19 21.04 19 19 19 C18.34 18.34 17.68 17.68 17 17 C17 16.01 17 15.02 17 14 C14.03 13.01 11.06 12.02 8 11 C3.545 9.02 3.545 9.02 -1 7 C-0.67 4.69 -0.34 2.38 0 0 Z " fill="#16294E" transform="translate(44,75)"/>
<path d="M0 0 C0 0.66 0 1.32 0 2 C0.66 2.33 1.32 2.66 2 3 C1.67 3.99 1.34 4.98 1 6 C-7.91 6 -16.82 6 -26 6 C-25.34 5.67 -24.68 5.34 -24 5 C-23.67 4.01 -23.34 3.02 -23 2 C-15.063 -0.268 -8.217 -0.136 0 0 Z " fill="#264E99" transform="translate(76,0)"/>
<path d="M0 0 C4 3 4 3 5 7 C5.071 11.416 5.084 15.833 5.062 20.25 C5.053 22.627 5.044 25.004 5.035 27.453 C5.024 29.284 5.012 31.114 5 33 C4.34 32.01 3.68 31.02 3 30 C2.34 30.99 1.68 31.98 1 33 C1 27.39 1 21.78 1 16 C0.34 16 -0.32 16 -1 16 C-1 6 -1 6 0 0 Z " fill="#2853A2" transform="translate(121,40)"/>
<path d="M0 0 C0.99 0.33 1.98 0.66 3 1 C2.34 3.97 1.68 6.94 1 10 C1.66 11.65 2.32 13.3 3 15 C2.01 16.65 1.02 18.3 0 20 C0.33 21.98 0.66 23.96 1 26 C-1.475 25.01 -1.475 25.01 -4 24 C-4 22.35 -4 20.7 -4 19 C-4.99 18.01 -5.98 17.02 -7 16 C-6.67 14.35 -6.34 12.7 -6 11 C-4.68 10.67 -3.36 10.34 -2 10 C-1.34 6.7 -0.68 3.4 0 0 Z " fill="#264F9A" transform="translate(33,87)"/>
<path d="M0 0 C3 4 3 4 3 6 C5.475 6.99 5.475 6.99 8 8 C8 10.31 8 12.62 8 15 C8.33 15.66 8.66 16.32 9 17 C8.34 17 7.68 17 7 17 C7 17.66 7 18.32 7 19 C6.34 19 5.68 19 5 19 C5 18.01 5 17.02 5 16 C3.68 15.67 2.36 15.34 1 15 C0.34 14.34 -0.32 13.68 -1 13 C-0.67 11.02 -0.34 9.04 0 7 C-0.66 5.02 -1.32 3.04 -2 1 C-1.34 0.67 -0.68 0.34 0 0 Z " fill="#23488C" transform="translate(93,91)"/>
<path d="M0 0 C0.66 0.99 1.32 1.98 2 3 C1.145 4.192 0.291 5.385 -0.59 6.613 C-1.695 8.164 -2.799 9.715 -3.938 11.312 C-5.04 12.856 -6.142 14.399 -7.277 15.988 C-10.04 19.67 -10.04 19.67 -11 23 C-11.33 22.01 -11.66 21.02 -12 20 C-13.65 20 -15.3 20 -17 20 C-17.33 20.66 -17.66 21.32 -18 22 C-18.99 21.34 -19.98 20.68 -21 20 C-16 18 -16 18 -13 18 C-9.586 13.392 -6.256 8.721 -3 4 C-2.01 2.68 -1.02 1.36 0 0 Z " fill="#19305B" transform="translate(54,52)"/>
<path d="M0 0 C4.455 0.99 4.455 0.99 9 2 C18.159 3.425 18.159 3.425 27 2 C26.67 4.97 26.34 7.94 26 11 C25.67 9.68 25.34 8.36 25 7 C22.711 6.856 20.421 6.711 18.062 6.562 C12.365 6.165 6.676 5.631 1 5 C0.67 3.35 0.34 1.7 0 0 Z " fill="#1B325F" transform="translate(6,71)"/>
<path d="M0 0 C3 3 3 3 6 12 C5.34 11.67 4.68 11.34 4 11 C3.34 13.64 2.68 16.28 2 19 C-0.761 14.858 -2.394 10.704 -4 6 C-2 1 -2 1 0 0 Z " fill="#214382" transform="translate(118,31)"/>
<path d="M0 0 C0.33 0 0.66 0 1 0 C1.878 10.092 1.924 19.041 0 29 C-0.33 29 -0.66 29 -1 29 C-1 27.02 -1 25.04 -1 23 C-1.99 23.33 -2.98 23.66 -4 24 C-4 24.99 -4 25.98 -4 27 C-4.66 27 -5.32 27 -6 27 C-6.33 27.99 -6.66 28.98 -7 30 C-6.34 21.75 -5.68 13.5 -5 5 C-4.67 5 -4.34 5 -4 5 C-3.67 9.62 -3.34 14.24 -3 19 C-2.34 18.67 -1.68 18.34 -1 18 C-0.505 9.09 -0.505 9.09 0 0 Z " fill="#193160" transform="translate(126,51)"/>
<path d="M0 0 C0.33 0.66 0.66 1.32 1 2 C1.66 2 2.32 2 3 2 C2 6 2 6 -3 11 C-5.97 11 -8.94 11 -12 11 C-11.34 9.68 -10.68 8.36 -10 7 C-9.01 7 -8.02 7 -7 7 C-7 6.34 -7 5.68 -7 5 C-5.02 3.68 -3.04 2.36 -1 1 C-0.67 0.67 -0.34 0.34 0 0 Z " fill="#2851A0" transform="translate(107,103)"/>
<path d="M0 0 C0.66 0.33 1.32 0.66 2 1 C2 1.66 2 2.32 2 3 C1.34 3 0.68 3 0 3 C-0.33 4.98 -0.66 6.96 -1 9 C-1.99 9.66 -2.98 10.32 -4 11 C-4 10.34 -4 9.68 -4 9 C-5.464 8.876 -6.929 8.752 -8.438 8.625 C-14 8 -14 8 -23 6 C-18.347 2.898 -14.408 4.295 -9 5 C-6.69 5.66 -4.38 6.32 -2 7 C-1.34 4.69 -0.68 2.38 0 0 Z " fill="#1D3669" transform="translate(118,81)"/>
<path d="M0 0 C0.33 0.66 0.66 1.32 1 2 C-1.31 2.33 -3.62 2.66 -6 3 C-9.357 4.273 -12.696 5.597 -16 7 C-16.33 9.64 -16.66 12.28 -17 15 C-17.33 15 -17.66 15 -18 15 C-18 10.667 -18 6.333 -18 2 C-11.135 -0.119 -7.242 -1.035 0 0 Z " fill="#15274B" transform="translate(94,32)"/>
<path d="M0 0 C3.96 1.98 3.96 1.98 8 4 C8 4.66 8 5.32 8 6 C8.66 6.33 9.32 6.66 10 7 C9.67 8.32 9.34 9.64 9 11 C5 10 5 10 -1 6 C-0.67 4.02 -0.34 2.04 0 0 Z " fill="#27509C" transform="translate(26,109)"/>
<path d="M0 0 C5.193 5.193 8.378 11.662 12 18 C11 20 11 20 9 21 C1.09 8.109 1.09 8.109 -1 4 C-0.67 2.68 -0.34 1.36 0 0 Z " fill="#192F5A" transform="translate(74,57)"/>
<path d="M0 0 C7 6 7 6 12 11 C13.32 11.33 14.64 11.66 16 12 C15.67 12.66 15.34 13.32 15 14 C14.34 14 13.68 14 13 14 C13 14.66 13 15.32 13 16 C12.01 16.33 11.02 16.66 10 17 C9.67 15.68 9.34 14.36 9 13 C7.494 11.515 5.989 10.03 4.438 8.5 C0 4 0 4 0 0 Z " fill="#1B3260" transform="translate(42,18)"/>
<path d="M0 0 C0 0.33 0 0.66 0 1 C-2.31 1.66 -4.62 2.32 -7 3 C-7.33 3.66 -7.66 4.32 -8 5 C-6.68 5.66 -5.36 6.32 -4 7 C-8.455 7.495 -8.455 7.495 -13 8 C-13.66 6.68 -14.32 5.36 -15 4 C-16.32 3.67 -17.64 3.34 -19 3 C-12.031 0.644 -7.592 0 0 0 Z " fill="#1F3D77" transform="translate(60,0)"/>
<path d="M0 0 C0.66 0.33 1.32 0.66 2 1 C1.67 1.33 1.34 1.66 1 2 C2.98 2 4.96 2 7 2 C4.361 7.279 1.216 8.464 -4 11 C-4.66 10.67 -5.32 10.34 -6 10 C-5.01 8.02 -4.02 6.04 -3 4 C-3.66 3.67 -4.32 3.34 -5 3 C-3.35 2.01 -1.7 1.02 0 0 Z " fill="#224280" transform="translate(95,111)"/>
<path d="M0 0 C0.33 1.32 0.66 2.64 1 4 C0.01 4.495 0.01 4.495 -1 5 C-1 6.65 -1 8.3 -1 10 C-0.34 10 0.32 10 1 10 C0.01 12.97 -0.98 15.94 -2 19 C-4 15 -4 15 -4 12 C-4.99 12.33 -5.98 12.66 -7 13 C-5 7 -5 7 0 0 Z " fill="#1F3D77" transform="translate(12,25)"/>
<path d="M0 0 C3.338 0.288 6.672 0.621 10 1 C8.02 3.97 8.02 3.97 6 7 C4.02 7 2.04 7 0 7 C-0.33 6.67 -0.66 6.34 -1 6 C-1 1 -1 1 0 0 Z " fill="#27509C" transform="translate(63,87)"/>
<path d="M0 0 C0 0.66 0 1.32 0 2 C0.99 2.33 1.98 2.66 3 3 C-3 5 -3 5 -8 5 C-8.33 4.01 -8.66 3.02 -9 2 C-8.67 1.67 -8.34 1.34 -8 1 C-9.32 0.34 -10.64 -0.32 -12 -1 C-4.5 -2.25 -4.5 -2.25 0 0 Z " fill="#203F7C" transform="translate(83,121)"/>
<path d="M0 0 C4.95 1.98 4.95 1.98 10 4 C9.34 5.32 8.68 6.64 8 8 C6.02 8.33 4.04 8.66 2 9 C1.34 8.34 0.68 7.68 0 7 C0.33 5.68 0.66 4.36 1 3 C0.67 2.01 0.34 1.02 0 0 Z " fill="#214384" transform="translate(34,113)"/>
<path d="M0 0 C2 3 2 3 4 9 C2.68 9.33 1.36 9.66 0 10 C-0.33 10.99 -0.66 11.98 -1 13 C-1.99 11.35 -2.98 9.7 -4 8 C-3.67 7.34 -3.34 6.68 -3 6 C-2.34 6.33 -1.68 6.66 -1 7 C-0.67 4.69 -0.34 2.38 0 0 Z " fill="#20407D" transform="translate(9,83)"/>
<path d="M0 0 C7 1 7 1 10 3 C8.35 3.66 6.7 4.32 5 5 C5.33 5.99 5.66 6.98 6 8 C2.37 7.34 -1.26 6.68 -5 6 C-5 5.67 -5 5.34 -5 5 C-3.35 4.67 -1.7 4.34 0 4 C0 3.01 0 2.02 0 1 C0 0.67 0 0.34 0 0 Z " fill="#1D3A71" transform="translate(76,1)"/>
<path d="M0 0 C0.66 0.33 1.32 0.66 2 1 C1.67 2.65 1.34 4.3 1 6 C2.98 6 4.96 6 7 6 C6.67 6.99 6.34 7.98 6 9 C6.33 10.98 6.66 12.96 7 15 C4.525 14.01 4.525 14.01 2 13 C2 11.35 2 9.7 2 8 C1.01 7.01 0.02 6.02 -1 5 C-0.67 3.35 -0.34 1.7 0 0 Z " fill="#192E59" transform="translate(27,98)"/>
<path d="M0 0 C4 2 4 2 5 4 C4.34 4 3.68 4 3 4 C2.34 5.32 1.68 6.64 1 8 C-3 6 -3 6 -5 2 C-3.68 1.67 -2.36 1.34 -1 1 C-0.67 0.67 -0.34 0.34 0 0 Z " fill="#21417F" transform="translate(24,106)"/>
<path d="M0 0 C1 2 1 2 0 9 C-0.33 7.68 -0.66 6.36 -1 5 C-5.95 4.67 -10.9 4.34 -16 4 C-16 3.67 -16 3.34 -16 3 C-13.546 2.691 -11.091 2.381 -8.562 2.062 C-1.667 1.867 -1.667 1.867 0 0 Z " fill="#182D56" transform="translate(32,73)"/>
<path d="M0 0 C0.99 0 1.98 0 3 0 C3 0.99 3 1.98 3 3 C4.65 2.67 6.3 2.34 8 2 C7.67 3.32 7.34 4.64 7 6 C0 6 0 6 -3 5 C-3.33 4.01 -3.66 3.02 -4 2 C-2.35 2 -0.7 2 1 2 C0.67 1.34 0.34 0.68 0 0 Z " fill="#28529F" transform="translate(41,118)"/>
<path d="M0 0 C0 0.33 0 0.66 0 1 C-1.65 1.33 -3.3 1.66 -5 2 C0.28 2.33 5.56 2.66 11 3 C11 3.33 11 3.66 11 4 C0.11 4.495 0.11 4.495 -11 5 C-10.34 4.67 -9.68 4.34 -9 4 C-8.67 3.01 -8.34 2.02 -8 1 C-6 0 -6 0 0 0 Z " fill="#2D5DB6" transform="translate(61,1)"/>
<path d="M0 0 C0 0.66 0 1.32 0 2 C0.99 2.33 1.98 2.66 3 3 C2.67 3.33 2.34 3.66 2 4 C0.02 4 -1.96 4 -4 4 C-4.33 4.66 -4.66 5.32 -5 6 C-5.99 5.34 -6.98 4.68 -8 4 C-8 3.34 -8 2.68 -8 2 C-4 0 -4 0 0 0 Z " fill="#2B5BB2" transform="translate(45,4)"/>
<path d="M0 0 C1.65 0 3.3 0 5 0 C4.67 1.65 4.34 3.3 4 5 C1 6 1 6 -2 5 C-1 1 -1 1 0 0 Z " fill="#2852A1" transform="translate(25,13)"/>
<path d="M0 0 C5.94 0.99 5.94 0.99 12 2 C12 2.33 12 2.66 12 3 C10.02 3 8.04 3 6 3 C5.67 4.32 5.34 5.64 5 7 C5.66 7.33 6.32 7.66 7 8 C4.36 7.67 1.72 7.34 -1 7 C-1 6.67 -1 6.34 -1 6 C0.65 6 2.3 6 4 6 C4.33 4.68 4.66 3.36 5 2 C3.35 2.33 1.7 2.66 0 3 C0 2.01 0 1.02 0 0 Z " fill="#19305E" transform="translate(44,118)"/>
<path d="M0 0 C0.33 0.66 0.66 1.32 1 2 C-1.31 2.33 -3.62 2.66 -6 3 C-7.98 3.33 -9.96 3.66 -12 4 C-12 3.34 -12 2.68 -12 2 C-11.34 2 -10.68 2 -10 2 C-10 1.34 -10 0.68 -10 0 C-7 -1 -7 -1 0 0 Z " fill="#192E58" transform="translate(94,32)"/>
<path d="M0 0 C1.65 0.33 3.3 0.66 5 1 C5.33 1.99 5.66 2.98 6 4 C5.34 4.66 4.68 5.32 4 6 C2.35 5.67 0.7 5.34 -1 5 C-1.33 4.01 -1.66 3.02 -2 2 C-1.34 1.34 -0.68 0.68 0 0 Z " fill="#2854A6" transform="translate(95,10)"/>
<path d="M0 0 C0.99 0.33 1.98 0.66 3 1 C2.34 3.97 1.68 6.94 1 10 C-0.65 10.33 -2.3 10.66 -4 11 C-3.34 10.67 -2.68 10.34 -2 10 C-1.263 6.682 -0.593 3.347 0 0 Z " fill="#172C55" transform="translate(33,87)"/>
<path d="M0 0 C0.99 0.99 1.98 1.98 3 3 C2 10 2 10 0 13 C-1 6 -1 6 0 0 Z " fill="#2C5BB2" transform="translate(121,40)"/>
<path d="M0 0 C1.32 0 2.64 0 4 0 C3.67 2.64 3.34 5.28 3 8 C2.01 7.67 1.02 7.34 0 7 C-0.33 5.02 -0.66 3.04 -1 1 C-0.67 0.67 -0.34 0.34 0 0 Z " fill="#2B58AC" transform="translate(5,82)"/>
<path d="M0 0 C0 0.33 0 0.66 0 1 C-9.5 2.25 -9.5 2.25 -14 0 C-9.307 -1.564 -4.857 -0.514 0 0 Z " fill="#172D56" transform="translate(109,86)"/>
<path d="M0 0 C1.32 0.66 2.64 1.32 4 2 C3.34 3.32 2.68 4.64 2 6 C0.68 6 -0.64 6 -2 6 C-2.33 4.68 -2.66 3.36 -3 2 C-2.34 2 -1.68 2 -1 2 C-0.67 1.34 -0.34 0.68 0 0 Z " fill="#284F9B" transform="translate(20,103)"/>
<path d="M0 0 C0.66 0.99 1.32 1.98 2 3 C0.02 5.97 0.02 5.97 -2 9 C-2.66 9 -3.32 9 -4 9 C-3 4 -3 4 0 0 Z " fill="#1B3362" transform="translate(54,52)"/>
<path d="M0 0 C1.65 0 3.3 0 5 0 C5.66 1.32 6.32 2.64 7 4 C6.01 3.67 5.02 3.34 4 3 C1.69 3 -0.62 3 -3 3 C-2.01 2.01 -1.02 1.02 0 0 Z " fill="#1D386A" transform="translate(77,85)"/>
<path d="M0 0 C1.32 0 2.64 0 4 0 C4 2.64 4 5.28 4 8 C3.01 7.67 2.02 7.34 1 7 C1.33 6.34 1.66 5.68 2 5 C1.34 5 0.68 5 0 5 C-0.33 3.68 -0.66 2.36 -1 1 C-0.67 0.67 -0.34 0.34 0 0 Z " fill="#2B56A9" transform="translate(105,19)"/>
<path d="M0 0 C0.99 1.32 1.98 2.64 3 4 C2.34 4 1.68 4 1 4 C1 4.66 1 5.32 1 6 C0.34 6 -0.32 6 -1 6 C-1 5.01 -1 4.02 -1 3 C-2.32 2.67 -3.64 2.34 -5 2 C-3.68 1.67 -2.36 1.34 -1 1 C-0.67 0.67 -0.34 0.34 0 0 Z " fill="#17294F" transform="translate(99,104)"/>
<path d="M0 0 C0.99 0.33 1.98 0.66 3 1 C2.34 2.98 1.68 4.96 1 7 C0.34 7 -0.32 7 -1 7 C-1 1 -1 1 0 0 Z " fill="#27519D" transform="translate(15,97)"/>
<path d="M0 0 C3 4 3 4 3 6 C2.01 6.33 1.02 6.66 0 7 C-0.66 5.02 -1.32 3.04 -2 1 C-1.34 0.67 -0.68 0.34 0 0 Z " fill="#15284C" transform="translate(93,91)"/>
<path d="M0 0 C-0.33 0.66 -0.66 1.32 -1 2 C-1.66 2 -2.32 2 -3 2 C-3 2.66 -3 3.32 -3 4 C-3.99 4.33 -4.98 4.66 -6 5 C-6 3.35 -6 1.7 -6 0 C-2 -1 -2 -1 0 0 Z " fill="#1F386E" transform="translate(58,30)"/>
<path d="M0 0 C0.99 0.33 1.98 0.66 3 1 C3.66 2.65 4.32 4.3 5 6 C4.01 6.33 3.02 6.66 2 7 C0 3 0 3 0 0 Z " fill="#19325D" transform="translate(81,71)"/>
</svg>
