<?xml version="1.0" encoding="UTF-8"?>
<!-- Generator: visioncortex VTracer 0.6.4 -->
<svg version="1.1" xmlns="http://www.w3.org/2000/svg" width="128" height="128">
<path d="M0 0 C9.924 7.991 14.866 16.249 16.75 29.125 C17.817 35.005 17.817 35.005 25 41 C30.653 52.305 32.835 61.281 28.875 73.625 C24.691 82.902 20.146 87.89 12 94 C10.68 94.33 9.36 94.66 8 95 C7.34 94.34 6.68 93.68 6 93 C5.34 93.99 4.68 94.98 4 96 C2.35 95.67 0.7 95.34 -1 95 C-2.65 97.64 -4.3 100.28 -6 103 C-8 104 -8 104 -13.938 103.812 C-20.994 104 -25.473 105.562 -32 108 C-40 107 -40 107 -42 105 C-44.166 104.918 -46.331 104.835 -48.562 104.75 C-58.151 103.783 -62.345 100.655 -69 94 C-69.66 94 -70.32 94 -71 94 C-71.33 92.68 -71.66 91.36 -72 90 C-73.98 90.99 -73.98 90.99 -76 92 C-77.485 91.01 -77.485 91.01 -79 90 C-81.64 90.33 -84.28 90.66 -87 91 C-95.269 82.731 -97.195 75.824 -97.5 64.688 C-97.46 54.454 -95.691 47.721 -90 39 C-88.02 37.35 -86.04 35.7 -84 34 C-82.961 28.674 -81.964 23.34 -81 18 C-75.538 6.411 -66.731 -1.076 -55 -6 C-35.746 -11.99 -17.212 -10.976 0 0 Z M-70 16 C-73.589 24.375 -73.297 30.353 -73.188 39.438 C-73.16 42.344 -73.133 45.251 -73.105 48.246 C-73.071 50.475 -73.036 52.704 -73 55 C-72.67 55 -72.34 55 -72 55 C-71.67 47.74 -71.34 40.48 -71 33 C-69.35 33.66 -67.7 34.32 -66 35 C-65.67 38.96 -65.34 42.92 -65 47 C-63.02 44.525 -63.02 44.525 -61 42 C-56.442 36.864 -51.857 31.857 -47 27 C-44.69 27 -42.38 27 -40 27 C-39.01 25.68 -38.02 24.36 -37 23 C-35.02 23 -33.04 23 -31 23 C-29.02 25.64 -27.04 28.28 -25 31 C-24.34 31 -23.68 31 -23 31 C-22.34 29.02 -21.68 27.04 -21 25 C-18.69 25 -16.38 25 -14 25 C-11 32 -11 32 -9 40 C-6.36 41.65 -3.72 43.3 -1 45 C-0.505 40.05 -0.505 40.05 0 35 C1.98 34.34 3.96 33.68 6 33 C6 40.26 6 47.52 6 55 C6.33 55 6.66 55 7 55 C7.136 50.042 7.232 45.084 7.312 40.125 C7.371 37.364 7.429 34.603 7.488 31.758 C6.893 22.303 4.856 16.953 -1.688 10.188 C-11.581 2.875 -21.043 -0.286 -33.312 -0.312 C-35.082 -0.329 -36.852 -0.346 -38.676 -0.363 C-52.443 0.576 -60.429 6.429 -70 16 Z M-74 55 C-73 57 -73 57 -73 57 Z M-74 86 C-73 88 -73 88 -73 88 Z " fill="#000085" transform="translate(97,16)"/>
<path d="M0 0 C2.475 0.495 2.475 0.495 5 1 C5 1.66 5 2.32 5 3 C5.66 3 6.32 3 7 3 C7.66 4.65 8.32 6.3 9 8 C10.32 7.67 11.64 7.34 13 7 C13.66 5.35 14.32 3.7 15 2 C16.32 1.67 17.64 1.34 19 1 C22 6 22 6 23 13 C24.985 14.707 26.97 16.413 29.016 18.172 C36.805 27.059 36.391 34.04 35.75 45.25 C35.669 47.959 35.669 47.959 35.586 50.723 C35.445 55.151 35.23 59.576 35 64 C33.02 64.99 33.02 64.99 31 66 C30.505 67.98 30.505 67.98 30 70 C24.546 75.454 16.341 73.74 9 74 C8.505 75.485 8.505 75.485 8 77 C5 78 5 78 -4 78 C-4.66 77.01 -5.32 76.02 -6 75 C-8.351 74.918 -10.703 74.835 -13.125 74.75 C-21.4 73.962 -23.749 73.178 -29 67 C-32.022 59.445 -31.382 52.229 -31.438 44.125 C-31.477 40.91 -31.517 37.695 -31.559 34.383 C-31 26 -31 26 -26 19 C-25.01 17.35 -24.02 15.7 -23 14 C-20.69 12.02 -18.38 10.04 -16 8 C-15.01 6.35 -14.02 4.7 -13 3 C-11.35 3 -9.7 3 -8 3 C-8 3.66 -8 4.32 -8 5 C-5.69 4.34 -3.38 3.68 -1 3 C-0.67 2.01 -0.34 1.02 0 0 Z " fill="#E6C60B" transform="translate(62,44)"/>
<path d="M0 0 C2.475 0.495 2.475 0.495 5 1 C5 1.66 5 2.32 5 3 C5.66 3 6.32 3 7 3 C7.66 4.65 8.32 6.3 9 8 C10.32 7.67 11.64 7.34 13 7 C13.66 5.35 14.32 3.7 15 2 C16.32 1.67 17.64 1.34 19 1 C22 6 22 6 23 13 C26.001 15.722 26.001 15.722 29.062 18.5 C35 25 35 25 35.75 33.25 C35.379 36.591 35.379 36.591 35 40 C33.515 40.495 33.515 40.495 32 41 C32 38.69 32 36.38 32 34 C31.34 34 30.68 34 30 34 C29.505 34.99 29.505 34.99 29 36 C28.01 34.35 27.02 32.7 26 31 C25.34 31 24.68 31 24 31 C23.67 32.65 23.34 34.3 23 36 C22.34 36 21.68 36 21 36 C20.34 34.35 19.68 32.7 19 31 C18.01 30.67 17.02 30.34 16 30 C15.34 31.98 14.68 33.96 14 36 C13.34 36 12.68 36 12 36 C11.34 29.07 10.68 22.14 10 15 C9.34 15 8.68 15 8 15 C8 17.97 8 20.94 8 24 C6.759 28.692 5.44 33.365 4 38 C3.67 38 3.34 38 3 38 C2.01 28.595 2.01 28.595 1 19 C-0.32 25.93 -1.64 32.86 -3 40 C-3.66 40 -4.32 40 -5 40 C-5.277 38.086 -5.554 36.171 -5.84 34.199 C-6.383 30.481 -6.383 30.481 -6.938 26.688 C-7.297 24.216 -7.657 21.745 -8.027 19.199 C-8.751 13.471 -8.751 13.471 -10 10 C-10.133 11.602 -10.266 13.205 -10.402 14.855 C-10.579 16.945 -10.756 19.035 -10.938 21.188 C-11.199 24.303 -11.199 24.303 -11.465 27.48 C-12 33 -12 33 -13 38 C-13.66 37.67 -14.32 37.34 -15 37 C-15.743 31.677 -16.411 26.342 -17 21 C-17.124 23.537 -17.248 26.074 -17.375 28.688 C-18 37 -18 37 -20 42 C-20.66 42 -21.32 42 -22 42 C-22 39.69 -22 37.38 -22 35 C-22.66 35 -23.32 35 -24 35 C-24.33 36.32 -24.66 37.64 -25 39 C-25.99 39.495 -25.99 39.495 -27 40 C-27.66 41.32 -28.32 42.64 -29 44 C-31.181 37.457 -31.495 32.858 -31 26 C-29.35 23.69 -27.7 21.38 -26 19 C-25.01 17.35 -24.02 15.7 -23 14 C-20.69 12.02 -18.38 10.04 -16 8 C-15.01 6.35 -14.02 4.7 -13 3 C-11.35 3 -9.7 3 -8 3 C-8 3.66 -8 4.32 -8 5 C-5.69 4.34 -3.38 3.68 -1 3 C-0.67 2.01 -0.34 1.02 0 0 Z " fill="#CDBB0B" transform="translate(62,44)"/>
<path d="M0 0 C2.496 4.991 2.901 9.405 3.625 14.938 C4.016 17.859 4.016 17.859 4.414 20.84 C5 26 5 26 5 31 C5.66 31 6.32 31 7 31 C7.33 28.03 7.66 25.06 8 22 C8.579 17.986 9.231 13.982 10 10 C10.66 9.67 11.32 9.34 12 9 C12.66 14.94 13.32 20.88 14 27 C15.88 19.89 17.184 13.347 18 6 C18.66 6 19.32 6 20 6 C21.506 13.343 22 19.376 22 27 C22.66 27 23.32 27 24 27 C24.33 25.02 24.66 23.04 25 21 C25.66 20.67 26.32 20.34 27 20 C27 20.66 27 21.32 27 22 C27.99 21.67 28.98 21.34 30 21 C30.495 23.97 30.495 23.97 31 27 C31.66 27 32.32 27 33 27 C33.33 25.35 33.66 23.7 34 22 C34.99 21.67 35.98 21.34 37 21 C37.66 22.65 38.32 24.3 39 26 C39.99 25.67 40.98 25.34 42 25 C42 27.31 42 29.62 42 32 C42.99 31.67 43.98 31.34 45 31 C45 34.3 45 37.6 45 41 C44.34 40.67 43.68 40.34 43 40 C42.34 40.66 41.68 41.32 41 42 C40.67 41.01 40.34 40.02 40 39 C37.03 39.495 37.03 39.495 34 40 C34 39.01 34 38.02 34 37 C31.012 38.225 31.012 38.225 29 45 C28.01 45 27.02 45 26 45 C25.505 42.03 25.505 42.03 25 39 C24.34 39 23.68 39 23 39 C23 39.66 23 40.32 23 41 C21.35 41 19.7 41 18 41 C18 40.34 18 39.68 18 39 C17.34 39 16.68 39 16 39 C15.67 40.32 15.34 41.64 15 43 C14.01 43 13.02 43 12 43 C12 44.32 12 45.64 12 47 C11.34 47 10.68 47 10 47 C9.34 45.02 8.68 43.04 8 41 C7.34 44.3 6.68 47.6 6 51 C2.227 45.97 1 41.3 1 35 C0.34 35 -0.32 35 -1 35 C-1 36.65 -1 38.3 -1 40 C-3.31 39.34 -5.62 38.68 -8 38 C-8.33 39.65 -8.66 41.3 -9 43 C-9.99 42.01 -10.98 41.02 -12 40 C-12.99 41.32 -13.98 42.64 -15 44 C-16.98 43.34 -18.96 42.68 -21 42 C-21 37.71 -21 33.42 -21 29 C-20.34 30.32 -19.68 31.64 -19 33 C-14.925 29.522 -14.925 29.522 -14 26 C-13.34 26 -12.68 26 -12 26 C-12 28.31 -12 30.62 -12 33 C-11.34 33 -10.68 33 -10 33 C-8.777 27.509 -8.777 27.509 -8.562 19.812 C-8 12 -8 12 -6 10 C-5.34 15.94 -4.68 21.88 -4 28 C-2.988 20.71 -2.038 13.461 -1.438 6.125 C-1 1 -1 1 0 0 Z " fill="#FC0C01" transform="translate(52,53)"/>
<path d="M0 0 C0.495 0.99 0.495 0.99 1 2 C0.34 2 -0.32 2 -1 2 C-1 2.66 -1 3.32 -1 4 C-3.667 6.333 -6.333 8.667 -9 11 C-14.814 16.756 -14.814 16.756 -18 24 C-18.66 24 -19.32 24 -20 24 C-20.309 26.104 -20.619 28.207 -20.938 30.375 C-22 37 -22 37 -23 39 C-23.121 42.59 -23.18 46.182 -23.211 49.773 C-23.253 53.053 -23.253 53.053 -23.297 56.398 C-23.349 61.042 -23.393 65.685 -23.43 70.328 C-23.461 72.517 -23.492 74.706 -23.523 76.961 C-23.543 78.98 -23.563 80.999 -23.583 83.08 C-24 88 -24 88 -27 92 C-28.98 92 -30.96 92 -33 92 C-33.33 90.68 -33.66 89.36 -34 88 C-35.32 87.67 -36.64 87.34 -38 87 C-42.866 74.023 -42.892 61.882 -37.875 48.938 C-34 43 -34 43 -28 38 C-26.961 32.674 -25.964 27.34 -25 22 C-21.149 13.828 -16.098 8.559 -9 3 C-6.03 2.01 -3.06 1.02 0 0 Z " fill="#01016A" transform="translate(41,12)"/>
<path d="M0 0 C-5.143 0.163 -10.286 0.326 -15.43 0.488 C-27.267 1.576 -35.661 5.524 -43.938 14.062 C-49.3 20.957 -49 23.77 -49 33 C-47.515 32.505 -47.515 32.505 -46 32 C-45.34 32.66 -44.68 33.32 -44 34 C-45.32 34 -46.64 34 -48 34 C-48 52.48 -48 70.96 -48 90 C-50.475 90.99 -50.475 90.99 -53 92 C-54.485 91.01 -54.485 91.01 -56 90 C-58.64 90.33 -61.28 90.66 -64 91 C-65.65 89.35 -67.3 87.7 -69 86 C-69 85.01 -69 84.02 -69 83 C-68.34 83.33 -67.68 83.66 -67 84 C-66.67 84.99 -66.34 85.98 -66 87 C-64.02 87 -62.04 87 -60 87 C-57.008 82.512 -57.706 78.525 -57.656 73.164 C-57.627 70.986 -57.597 68.807 -57.566 66.562 C-57.534 63.128 -57.534 63.128 -57.5 59.625 C-57.457 55.117 -57.405 50.609 -57.344 46.102 C-57.325 44.094 -57.306 42.086 -57.287 40.018 C-57 35 -57 35 -55 30 C-54.296 26.674 -53.624 23.342 -53 20 C-52.34 20 -51.68 20 -51 20 C-50.67 18.35 -50.34 16.7 -50 15 C-44.701 8.187 -38.815 2.907 -31 -1 C-7.8 -3.9 -7.8 -3.9 0 0 Z M-51 55 C-50 57 -50 57 -50 57 Z M-51 86 C-50 88 -50 88 -50 88 Z " fill="#00002C" transform="translate(74,16)"/>
<path d="M0 0 C10 10 10 10 12 15 C12.66 15.33 13.32 15.66 14 16 C16.851 24.552 15.098 35.213 14 44 C10 51 10 51 4 56 C1.525 56.495 1.525 56.495 -1 57 C-1.029 48.25 -1.047 39.5 -1.062 30.75 C-1.071 28.256 -1.079 25.761 -1.088 23.191 C-1.091 20.813 -1.094 18.435 -1.098 15.984 C-1.103 13.785 -1.108 11.585 -1.114 9.319 C-1 4 -1 4 0 0 Z " fill="#0303C8" transform="translate(106,47)"/>
<path d="M0 0 C0.66 0 1.32 0 2 0 C1 6 1 6 0 8 C-0.366 11.664 -0.701 15.33 -1 19 C-1.66 19 -2.32 19 -3 19 C-3.66 15.04 -4.32 11.08 -5 7 C-5.33 11.29 -5.66 15.58 -6 20 C-6.66 20 -7.32 20 -8 20 C-9 17 -9 17 -9 9 C-9.66 9 -10.32 9 -11 9 C-11.241 17.153 -11.241 17.153 -8 24 C-3.006 24.409 1.995 24.746 7 25 C7.33 26.32 7.66 27.64 8 29 C14.252 29.275 14.252 29.275 21 27 C21.495 25.515 21.495 25.515 22 24 C28 24 28 24 30 25 C30 25.66 30 26.32 30 27 C32.31 27 34.62 27 37 27 C37.66 25.02 38.32 23.04 39 21 C43 16 43 16 46 15 C46 16.65 46 18.3 46 20 C44.68 20.66 43.36 21.32 42 22 C41.67 23.32 41.34 24.64 41 26 C35.546 31.454 27.341 29.74 20 30 C19.505 31.485 19.505 31.485 19 33 C16 34 16 34 7 34 C6.34 33.01 5.68 32.02 5 31 C2.649 30.918 0.297 30.835 -2.125 30.75 C-10.4 29.962 -12.749 29.178 -18 23 C-20.274 17.316 -20.146 13.066 -20 7 C-17.03 7.495 -17.03 7.495 -14 8 C-13.01 6.68 -12.02 5.36 -11 4 C-10.01 5.485 -10.01 5.485 -9 7 C-8.34 5.68 -7.68 4.36 -7 3 C-4.69 3.66 -2.38 4.32 0 5 C0 3.35 0 1.7 0 0 Z " fill="#EED00C" transform="translate(51,88)"/>
<path d="M0 0 C1.32 0 2.64 0 4 0 C5 8 5 8 2 13 C-0.618 20.855 0.505 30.447 0.281 38.664 C0 45 0 45 -1 46 C-2.65 46 -4.3 46 -6 46 C-6.33 45.34 -6.66 44.68 -7 44 C-7.99 43.67 -8.98 43.34 -10 43 C-13.553 32.34 -11.789 19.973 -7.75 9.875 C-4 4 -4 4 0 0 Z " fill="#0000BF" transform="translate(11,51)"/>
<path d="M0 0 C1.98 0 3.96 0 6 0 C7.32 1.65 8.64 3.3 10 5 C11.32 6.32 12.64 7.64 14 9 C14.33 7.68 14.66 6.36 15 5 C15.99 4.01 16.98 3.02 18 2 C19.65 2 21.3 2 23 2 C26 7 26 7 27.312 12.562 C28.567 18.621 28.567 18.621 35 22 C35.33 19.03 35.66 16.06 36 13 C36.33 13 36.66 13 37 13 C37 18.94 37 24.88 37 31 C24.235 20.059 24.235 20.059 22 10 C21.505 9.01 21.505 9.01 21 8 C19.68 8.33 18.36 8.66 17 9 C16.34 10.65 15.68 12.3 15 14 C13.68 14 12.36 14 11 14 C10.34 12.35 9.68 10.7 9 9 C8.34 9 7.68 9 7 9 C6.505 8.01 6.505 8.01 6 7 C4.68 7 3.36 7 2 7 C0.68 8.32 -0.64 9.64 -2 11 C-3.32 11 -4.64 11 -6 11 C-6 10.34 -6 9.68 -6 9 C-7.65 9 -9.3 9 -11 9 C-11.66 10.65 -12.32 12.3 -13 14 C-14.444 15.279 -15.888 16.558 -17.375 17.875 C-22.49 21.998 -22.49 21.998 -26 29 C-26.99 29.99 -27.98 30.98 -29 32 C-27.359 22.155 -22.61 17.153 -16 10 C-14.68 8.35 -13.36 6.7 -12 5 C-6 4 -6 4 -3 4 C-2.01 2.68 -1.02 1.36 0 0 Z " fill="#2F2D03" transform="translate(60,38)"/>
<path d="M0 0 C-0.99 0.66 -1.98 1.32 -3 2 C-2.505 3.485 -2.505 3.485 -2 5 C-0.68 5.66 0.64 6.32 2 7 C2 7.99 2 8.98 2 10 C3.98 10.33 5.96 10.66 8 11 C9.98 13.97 9.98 13.97 12 17 C9.05 15.525 6.114 14.02 3.188 12.5 C-2.17 9.737 -2.17 9.737 -9 8 C-9 7.34 -9 6.68 -9 6 C-12.667 5.973 -16.333 5.954 -20 5.938 C-22.042 5.926 -24.084 5.914 -26.188 5.902 C-34.366 6.04 -39.094 6.396 -46 11 C-46.66 10.67 -47.32 10.34 -48 10 C-47.01 9.01 -46.02 8.02 -45 7 C-44.34 7 -43.68 7 -43 7 C-43 6.34 -43 5.68 -43 5 C-44.32 5 -45.64 5 -47 5 C-46 3 -46 3 -41.25 1 C-27.261 -3.477 -14.197 -4.056 0 0 Z " fill="#000069" transform="translate(83,9)"/>
<path d="M0 0 C1.65 0 3.3 0 5 0 C7.599 2.599 6.803 10.548 7 14 C6.67 14.66 6.34 15.32 6 16 C5.842 19.417 5.749 22.838 5.684 26.258 C5.642 28.327 5.6 30.396 5.557 32.527 C5.517 34.705 5.478 36.882 5.438 39.125 C5.394 41.31 5.351 43.495 5.307 45.746 C5.2 51.164 5.1 56.582 5 62 C3.68 61.34 2.36 60.68 1 60 C0.67 60 0.34 60 0 60 C0 40.2 0 20.4 0 0 Z " fill="#020180" transform="translate(26,50)"/>
<path d="M0 0 C0 18.81 0 37.62 0 57 C-1.98 57.495 -1.98 57.495 -4 58 C-5 57 -5 57 -5.114 51.746 C-5.108 49.405 -5.103 47.064 -5.098 44.652 C-5.094 42.129 -5.091 39.606 -5.088 37.006 C-5.08 34.343 -5.071 31.681 -5.062 28.938 C-5.056 24.938 -5.056 24.938 -5.049 20.857 C-5.037 14.238 -5.02 7.619 -5 1 C-3 0 -3 0 0 0 Z " fill="#04028A" transform="translate(102,50)"/>
<path d="M0 0 C1.65 0 3.3 0 5 0 C7.421 46.605 7.421 46.605 4 62 C2 62 0 62 -2 62 C-3.65 64.64 -5.3 67.28 -7 70 C-9 71 -9 71 -14.938 70.812 C-21.994 71 -26.473 72.562 -33 75 C-41 74 -41 74 -43 72 C-45.166 71.918 -47.331 71.835 -49.562 71.75 C-57.185 70.981 -61.546 69.454 -67 64 C-67 61.69 -67 59.38 -67 57 C-66.34 57.99 -65.68 58.98 -65 60 C-60.698 65.74 -60.698 65.74 -57 68 C-54.504 68.144 -52.009 68.289 -49.438 68.438 C-45.756 68.716 -45.756 68.716 -42 69 C-41.34 69.99 -40.68 70.98 -40 72 C-31.896 72.474 -31.896 72.474 -28 71 C-27.01 70.01 -26.02 69.02 -25 68 C-17 67.5 -17 67.5 -9 67 C-5.851 64.298 -5.851 64.298 -5 61 C0 58 0 58 3 58 C3.33 39.19 3.66 20.38 4 1 C2.35 1.33 0.7 1.66 -1 2 C-0.67 1.34 -0.34 0.68 0 0 Z " fill="#22210F" transform="translate(98,49)"/>
<path d="M0 0 C0.33 0 0.66 0 1 0 C1 22.11 1 44.22 1 67 C7.99 64.373 7.99 64.373 13 60 C13.33 58.68 13.66 57.36 14 56 C14.66 56 15.32 56 16 56 C18.458 43.864 19.427 31.996 16 20 C16.33 18.68 16.66 17.36 17 16 C22.494 25.254 24 32.055 24 43 C20.114 55.115 15.325 62.256 5 70 C3.02 70.495 3.02 70.495 1 71 C-1.909 68.091 -0.515 56.778 -0.625 52.375 C-0.67 50.628 -0.715 48.88 -0.761 47.08 C-1.105 31.361 -0.737 15.705 0 0 Z " fill="#02012A" transform="translate(104,40)"/>
<path d="M0 0 C-5.143 0.163 -10.286 0.326 -15.43 0.488 C-27.267 1.576 -35.661 5.524 -43.938 14.062 C-47.242 17.937 -47.242 17.937 -49 23 C-49.66 23 -50.32 23 -51 23 C-51 26.3 -51 29.6 -51 33 C-51.99 33.99 -52.98 34.98 -54 36 C-55.498 40.493 -55.228 44.845 -55.316 49.574 C-55.358 51.685 -55.4 53.796 -55.443 55.971 C-55.483 58.187 -55.522 60.404 -55.562 62.688 C-55.606 64.916 -55.649 67.144 -55.693 69.439 C-55.8 74.96 -55.902 80.48 -56 86 C-57.98 86.99 -57.98 86.99 -60 88 C-59.34 86.68 -58.68 85.36 -58 84 C-57.786 80.36 -57.69 76.713 -57.656 73.066 C-57.627 70.891 -57.597 68.716 -57.566 66.475 C-57.544 64.194 -57.523 61.913 -57.5 59.562 C-57.457 55.064 -57.405 50.565 -57.344 46.066 C-57.325 44.065 -57.306 42.064 -57.287 40.002 C-57 35 -57 35 -55 30 C-54.296 26.674 -53.624 23.342 -53 20 C-52.34 20 -51.68 20 -51 20 C-50.67 18.35 -50.34 16.7 -50 15 C-44.701 8.187 -38.815 2.907 -31 -1 C-7.8 -3.9 -7.8 -3.9 0 0 Z " fill="#00004B" transform="translate(74,16)"/>
<path d="M0 0 C7.52 3.76 10.751 9.42 14 17 C14.268 19.145 14.536 21.29 14.812 23.5 C15.559 30.675 15.559 30.675 22 37 C26.73 50.558 26.141 64.368 22 78 C21.34 78 20.68 78 20 78 C19.67 79.65 19.34 81.3 19 83 C11 89 11 89 7 89 C7 88.01 7 87.02 7 86 C8.98 85.01 10.96 84.02 13 83 C20.028 77.378 20.883 73.933 22 65 C22.066 61.501 22.086 58 22.062 54.5 C22.042 51.365 22.021 48.23 22 45 C20.515 44.505 20.515 44.505 19 44 C18.34 42.35 17.68 40.7 17 39 C15.35 36.36 13.7 33.72 12 31 C11.34 27.824 10.68 24.648 10 21.375 C8.751 11.954 8.751 11.954 3 6 C2.01 4.02 1.02 2.04 0 0 Z " fill="#00006D" transform="translate(98,18)"/>
<path d="M0 0 C3 3 3 3 5 11 C7.461 8.539 7.245 4.397 8 1 C8.33 1 8.66 1 9 1 C9.658 8.733 10 16.223 10 24 C8.35 22.68 6.7 21.36 5 20 C-0.332 19.879 -5.668 19.871 -11 20 C-12 19 -12 19 -12.062 12.438 C-12.042 10.313 -12.021 8.189 -12 6 C-11.34 6 -10.68 6 -10 6 C-9.67 9.63 -9.34 13.26 -9 17 C-8.34 17 -7.68 17 -7 17 C-7 12.05 -7 7.1 -7 2 C-3.369 5.631 -4.313 11.101 -4 16 C-3.34 16 -2.68 16 -2 16 C-2.041 14.288 -2.082 12.576 -2.125 10.812 C-2 5 -2 5 0 0 Z " fill="#F3DD0E" transform="translate(52,91)"/>
<path d="M0 0 C1.65 1.65 3.3 3.3 5 5 C4.01 6.485 4.01 6.485 3 8 C2.01 7.67 1.02 7.34 0 7 C0 22.18 0 37.36 0 53 C1.65 52.01 3.3 51.02 5 50 C5.66 50 6.32 50 7 50 C7.33 48.35 7.66 46.7 8 45 C8.66 43.02 9.32 41.04 10 39 C11.232 26.984 10.275 18.399 6 7 C6.66 7 7.32 7 8 7 C11 11 11 11 12 15 C12.66 15.33 13.32 15.66 14 16 C16.851 24.552 15.098 35.213 14 44 C10 51 10 51 4 56 C1.525 56.495 1.525 56.495 -1 57 C-1.029 48.25 -1.047 39.5 -1.062 30.75 C-1.071 28.256 -1.079 25.761 -1.088 23.191 C-1.091 20.813 -1.094 18.435 -1.098 15.984 C-1.103 13.785 -1.108 11.585 -1.114 9.319 C-1 4 -1 4 0 0 Z " fill="#0100A1" transform="translate(106,47)"/>
<path d="M0 0 C0 1.65 0 3.3 0 5 C-1.98 5.99 -1.98 5.99 -4 7 C-4.33 8.32 -4.66 9.64 -5 11 C-10.454 16.454 -18.659 14.74 -26 15 C-26.33 15.99 -26.66 16.98 -27 18 C-30 19 -30 19 -39 19 C-39.66 18.01 -40.32 17.02 -41 16 C-43.351 15.918 -45.703 15.835 -48.125 15.75 C-56.352 14.966 -58.653 14.002 -64 8 C-62.68 7.67 -61.36 7.34 -60 7 C-58.68 8.32 -57.36 9.64 -56 11 C-48.021 12.165 -48.021 12.165 -40 12 C-38.68 12.66 -37.36 13.32 -36 14 C-32.324 13.387 -28.654 12.731 -25 12 C-24.67 11.01 -24.34 10.02 -24 9 C-18 9 -18 9 -16 10 C-16 10.66 -16 11.32 -16 12 C-13.69 12 -11.38 12 -9 12 C-8.34 10.02 -7.68 8.04 -7 6 C-2.2 0 -2.2 0 0 0 Z " fill="#615B06" transform="translate(97,103)"/>
<path d="M0 0 C0.99 0.495 0.99 0.495 2 1 C2 1.66 2 2.32 2 3 C5.896 4.474 5.896 4.474 14 4 C13.55 12.845 13.024 21.364 11 30 C10.34 30 9.68 30 9 30 C8.34 23.07 7.68 16.14 7 9 C6.34 9 5.68 9 5 9 C5 11.97 5 14.94 5 18 C3.759 22.692 2.44 27.365 1 32 C0.67 32 0.34 32 0 32 C0 21.44 0 10.88 0 0 Z " fill="#F3DC0E" transform="translate(65,50)"/>
<path d="M0 0 C0.66 0 1.32 0 2 0 C2.33 2.97 2.66 5.94 3 9 C5.64 9.33 8.28 9.66 11 10 C11 11.65 11 13.3 11 15 C11.99 15 12.98 15 14 15 C14 15.66 14 16.32 14 17 C14.99 17 15.98 17 17 17 C17.33 20.96 17.66 24.92 18 29 C17.01 29.33 16.02 29.66 15 30 C15 27.69 15 25.38 15 23 C14.34 23 13.68 23 13 23 C12.67 23.66 12.34 24.32 12 25 C11.01 23.35 10.02 21.7 9 20 C8.34 20 7.68 20 7 20 C6.67 21.65 6.34 23.3 6 25 C5.34 25 4.68 25 4 25 C3.34 23.35 2.68 21.7 2 20 C0.68 19.67 -0.64 19.34 -2 19 C-1.34 12.73 -0.68 6.46 0 0 Z " fill="#F4BB0A" transform="translate(79,55)"/>
<path d="M0 0 C2.475 0.495 2.475 0.495 5 1 C5 1.66 5 2.32 5 3 C5.66 3 6.32 3 7 3 C7.66 4.65 8.32 6.3 9 8 C10.32 7.67 11.64 7.34 13 7 C13.66 5.35 14.32 3.7 15 2 C16.32 1.67 17.64 1.34 19 1 C22 6 22 6 23 13 C23.99 14.32 24.98 15.64 26 17 C24.68 16.34 23.36 15.68 22 15 C21.01 12.03 20.02 9.06 19 6 C17.68 6 16.36 6 15 6 C14.67 6.99 14.34 7.98 14 9 C12.02 9 10.04 9 8 9 C7.34 7.68 6.68 6.36 6 5 C3.525 4.505 3.525 4.505 1 4 C0.01 4.99 -0.98 5.98 -2 7 C-4.97 7 -7.94 7 -11 7 C-11.99 7.99 -12.98 8.98 -14 10 C-14.66 10 -15.32 10 -16 10 C-16.66 11.32 -17.32 12.64 -18 14 C-19.65 15.65 -21.3 17.3 -23 19 C-24.98 23.455 -24.98 23.455 -27 28 C-28.98 28.99 -28.98 28.99 -31 30 C-30 24 -30 24 -26 19 C-25.01 17.35 -24.02 15.7 -23 14 C-20.69 12.02 -18.38 10.04 -16 8 C-15.01 6.35 -14.02 4.7 -13 3 C-11.35 3 -9.7 3 -8 3 C-8 3.66 -8 4.32 -8 5 C-5.69 4.34 -3.38 3.68 -1 3 C-0.67 2.01 -0.34 1.02 0 0 Z " fill="#A1970A" transform="translate(62,44)"/>
<path d="M0 0 C1.32 0.66 2.64 1.32 4 2 C2.68 2 1.36 2 0 2 C0 20.48 0 38.96 0 58 C-0.99 57.01 -1.98 56.02 -3 55 C-3.66 55 -4.32 55 -5 55 C-5 43.12 -5 31.24 -5 19 C-4.34 18.67 -3.68 18.34 -3 18 C-2.67 19.65 -2.34 21.3 -2 23 C-1.939 21.423 -1.879 19.847 -1.816 18.223 C-1.733 16.19 -1.649 14.157 -1.562 12.062 C-1.481 10.032 -1.4 8.002 -1.316 5.91 C-1 1 -1 1 0 0 Z " fill="#13111F" transform="translate(26,48)"/>
<path d="M0 0 C0.224 9.852 -0.643 19.244 -2 29 C-2.66 28.67 -3.32 28.34 -4 28 C-4.743 22.677 -5.411 17.342 -6 12 C-6.155 15.836 -6.155 15.836 -6.312 19.75 C-7 28 -7 28 -10 32 C-11.097 24.323 -11.693 17.746 -11 10 C-2.684 0 -2.684 0 0 0 Z " fill="#F2D90E" transform="translate(51,53)"/>
<path d="M0 0 C0.33 0 0.66 0 1 0 C1.027 6.813 1.047 13.625 1.062 20.438 C1.071 22.385 1.079 24.332 1.088 26.338 C1.096 31.225 1.053 36.113 1 41 C0.505 41.495 0.505 41.495 0 42 C-2.31 42 -4.62 42 -7 42 C-7 41.34 -7 40.68 -7 40 C-8.32 39.67 -9.64 39.34 -11 39 C-11.33 37.35 -11.66 35.7 -12 34 C-9.333 34.667 -6.667 35.333 -4 36 C-3.944 32.982 -3.944 32.982 -3.887 29.902 C-3.821 27.274 -3.755 24.646 -3.688 21.938 C-3.629 19.327 -3.571 16.717 -3.512 14.027 C-3 7 -3 7 0 0 Z " fill="#01009D" transform="translate(14,60)"/>
<path d="M0 0 C0.66 0 1.32 0 2 0 C2 0.66 2 1.32 2 2 C3.65 2 5.3 2 7 2 C7 1.34 7 0.68 7 0 C7.66 0 8.32 0 9 0 C9.33 1.98 9.66 3.96 10 6 C10.99 6 11.98 6 13 6 C13.33 5.01 13.66 4.02 14 3 C14 8.61 14 14.22 14 20 C13.34 20 12.68 20 12 20 C9 8.375 9 8.375 9 5 C8.34 5 7.68 5 7 5 C6.01 8.96 5.02 12.92 4 17 C3.34 16.67 2.68 16.34 2 16 C1.34 14.02 0.68 12.04 0 10 C-0.99 12.31 -1.98 14.62 -3 17 C-3.66 17.99 -4.32 18.98 -5 20 C-5.33 16.04 -5.66 12.08 -6 8 C-5.34 8 -4.68 8 -4 8 C-4 6.68 -4 5.36 -4 4 C-3.01 3.67 -2.02 3.34 -1 3 C-0.67 2.01 -0.34 1.02 0 0 Z " fill="#F9A204" transform="translate(68,92)"/>
<path d="M0 0 C-0.115 3.813 -0.242 7.625 -0.375 11.438 C-0.479 14.622 -0.479 14.622 -0.586 17.871 C-1 24 -1 24 -3 33 C-3.66 33 -4.32 33 -5 33 C-5.671 28.605 -6.337 24.209 -7 19.812 C-7.371 17.365 -7.742 14.917 -8.125 12.395 C-9 6 -9 6 -9 1 C-1 0 -1 0 0 0 Z " fill="#F3DC0E" transform="translate(62,51)"/>
<path d="M0 0 C2.501 5.003 2.94 9.458 3.688 15 C4.095 17.939 4.095 17.939 4.512 20.938 C5 26 5 26 4 30 C4 29.34 4 28.68 4 28 C2.68 28 1.36 28 0 28 C-0.33 27.34 -0.66 26.68 -1 26 C-1.33 27.32 -1.66 28.64 -2 30 C-3.65 30.33 -5.3 30.66 -7 31 C-7.99 31.33 -8.98 31.66 -10 32 C-9.67 30.68 -9.34 29.36 -9 28 C-8.856 25.319 -8.711 22.638 -8.562 19.875 C-8 12 -8 12 -6 10 C-5.34 15.94 -4.68 21.88 -4 28 C-2.988 20.71 -2.038 13.461 -1.438 6.125 C-1 1 -1 1 0 0 Z " fill="#FB4002" transform="translate(52,53)"/>
<path d="M0 0 C0.33 0.66 0.66 1.32 1 2 C0.34 2 -0.32 2 -1 2 C-1 2.66 -1 3.32 -1 4 C-3.667 6.333 -6.333 8.667 -9 11 C-14.323 16.744 -14.323 16.744 -19 23 C-19.66 23 -20.32 23 -21 23 C-22.485 28.94 -22.485 28.94 -24 35 C-24.33 35 -24.66 35 -25 35 C-25 24.361 -24.375 18.96 -17.688 10.625 C-11.916 4.93 -7.834 2.238 0 0 Z " fill="#060579" transform="translate(41,12)"/>
<path d="M0 0 C0.66 0 1.32 0 2 0 C2 0.99 2 1.98 2 3 C3.98 2.67 5.96 2.34 8 2 C8.33 2.66 8.66 3.32 9 4 C9.99 3.34 10.98 2.68 12 2 C12 4.97 12 7.94 12 11 C10.02 11.99 10.02 11.99 8 13 C5.605 16.307 5.605 16.307 4 22 C3.01 22 2.02 22 1 22 C1 15.73 1 9.46 1 3 C0.34 3 -0.32 3 -1 3 C-0.67 2.01 -0.34 1.02 0 0 Z " fill="#EDD70E" transform="translate(84,90)"/>
<path d="M0 0 C0.99 1.485 0.99 1.485 2 3 C6.302 8.74 6.302 8.74 10 11 C12.496 11.144 14.991 11.289 17.562 11.438 C21.244 11.716 21.244 11.716 25 12 C25.99 13.485 25.99 13.485 27 15 C35.104 15.474 35.104 15.474 39 14 C39.99 13.01 40.98 12.02 42 11 C47.332 10.878 52.668 10.872 58 11 C57.67 11.66 57.34 12.32 57 13 C55.226 13.124 53.453 13.248 51.625 13.375 C45.023 13.712 45.023 13.712 39.25 16.125 C34 18 34 18 26 17 C25.34 16.34 24.68 15.68 24 15 C21.834 14.918 19.669 14.835 17.438 14.75 C9.815 13.981 5.454 12.454 0 7 C0 4.69 0 2.38 0 0 Z " fill="#272502" transform="translate(31,106)"/>
<path d="M0 0 C7.52 3.76 10.751 9.42 14 17 C14.402 20.187 14.402 20.187 14.812 23.438 C15.63 30.751 15.63 30.751 22 38 C17 37 17 37 12 31 C10.667 24.667 9.333 18.333 8 12 C6.35 10.02 4.7 8.04 3 6 C2.01 4.02 1.02 2.04 0 0 Z " fill="#000054" transform="translate(98,18)"/>
<path d="M0 0 C0.33 1.32 0.66 2.64 1 4 C0.67 4.33 0.34 4.66 0 5 C-5.022 4.909 -10.043 4.752 -15.062 4.562 C-17.838 4.461 -20.613 4.359 -23.473 4.254 C-25.627 4.17 -27.781 4.086 -30 4 C-20.522 -2.319 -10.928 -0.878 0 0 Z M-33 4 C-30 5 -30 5 -30 5 Z " fill="#000068" transform="translate(76,7)"/>
<path d="M0 0 C-5.143 0.163 -10.286 0.326 -15.43 0.488 C-27.723 1.618 -35.524 6.419 -45 14 C-43 7 -43 7 -35 1 C-25.779 -3.61 -9.219 -4.609 0 0 Z " fill="#00002E" transform="translate(74,16)"/>
<path d="M0 0 C5 1 5 1 8 4 C15.979 5.165 15.979 5.165 24 5 C25.32 5.66 26.64 6.32 28 7 C31.676 6.387 35.346 5.731 39 5 C39.33 4.01 39.66 3.02 40 2 C46 2 46 2 48 3 C48 3.66 48 4.32 48 5 C50.31 5 52.62 5 55 5 C55 5.33 55 5.66 55 6 C53.02 5.959 51.04 5.918 49 5.875 C41.758 5.742 41.758 5.742 34 8 C34 8.66 34 9.32 34 10 C31.36 10 28.72 10 26 10 C25.34 9.34 24.68 8.68 24 8 C19.001 7.658 14.001 7.325 9 7 C4 5 4 5 0 0 Z " fill="#7D7507" transform="translate(33,110)"/>
<path d="M0 0 C0 0.99 0 1.98 0 3 C-1.32 3 -2.64 3 -4 3 C-5.32 4.32 -6.64 5.64 -8 7 C-9.32 7 -10.64 7 -12 7 C-12 6.34 -12 5.68 -12 5 C-13.65 5 -15.3 5 -17 5 C-17.66 6.65 -18.32 8.3 -19 10 C-20.444 11.279 -21.888 12.558 -23.375 13.875 C-28.49 17.998 -28.49 17.998 -32 25 C-32.99 25.99 -33.98 26.98 -35 28 C-33.554 19.325 -31.67 17.689 -25 12 C-19.919 7.323 -19.919 7.323 -17 2 C-11.938 1.25 -11.938 1.25 -7 1 C-5 0 -5 0 0 0 Z " fill="#514C04" transform="translate(66,42)"/>
<path d="M0 0 C0.66 0 1.32 0 2 0 C1 6 1 6 0 8 C-0.366 11.664 -0.701 15.33 -1 19 C-1.66 19 -2.32 19 -3 19 C-3.66 15.04 -4.32 11.08 -5 7 C-5.33 11.29 -5.66 15.58 -6 20 C-6.66 20 -7.32 20 -8 20 C-8.66 15.71 -9.32 11.42 -10 7 C-9.34 6.67 -8.68 6.34 -8 6 C-7.67 5.01 -7.34 4.02 -7 3 C-4.69 3.66 -2.38 4.32 0 5 C0 3.35 0 1.7 0 0 Z " fill="#FC7902" transform="translate(51,88)"/>
<path d="M0 0 C0.66 0.33 1.32 0.66 2 1 C3.32 13.36 3.32 13.36 2 16 C1.842 19.417 1.749 22.838 1.684 26.258 C1.642 28.327 1.6 30.396 1.557 32.527 C1.517 34.705 1.478 36.882 1.438 39.125 C1.394 41.31 1.351 43.495 1.307 45.746 C1.2 51.164 1.1 56.582 1 62 C-0.32 61.34 -1.64 60.68 -3 60 C-3.33 58.68 -3.66 57.36 -4 56 C-2.68 56 -1.36 56 0 56 C0 37.52 0 19.04 0 0 Z " fill="#0A0445" transform="translate(30,50)"/>
<path d="M0 0 C1.32 0 2.64 0 4 0 C4.33 2.64 4.66 5.28 5 8 C4.67 7.34 4.34 6.68 4 6 C3.01 6 2.02 6 1 6 C0.34 7.32 -0.32 8.64 -1 10 C-2.32 11.65 -3.64 13.3 -5 15 C-5.99 14.34 -6.98 13.68 -8 13 C-6 7 -6 7 0 0 Z " fill="#080792" transform="translate(11,51)"/>
<path d="M0 0 C3.531 7.063 4 15.169 4 23 C3.01 22.67 2.02 22.34 1 22 C1 21.34 1 20.68 1 20 C0.01 20.33 -0.98 20.66 -2 21 C-1.125 1.125 -1.125 1.125 0 0 Z " fill="#FC8401" transform="translate(52,53)"/>
<path d="M0 0 C3 5 3 5 4.312 10.562 C5.567 16.621 5.567 16.621 12 20 C12.33 17.03 12.66 14.06 13 11 C13.33 11 13.66 11 14 11 C14 15.62 14 20.24 14 25 C12.35 23.68 10.7 22.36 9 21 C7.35 20.01 5.7 19.02 4 18 C3.34 15.03 2.68 12.06 2 9 C1.67 8.67 1.34 8.34 1 8 C1 6.35 1 4.7 1 3 C-1.64 3 -4.28 3 -7 3 C-7 2.34 -7 1.68 -7 1 C-5 0 -5 0 0 0 Z " fill="#1A1904" transform="translate(83,40)"/>
<path d="M0 0 C0.66 0 1.32 0 2 0 C5 10.75 5 10.75 5 13 C2.36 13.33 -0.28 13.66 -3 14 C-2 5 -2 5 0 0 Z " fill="#F2E00F" transform="translate(75,97)"/>
<path d="M0 0 C1.98 0.99 1.98 0.99 4 2 C7.465 3.485 7.465 3.485 11 5 C15 9 15 9 15.25 15.75 C15.168 17.812 15.085 19.875 15 22 C14.67 22 14.34 22 14 22 C14 18.7 14 15.4 14 12 C13.01 12 12.02 12 11 12 C11 11.34 11 10.68 11 10 C10.01 10 9.02 10 8 10 C8 8.35 8 6.7 8 5 C7.34 5 6.68 5 6 5 C5.67 5.66 5.34 6.32 5 7 C5 6.34 5 5.68 5 5 C3.35 4.67 1.7 4.34 0 4 C0 2.68 0 1.36 0 0 Z " fill="#D2C411" transform="translate(82,60)"/>
<path d="M0 0 C0.66 0 1.32 0 2 0 C4 15.375 4 15.375 4 21 C2.02 20.34 0.04 19.68 -2 19 C-1.34 12.73 -0.68 6.46 0 0 Z " fill="#FB8901" transform="translate(79,55)"/>
<path d="M0 0 C0.33 0 0.66 0 1 0 C1.309 2.888 1.619 5.775 1.938 8.75 C2.702 17.177 2.702 17.177 4 22 C3.01 21.67 2.02 21.34 1 21 C0.67 20.01 0.34 19.02 0 18 C-0.99 18 -1.98 18 -3 18 C-3.33 18.66 -3.66 19.32 -4 20 C-1.333 1.333 -1.333 1.333 0 0 Z " fill="#FB5A01" transform="translate(63,62)"/>
<path d="M0 0 C1.65 0 3.3 0 5 0 C8 5 8 5 10 14 C11.98 15.32 13.96 16.64 16 18 C16.99 18.99 17.98 19.98 19 21 C18.67 22.32 18.34 23.64 18 25 C6.25 14.125 6.25 14.125 4 4 C3.67 3.34 3.34 2.68 3 2 C2.01 2 1.02 2 0 2 C0 1.34 0 0.68 0 0 Z " fill="#605A06" transform="translate(78,44)"/>
<path d="M0 0 C1.98 0 3.96 0 6 0 C6 0.33 6 0.66 6 1 C4.35 1 2.7 1 1 1 C0.34 2.65 -0.32 4.3 -1 6 C-4.3 6 -7.6 6 -11 6 C-11.66 7.65 -12.32 9.3 -13 11 C-17 15 -21 19 -25 23 C-25 17.456 -19.589 13.873 -16 10 C-14.68 8.35 -13.36 6.7 -12 5 C-6 4 -6 4 -3 4 C-2.01 2.68 -1.02 1.36 0 0 Z " fill="#1C1B01" transform="translate(60,38)"/>
<path d="M0 0 C0.66 0 1.32 0 2 0 C3.135 5.816 4 11.057 4 17 C2.02 16.67 0.04 16.34 -2 16 C-1.34 10.72 -0.68 5.44 0 0 Z " fill="#FB9002" transform="translate(70,59)"/>
<path d="M0 0 C0.99 0.33 1.98 0.66 3 1 C3.99 3.97 4.98 6.94 6 10 C7.98 11.32 9.96 12.64 12 14 C11.01 14.495 11.01 14.495 10 15 C7.69 13.68 5.38 12.36 3 11 C3 12.98 3 14.96 3 17 C2.67 17 2.34 17 2 17 C2 13.37 2 9.74 2 6 C1.34 6 0.68 6 0 6 C-0.33 5.34 -0.66 4.68 -1 4 C-1.33 4.33 -1.66 4.66 -2 5 C-3.98 5 -5.96 5 -8 5 C-8 4.67 -8 4.34 -8 4 C-6.35 3.67 -4.7 3.34 -3 3 C-2.01 2.01 -1.02 1.02 0 0 Z " fill="#BDA709" transform="translate(79,49)"/>
<path d="M0 0 C0.33 0 0.66 0 1 0 C1 7 1 7 -1 10 C-3.475 9.505 -3.475 9.505 -6 9 C-8.475 12.96 -8.475 12.96 -11 17 C-13 18 -13 18 -22 18 C-22 17.67 -22 17.34 -22 17 C-18.04 16.505 -18.04 16.505 -14 16 C-10.008 11.601 -10.008 11.601 -9 8 C-4 5 -4 5 -1 5 C-0.67 3.35 -0.34 1.7 0 0 Z " fill="#1E1C01" transform="translate(102,102)"/>
<path d="M0 0 C0.66 0 1.32 0 2 0 C1.67 2.97 1.34 5.94 1 9 C1.66 9.33 2.32 9.66 3 10 C2.34 13.3 1.68 16.6 1 20 C-2.508 15.323 -3.026 11.695 -4 6 C-2.68 6 -1.36 6 0 6 C0 4.02 0 2.04 0 0 Z " fill="#FC5201" transform="translate(57,84)"/>
<path d="M0 0 C3 1 3 1 5 5 C5.33 7.31 5.66 9.62 6 12 C6.99 13.32 7.98 14.64 9 16 C7.68 15.34 6.36 14.68 5 14 C3.515 9.545 3.515 9.545 2 5 C0.68 5 -0.64 5 -2 5 C-2.33 5.99 -2.66 6.98 -3 8 C-4.98 8 -6.96 8 -9 8 C-12 4 -12 4 -12 2 C-11.34 2 -10.68 2 -10 2 C-9.34 3.65 -8.68 5.3 -8 7 C-6.68 6.67 -5.36 6.34 -4 6 C-3.34 4.35 -2.68 2.7 -2 1 C-1.34 0.67 -0.68 0.34 0 0 Z " fill="#867E08" transform="translate(79,45)"/>
<path d="M0 0 C2.475 0.495 2.475 0.495 5 1 C6.396 6.584 4.617 10.568 3 16 C2.34 16 1.68 16 1 16 C0.67 10.72 0.34 5.44 0 0 Z " fill="#F4DC0E" transform="translate(82,64)"/>
<path d="M0 0 C1.32 0 2.64 0 4 0 C4.125 15.375 4.125 15.375 3 21 C2.34 20.67 1.68 20.34 1 20 C0.67 13.4 0.34 6.8 0 0 Z " fill="#070782" transform="translate(26,50)"/>
<path d="M0 0 C0.66 0.33 1.32 0.66 2 1 C1.34 5.29 0.68 9.58 0 14 C-0.66 12.68 -1.32 11.36 -2 10 C-2.99 10.99 -3.98 11.98 -5 13 C-5.66 12.67 -6.32 12.34 -7 12 C-7 9.36 -7 6.72 -7 4 C-5.35 4 -3.7 4 -2 4 C-1.34 2.68 -0.68 1.36 0 0 Z " fill="#F7A105" transform="translate(39,92)"/>
<path d="M0 0 C2.975 4.463 2.189 8.382 2.125 13.688 C2.107 15.609 2.089 17.531 2.07 19.512 C2.047 20.993 2.024 22.474 2 24 C1.34 24 0.68 24 0 24 C0 25.98 0 27.96 0 30 C-0.99 30.99 -1.98 31.98 -3 33 C-3.33 32.01 -3.66 31.02 -4 30 C-3.01 28.515 -3.01 28.515 -2 27 C-0.24 17.905 0.187 9.251 0 0 Z " fill="#0000B3" transform="translate(117,64)"/>
<path d="M0 0 C0.66 0 1.32 0 2 0 C2 8.25 2 16.5 2 25 C1.67 25 1.34 25 1 25 C0.67 21.37 0.34 17.74 0 14 C-0.66 15.32 -1.32 16.64 -2 18 C-2 11.454 -1.401 6.307 0 0 Z " fill="#F7A503" transform="translate(63,49)"/>
<path d="M0 0 C3 4 3 4 3.812 10.25 C4.603 17.728 4.603 17.728 11 25 C6 24 6 24 3 21 C0 6 0 6 0 0 Z " fill="#000020" transform="translate(109,31)"/>
<path d="M0 0 C0.66 0 1.32 0 2 0 C2 6.27 2 12.54 2 19 C1.01 19 0.02 19 -1 19 C-1.042 13 -1.041 7 -1 1 C-0.67 0.67 -0.34 0.34 0 0 Z " fill="#F3DE0F" transform="translate(83,93)"/>
<path d="M0 0 C4 1 4 1 9 6 C8.67 8.31 8.34 10.62 8 13 C7.34 13 6.68 13 6 13 C6 12.34 6 11.68 6 11 C5.34 11 4.68 11 4 11 C1 4 1 4 0 0 Z " fill="#000093" transform="translate(95,20)"/>
<path d="M0 0 C5 1 5 1 6 2 C10.997 2.372 15.998 2.706 21 3 C21.33 3.99 21.66 4.98 22 6 C7.625 6.375 7.625 6.375 2 3 C1.34 2.01 0.68 1.02 0 0 Z " fill="#BAB00C" transform="translate(37,110)"/>
<path d="M0 0 C3.332 -0.025 3.332 -0.025 6.73 -0.051 C12.812 0.312 12.812 0.312 19.812 3.312 C20.472 4.303 21.132 5.293 21.812 6.312 C18.843 5.652 15.873 4.992 12.812 4.312 C12.812 3.652 12.812 2.992 12.812 2.312 C3.903 2.312 -5.008 2.312 -14.188 2.312 C-10.535 -1.34 -4.903 0.008 0 0 Z " fill="#000049" transform="translate(61.1875,12.6875)"/>
<path d="M0 0 C6 0 6 0 8 1 C8 1.66 8 2.32 8 3 C10.31 3 12.62 3 15 3 C15 3.33 15 3.66 15 4 C13.02 3.938 11.04 3.876 9 3.812 C1.669 3.628 1.669 3.628 -6 7 C-8.31 7 -10.62 7 -13 7 C-13.33 6.34 -13.66 5.68 -14 5 C-12.02 5 -10.04 5 -8 5 C-5.69 4.34 -3.38 3.68 -1 3 C-0.67 2.01 -0.34 1.02 0 0 Z " fill="#A39A0A" transform="translate(73,112)"/>
<path d="M0 0 C0 3.3 0 6.6 0 10 C-0.66 9.67 -1.32 9.34 -2 9 C-2.33 9.99 -2.66 10.98 -3 12 C-3.99 11.67 -4.98 11.34 -6 11 C-6 8.36 -6 5.72 -6 3 C-2 0 -2 0 0 0 Z " fill="#E8D210" transform="translate(37,71)"/>
<path d="M0 0 C0.66 0.33 1.32 0.66 2 1 C-0.97 3.97 -0.97 3.97 -4 7 C-5.004 10.332 -6.004 13.665 -7 17 C-8.65 17.99 -10.3 18.98 -12 20 C-11 14 -11 14 -7 9 C-6.01 7.35 -5.02 5.7 -4 4 C-2.68 2.68 -1.36 1.36 0 0 Z " fill="#91890A" transform="translate(43,54)"/>
<path d="M0 0 C2 3 2 3 2 11 C1.01 11.66 0.02 12.32 -1 13 C-1.99 12.67 -2.98 12.34 -4 12 C-2.25 2.25 -2.25 2.25 0 0 Z " fill="#F2E20F" transform="translate(68,101)"/>
<path d="M0 0 C0.66 0 1.32 0 2 0 C2 0.99 2 1.98 2 3 C3.98 2.67 5.96 2.34 8 2 C8 2.66 8 3.32 8 4 C7.01 4.495 7.01 4.495 6 5 C5.01 7.97 4.02 10.94 3 14 C1 11 1 11 1 3 C0.34 3 -0.32 3 -1 3 C-0.67 2.01 -0.34 1.02 0 0 Z " fill="#FC8302" transform="translate(84,90)"/>
<path d="M0 0 C6.6 0 13.2 0 20 0 C20 1.32 20 2.64 20 4 C17.36 4 14.72 4 12 4 C12 3.34 12 2.68 12 2 C8.04 1.67 4.08 1.34 0 1 C0 0.67 0 0.34 0 0 Z " fill="#00008D" transform="translate(56,8)"/>
<path d="M0 0 C0.33 0 0.66 0 1 0 C1 2.97 1 5.94 1 9 C-0.65 10.65 -2.3 12.3 -4 14 C-5.32 16.31 -6.64 18.62 -8 21 C-10.31 21 -12.62 21 -15 21 C-15 20.67 -15 20.34 -15 20 C-13.02 20 -11.04 20 -9 20 C-8.01 17.03 -7.02 14.06 -6 11 C-4.68 9.68 -3.36 8.36 -2 7 C-1.34 7 -0.68 7 0 7 C0 4.69 0 2.38 0 0 Z " fill="#C3B710" transform="translate(96,94)"/>
<path d="M0 0 C16.75 0.75 16.75 0.75 19 3 C22.999 3.082 27.001 3.085 31 3 C30.67 3.66 30.34 4.32 30 5 C27 6 27 6 18 6 C17.34 5.01 16.68 4.02 16 3 C11.003 2.628 6.002 2.294 1 2 C0.67 1.34 0.34 0.68 0 0 Z " fill="#4D4904" transform="translate(40,116)"/>
<path d="M0 0 C0.99 0 1.98 0 3 0 C0.641 4.718 -2.51 8.066 -6 12 C-6.33 12.66 -6.66 13.32 -7 14 C-7.66 14 -8.32 14 -9 14 C-7.694 7.471 -4.612 4.682 0 0 Z " fill="#5858AB" transform="translate(30,20)"/>
<path d="M0 0 C0.33 0.66 0.66 1.32 1 2 C1.99 1.67 2.98 1.34 4 1 C4.33 2.98 4.66 4.96 5 7 C2.03 7.66 -0.94 8.32 -4 9 C-4 8.34 -4 7.68 -4 7 C-3.34 7 -2.68 7 -2 7 C-1.67 5.02 -1.34 3.04 -1 1 C-0.67 0.67 -0.34 0.34 0 0 Z " fill="#FC4901" transform="translate(78,73)"/>
<path d="M0 0 C0.66 0.33 1.32 0.66 2 1 C0.763 2.341 -0.475 3.681 -1.75 5.062 C-6.338 10.076 -6.338 10.076 -10 17 C-10.99 17.99 -11.98 18.98 -13 20 C-11.554 11.325 -9.623 9.72 -3 4 C-2.01 2.68 -1.02 1.36 0 0 Z " fill="#4C4704" transform="translate(44,50)"/>
<path d="M0 0 C0.33 0.66 0.66 1.32 1 2 C-5.625 9.75 -5.625 9.75 -9 12 C-10.98 12 -12.96 12 -15 12 C-15 11.34 -15 10.68 -15 10 C-12.69 9.01 -10.38 8.02 -8 7 C-3.202 3.313 -3.202 3.313 0 0 Z " fill="#00001F" transform="translate(120,97)"/>
<path d="M0 0 C0.66 0 1.32 0 2 0 C1.67 5.61 1.34 11.22 1 17 C0.34 17 -0.32 17 -1 17 C-1.66 12.71 -2.32 8.42 -3 4 C-2.34 3.67 -1.68 3.34 -1 3 C-0.67 2.01 -0.34 1.02 0 0 Z " fill="#F8A506" transform="translate(44,91)"/>
<path d="M0 0 C1 3 1 3 -1.938 9.188 C-3.453 12.065 -3.453 12.065 -5 15 C-5.66 15 -6.32 15 -7 15 C-7 6.82 -5.5 5.598 0 0 Z " fill="#040434" transform="translate(30,24)"/>
<path d="M0 0 C0.99 1.65 1.98 3.3 3 5 C2.01 4.67 1.02 4.34 0 4 C-2.516 3.856 -5.032 3.711 -7.625 3.562 C-10.059 3.377 -12.492 3.191 -15 3 C-15.33 2.34 -15.66 1.68 -16 1 C-8 0 -8 0 0 0 Z " fill="#E1D50E" transform="translate(58,110)"/>
<path d="M0 0 C2.282 4.565 -1.695 12.332 -3 17 C-3.33 17 -3.66 17 -4 17 C-4.33 13.04 -4.66 9.08 -5 5 C-4.34 5 -3.68 5 -3 5 C-3 3.68 -3 2.36 -3 1 C-2.01 0.67 -1.02 0.34 0 0 Z " fill="#FB8701" transform="translate(67,95)"/>
<path d="M0 0 C0.99 0.99 1.98 1.98 3 3 C2.67 3.99 2.34 4.98 2 6 C2.33 7.98 2.66 9.96 3 12 C1.68 12.33 0.36 12.66 -1 13 C-2.32 10.03 -3.64 7.06 -5 4 C-4.34 4 -3.68 4 -3 4 C-3 4.66 -3 5.32 -3 6 C-2.34 6 -1.68 6 -1 6 C-0.67 4.02 -0.34 2.04 0 0 Z " fill="#000072" transform="translate(104,27)"/>
<path d="M0 0 C0.66 0.33 1.32 0.66 2 1 C2.739 4.653 3.408 8.321 4 12 C3.34 12 2.68 12 2 12 C2 9.69 2 7.38 2 5 C1.34 5 0.68 5 0 5 C-0.33 6.32 -0.66 7.64 -1 9 C-1.99 9.495 -1.99 9.495 -3 10 C-3.66 11.32 -4.32 12.64 -5 14 C-5.33 12.35 -5.66 10.7 -6 9 C-5.34 9 -4.68 9 -4 9 C-3.67 7.68 -3.34 6.36 -3 5 C-2.67 5.33 -2.34 5.66 -2 6 C-1.34 4.02 -0.68 2.04 0 0 Z " fill="#FA7F03" transform="translate(38,74)"/>
<path d="M0 0 C0.33 0 0.66 0 1 0 C1.33 5.94 1.66 11.88 2 18 C1.01 18 0.02 18 -1 18 C-1.125 2.25 -1.125 2.25 0 0 Z " fill="#FA8C02" transform="translate(45,63)"/>
<path d="M0 0 C0.99 0 1.98 0 3 0 C1.708 5.169 -0.946 8.674 -4 13 C-4.33 13 -4.66 13 -5 13 C-5 7 -5 7 0 0 Z " fill="#8888E1" transform="translate(12,57)"/>
<path d="M0 0 C1 4 1 4 0 6 C0 7.898 0 9.795 0 11.75 C0 18 0 18 -1 24 C-1.33 24 -1.66 24 -2 24 C-2 22.35 -2 20.7 -2 19 C-2.66 18.67 -3.32 18.34 -4 18 C-1.125 2.25 -1.125 2.25 0 0 Z " fill="#010153" transform="translate(17,32)"/>
<path d="M0 0 C0.99 0.495 0.99 0.495 2 1 C2 1.66 2 2.32 2 3 C5.896 4.474 5.896 4.474 14 4 C14 6.31 14 8.62 14 11 C13.67 11 13.34 11 13 11 C13 9.35 13 7.7 13 6 C11.02 6.33 9.04 6.66 7 7 C7 7.66 7 8.32 7 9 C6.34 9 5.68 9 5 9 C1 4 1 4 0 0 Z " fill="#E2CE0C" transform="translate(65,50)"/>
<path d="M0 0 C2 2 2 2 3 5 C3.66 4.67 4.32 4.34 5 4 C5 4.99 5 5.98 5 7 C1.7 7.33 -1.6 7.66 -5 8 C-5 7.34 -5 6.68 -5 6 C-4.34 6 -3.68 6 -3 6 C-2.67 4.35 -2.34 2.7 -2 1 C-1.34 0.67 -0.68 0.34 0 0 Z " fill="#FC6602" transform="translate(88,74)"/>
<path d="M0 0 C2.511 5.022 2.603 9.442 3 15 C2.67 14.01 2.34 13.02 2 12 C1.01 12.33 0.02 12.66 -1 13 C-1.042 9 -1.041 5 -1 1 C-0.67 0.67 -0.34 0.34 0 0 Z " fill="#FA9302" transform="translate(52,53)"/>
<path d="M0 0 C0.66 0 1.32 0 2 0 C2 0.66 2 1.32 2 2 C3.65 2 5.3 2 7 2 C6.01 5.3 5.02 8.6 4 12 C3.34 11.67 2.68 11.34 2 11 C1.67 8.36 1.34 5.72 1 3 C0.67 2.01 0.34 1.02 0 0 Z " fill="#FC6F01" transform="translate(68,92)"/>
<path d="M0 0 C0.99 0.99 1.98 1.98 3 3 C2.01 3.495 2.01 3.495 1 4 C-0.067 7.983 -1.07 11.983 -2 16 C-2.33 16 -2.66 16 -3 16 C-3 7 -3 7 0 0 Z " fill="#04039D" transform="translate(19,31)"/>
<path d="M0 0 C0.33 0 0.66 0 1 0 C1.129 3.664 1.121 7.335 1 11 C0.01 11.99 -0.98 12.98 -2 14 C-3 5 -3 5 0 0 Z " fill="#ECB307" transform="translate(39,64)"/>
<path d="M0 0 C1.313 5.252 0.683 9.659 0 15 C-0.66 15.66 -1.32 16.32 -2 17 C-2.66 16.01 -3.32 15.02 -4 14 C-3 10 -3 10 -2 9 C-1.34 6.03 -0.68 3.06 0 0 Z " fill="#F8AB07" transform="translate(60,92)"/>
<path d="M0 0 C0.33 0 0.66 0 1 0 C1 3.3 1 6.6 1 10 C0.34 10 -0.32 10 -1 10 C-1 11.98 -1 13.96 -1 16 C-1.66 16 -2.32 16 -3 16 C-1.125 1.125 -1.125 1.125 0 0 Z " fill="#FD7900" transform="translate(63,62)"/>
<path d="M0 0 C2 4 2 4 2 14 C1.34 15.65 0.68 17.3 0 19 C-0.33 19 -0.66 19 -1 19 C-0.67 12.73 -0.34 6.46 0 0 Z " fill="#000017" transform="translate(126,69)"/>
<path d="M0 0 C4.996 2.498 7.573 5.633 11 10 C10.67 10.99 10.34 11.98 10 13 C5 8 5 8 0 0 Z " fill="#000037" transform="translate(98,18)"/>
<path d="M0 0 C0.33 0 0.66 0 1 0 C1 2.97 1 5.94 1 9 C1.99 9.33 2.98 9.66 4 10 C4.66 11.65 5.32 13.3 6 15 C4.35 14.67 2.7 14.34 1 14 C-0.537 9.389 -0.057 4.823 0 0 Z " fill="#BBAB11" transform="translate(31,95)"/>
<path d="M0 0 C1 4 1 4 -1 12 C-1.66 12 -2.32 12 -3 12 C-3 8.37 -3 4.74 -3 1 C-2.34 1.66 -1.68 2.32 -1 3 C-0.67 2.01 -0.34 1.02 0 0 Z " fill="#F5B406" transform="translate(88,100)"/>
<path d="M0 0 C1.65 0 3.3 0 5 0 C5 0.99 5 1.98 5 3 C3.68 3 2.36 3 1 3 C-0.32 4.32 -1.64 5.64 -3 7 C-4.32 7 -5.64 7 -7 7 C-7 6.34 -7 5.68 -7 5 C-5.35 4.34 -3.7 3.68 -2 3 C-1.34 2.01 -0.68 1.02 0 0 Z " fill="#726B07" transform="translate(61,42)"/>
<path d="M0 0 C0.33 1.32 0.66 2.64 1 4 C-0.98 6.97 -0.98 6.97 -3 10 C-3.99 10 -4.98 10 -6 10 C-4 5 -4 5 0 0 Z " fill="#03036C" transform="translate(24,22)"/>
<path d="M0 0 C0 2.97 0 5.94 0 9 C-1.32 8.67 -2.64 8.34 -4 8 C-4 6.02 -4 4.04 -4 2 C-1 0 -1 0 0 0 Z " fill="#F5BB08" transform="translate(96,92)"/>
<path d="M0 0 C0.66 0 1.32 0 2 0 C1.67 1.98 1.34 3.96 1 6 C-0.32 6 -1.64 6 -3 6 C-3 7.65 -3 9.3 -3 11 C-3.99 11 -4.98 11 -6 11 C-5 7 -5 7 -1 3 C-0.67 2.01 -0.34 1.02 0 0 Z " fill="#FD3101" transform="translate(38,79)"/>
<path d="M0 0 C0.66 0 1.32 0 2 0 C2 3.63 2 7.26 2 11 C0.68 10.67 -0.64 10.34 -2 10 C-1.34 6.7 -0.68 3.4 0 0 Z " fill="#F7A103" transform="translate(88,65)"/>
<path d="M0 0 C5 2 5 2 9 7 C8.67 7.99 8.34 8.98 8 10 C6.35 8.35 4.7 6.7 3 5 C2.01 4.34 1.02 3.68 0 3 C0 2.01 0 1.02 0 0 Z " fill="#00006C" transform="translate(92,14)"/>
<path d="M0 0 C1 2 1 2 -1 10 C-2.65 10 -4.3 10 -6 10 C-6 8.02 -6 6.04 -6 4 C-5.01 5.485 -5.01 5.485 -4 7 C-2.68 4.69 -1.36 2.38 0 0 Z " fill="#2424CC" transform="translate(12,62)"/>
<path d="M0 0 C1.65 0.33 3.3 0.66 5 1 C4.67 2.32 4.34 3.64 4 5 C2.68 5 1.36 5 0 5 C-1.485 5.99 -1.485 5.99 -3 7 C-1 1 -1 1 0 0 Z " fill="#AB9E0A" transform="translate(62,44)"/>
<path d="M0 0 C-7 3 -7 3 -13 2 C-13 1.34 -13 0.68 -13 0 C-3.375 -1.125 -3.375 -1.125 0 0 Z " fill="#CEC30D" transform="translate(72,115)"/>
<path d="M0 0 C0.99 1.485 0.99 1.485 2 3 C3.65 5.31 5.3 7.62 7 10 C2 9 2 9 0 7 C0 4.69 0 2.38 0 0 Z " fill="#373505" transform="translate(31,106)"/>
<path d="M0 0 C0.33 0.66 0.66 1.32 1 2 C-0.32 3.32 -1.64 4.64 -3 6 C-3.99 7.65 -4.98 9.3 -6 11 C-6.99 11.495 -6.99 11.495 -8 12 C-6 6 -6 6 -2 1 C-1.34 0.67 -0.68 0.34 0 0 Z " fill="#878009" transform="translate(96,103)"/>
<path d="M0 0 C0.66 0 1.32 0 2 0 C2.33 0.99 2.66 1.98 3 3 C4.65 2.67 6.3 2.34 8 2 C7.67 2.99 7.34 3.98 7 5 C6.01 5 5.02 5 4 5 C4 6.32 4 7.64 4 9 C3.34 9 2.68 9 2 9 C1.34 6.03 0.68 3.06 0 0 Z " fill="#FC3801" transform="translate(60,91)"/>
<path d="M0 0 C0.66 0 1.32 0 2 0 C5 4 5 4 7 9 C6.67 10.32 6.34 11.64 6 13 C6 12.01 6 11.02 6 10 C5.34 10 4.68 10 4 10 C2.68 6.7 1.36 3.4 0 0 Z " fill="#0505A5" transform="translate(112,54)"/>
<path d="M0 0 C0.66 0.33 1.32 0.66 2 1 C1.01 3.31 0.02 5.62 -1 8 C-2.32 7.34 -3.64 6.68 -5 6 C-3.35 4.02 -1.7 2.04 0 0 Z " fill="#0707C1" transform="translate(12,52)"/>
<path d="M0 0 C0 0.99 0 1.98 0 3 C-2.31 3.33 -4.62 3.66 -7 4 C-7.33 4.66 -7.66 5.32 -8 6 C-8 4.35 -8 2.7 -8 1 C-5.36 0.67 -2.72 0.34 0 0 Z " fill="#E0CF0D" transform="translate(61,51)"/>
<path d="M0 0 C0.33 0 0.66 0 1 0 C1 7 1 7 -1 10 C-2.32 9.34 -3.64 8.68 -5 8 C-4.67 7.01 -4.34 6.02 -4 5 C-3.01 5 -2.02 5 -1 5 C-0.67 3.35 -0.34 1.7 0 0 Z " fill="#010123" transform="translate(102,102)"/>
<path d="M0 0 C0.66 0.33 1.32 0.66 2 1 C2 3.97 2 6.94 2 10 C1.34 9.34 0.68 8.68 0 8 C-0.99 8.495 -0.99 8.495 -2 9 C-1 3 -1 3 0 0 Z " fill="#F7C70C" transform="translate(68,94)"/>
<path d="M0 0 C2.31 0 4.62 0 7 0 C6.67 1.65 6.34 3.3 6 5 C4.68 5 3.36 5 2 5 C1.34 3.35 0.68 1.7 0 0 Z " fill="#4E4A04" transform="translate(69,47)"/>
<path d="M0 0 C1.98 0 3.96 0 6 0 C11 5 11 5 12 7 C8 5 4 3 0 1 C0 0.67 0 0.34 0 0 Z " fill="#00003B" transform="translate(83,19)"/>
<path d="M0 0 C0.33 0 0.66 0 1 0 C1 2.97 1 5.94 1 9 C-0.32 8.34 -1.64 7.68 -3 7 C-3.33 5.68 -3.66 4.36 -4 3 C-2.68 3 -1.36 3 0 3 C0 2.01 0 1.02 0 0 Z " fill="#040323" transform="translate(30,103)"/>
<path d="M0 0 C2.97 0.495 2.97 0.495 6 1 C6 1.99 6 2.98 6 4 C4.35 4 2.7 4 1 4 C0.01 4.495 0.01 4.495 -1 5 C-0.67 3.35 -0.34 1.7 0 0 Z " fill="#FC4200" transform="translate(68,75)"/>
<path d="M0 0 C0.66 0 1.32 0 2 0 C2.99 0.99 3.98 1.98 5 3 C5 3.99 5 4.98 5 6 C1 5 1 5 -1 4 C-0.67 2.68 -0.34 1.36 0 0 Z " fill="#FD5600" transform="translate(51,73)"/>
<path d="M0 0 C0.66 0 1.32 0 2 0 C0 4 0 4 -5 7 C-5.99 6.67 -6.98 6.34 -8 6 C-6.02 4.68 -4.04 3.36 -2 2 C-1.34 1.34 -0.68 0.68 0 0 Z " fill="#00007D" transform="translate(114,98)"/>
<path d="M0 0 C0.33 0.66 0.66 1.32 1 2 C-0.98 4.97 -0.98 4.97 -3 8 C-3.66 7.67 -4.32 7.34 -5 7 C-5 6.34 -5 5.68 -5 5 C-4.34 5 -3.68 5 -3 5 C-3 3.68 -3 2.36 -3 1 C-2.01 0.67 -1.02 0.34 0 0 Z " fill="#FC6800" transform="translate(67,95)"/>
<path d="M0 0 C0.33 0.66 0.66 1.32 1 2 C-1 7 -1 7 -4 10 C-3 4 -3 4 -2 1 C-1.34 0.67 -0.68 0.34 0 0 Z " fill="#393505" transform="translate(35,60)"/>
<path d="M0 0 C0.66 0.33 1.32 0.66 2 1 C1.01 2.32 0.02 3.64 -1 5 C-2.98 5 -4.96 5 -7 5 C-7 4.34 -7 3.68 -7 3 C-4.69 2.01 -2.38 1.02 0 0 Z " fill="#000030" transform="translate(112,104)"/>
<path d="M0 0 C0.99 0 1.98 0 3 0 C4.32 2.31 5.64 4.62 7 7 C2 5 2 5 0 3 C0 2.01 0 1.02 0 0 Z " fill="#030388" transform="translate(107,47)"/>
<path d="M0 0 C2.31 0.33 4.62 0.66 7 1 C6.67 1.99 6.34 2.98 6 4 C6 3.34 6 2.68 6 2 C4.35 2 2.7 2 1 2 C0.67 2.99 0.34 3.98 0 5 C-0.33 3.68 -0.66 2.36 -1 1 C-0.67 0.67 -0.34 0.34 0 0 Z " fill="#413D03" transform="translate(77,42)"/>
<path d="M0 0 C0.99 0 1.98 0 3 0 C1 4 1 4 -2 6 C-2.66 5.34 -3.32 4.68 -4 4 C-2.68 2.68 -1.36 1.36 0 0 Z " fill="#4142A2" transform="translate(30,20)"/>
<path d="M0 0 C0.99 0 1.98 0 3 0 C3 2.64 3 5.28 3 8 C2.34 8 1.68 8 1 8 C0.67 5.36 0.34 2.72 0 0 Z " fill="#F99E02" transform="translate(47,99)"/>
<path d="M0 0 C-0.33 2.64 -0.66 5.28 -1 8 C-1.66 8 -2.32 8 -3 8 C-3 5.69 -3 3.38 -3 1 C-1 0 -1 0 0 0 Z " fill="#F7C40D" transform="translate(77,72)"/>
<path d="M0 0 C1.65 0 3.3 0 5 0 C5.33 1.32 5.66 2.64 6 4 C3.03 3.505 3.03 3.505 0 3 C0 2.01 0 1.02 0 0 Z " fill="#FC6A00" transform="translate(68,72)"/>
<path d="M0 0 C6 3 6 3 8 6 C3 5 3 5 0 2 C0 1.34 0 0.68 0 0 Z " fill="#000049" transform="translate(112,50)"/>
<path d="M0 0 C1.65 0 3.3 0 5 0 C4.01 0.495 4.01 0.495 3 1 C3 2.98 3 4.96 3 7 C2.34 6.67 1.68 6.34 1 6 C0.67 4.02 0.34 2.04 0 0 Z " fill="#FA7F02" transform="translate(32,96)"/>
<path d="M0 0 C1.98 0.66 3.96 1.32 6 2 C6.33 3.98 6.66 5.96 7 8 C4.69 6.02 2.38 4.04 0 2 C0 1.34 0 0.68 0 0 Z " fill="#000068" transform="translate(114,54)"/>
<path d="M0 0 C0.33 0.66 0.66 1.32 1 2 C0.34 2 -0.32 2 -1 2 C-1 2.66 -1 3.32 -1 4 C-2.98 4.99 -2.98 4.99 -5 6 C-5 4.68 -5 3.36 -5 2 C-3.35 1.34 -1.7 0.68 0 0 Z " fill="#010090" transform="translate(41,12)"/>
<path d="M0 0 C-0.66 1.32 -1.32 2.64 -2 4 C-2.99 4 -3.98 4 -5 4 C-5.33 2.68 -5.66 1.36 -6 0 C-3 -1 -3 -1 0 0 Z " fill="#FC5301" transform="translate(83,94)"/>
<path d="M0 0 C1.65 1.65 3.3 3.3 5 5 C4.01 6.485 4.01 6.485 3 8 C2.01 7.67 1.02 7.34 0 7 C0 4.69 0 2.38 0 0 Z " fill="#0A0AB1" transform="translate(106,47)"/>
<path d="M0 0 C0.33 0.99 0.66 1.98 1 3 C-1 6 -1 6 -5 7 C-3 3 -3 3 0 0 Z " fill="#0F0F59" transform="translate(30,24)"/>
<path d="M0 0 C0.99 0.33 1.98 0.66 3 1 C-0.465 3.97 -0.465 3.97 -4 7 C-3.34 5.02 -2.68 3.04 -2 1 C-1.34 0.67 -0.68 0.34 0 0 Z " fill="#00001F" transform="translate(33,23)"/>
</svg>
