<?xml version="1.0" encoding="UTF-8"?>
<!-- Generator: visioncortex VTracer 0.6.4 -->
<svg version="1.1" xmlns="http://www.w3.org/2000/svg" width="128" height="128">
<path d="M0 0 C2.475 0.495 2.475 0.495 5 1 C5 1.99 5 2.98 5 4 C5.99 4.33 6.98 4.66 8 5 C8 6.98 8 8.96 8 11 C8.66 11 9.32 11 10 11 C10 8.69 10 6.38 10 4 C10.99 4 11.98 4 13 4 C13 6.97 13 9.94 13 13 C9 14 9 14 5 13 C4.67 10.69 4.34 8.38 4 6 C3.34 6 2.68 6 2 6 C2 8.31 2 10.62 2 13 C1.01 13 0.02 13 -1 13 C-1 10.69 -1 8.38 -1 6 C-1.66 6 -2.32 6 -3 6 C-3 8.31 -3 10.62 -3 13 C-7 14 -7 14 -11 13 C-11.33 12.34 -11.66 11.68 -12 11 C-12.33 11.66 -12.66 12.32 -13 13 C-15.31 13.33 -17.62 13.66 -20 14 C-20.66 13.34 -21.32 12.68 -22 12 C-22 9.36 -22 6.72 -22 4 C-21.01 4 -20.02 4 -19 4 C-19 6.31 -19 8.62 -19 11 C-16.492 8.861 -16.492 8.861 -16 4 C-14.35 4 -12.7 4 -11 4 C-11 3.01 -11 2.02 -11 1 C-10.01 1.33 -9.02 1.66 -8 2 C-7 7 -7 7 -8 11 C-7.34 11 -6.68 11 -6 11 C-6 8.69 -6 6.38 -6 4 C-4.68 4 -3.36 4 -2 4 C-1.34 2.68 -0.68 1.36 0 0 Z " fill="#919191" transform="translate(64,56)"/>
<path d="M0 0 C5 1 5 1 7 3 C7 3.99 7 4.98 7 6 C6.01 6 5.02 6 4 6 C3.01 5.01 2.02 4.02 1 3 C1.052 5.62 1.052 5.62 1.105 8.293 C1.133 10.568 1.16 12.843 1.188 15.188 C1.222 17.45 1.257 19.712 1.293 22.043 C1 28 1 28 -2 33 C-5 35 -5 35 -12 34 C-15 30 -15 30 -15 26 C-10.71 26 -6.42 26 -2 26 C-2.023 24.291 -2.046 22.581 -2.07 20.82 C-2.088 18.611 -2.106 16.401 -2.125 14.125 C-2.148 11.921 -2.171 9.716 -2.195 7.445 C-2 2 -2 2 0 0 Z M-11 29 C-11 29.66 -11 30.32 -11 31 C-8.03 31.495 -8.03 31.495 -5 32 C-4.34 31.01 -3.68 30.02 -3 29 C-5.64 29 -8.28 29 -11 29 Z " fill="#BCBCBC" transform="translate(86,46)"/>
<path d="M0 0 C1.65 0 3.3 0 5 0 C5.99 0.99 6.98 1.98 8 3 C8.33 2.01 8.66 1.02 9 0 C10.65 0 12.3 0 14 0 C16 2 16 2 16 9 C12 10 12 10 6 9 C4.35 9.33 2.7 9.66 1 10 C0.01 9.34 -0.98 8.68 -2 8 C-2 2 -2 2 0 0 Z M1 6 C5 7 5 7 5 7 Z " fill="#969696" transform="translate(25,60)"/>
<path d="M0 0 C2.31 0 4.62 0 7 0 C7.99 0.99 8.98 1.98 10 3 C9.67 4.32 9.34 5.64 9 7 C9.33 8.65 9.66 10.3 10 12 C7 14 7 14 1 14 C0.34 13.34 -0.32 12.68 -1 12 C-1 2 -1 2 0 0 Z M3 3 C3 3.66 3 4.32 3 5 C3.99 5 4.98 5 6 5 C6 4.34 6 3.68 6 3 C5.01 3 4.02 3 3 3 Z M3 8 C3 8.99 3 9.98 3 11 C4.32 10.67 5.64 10.34 7 10 C6.67 9.34 6.34 8.68 6 8 C5.01 8 4.02 8 3 8 Z " fill="#787878" transform="translate(12,56)"/>
<path d="M0 0 C2.31 0 4.62 0 7 0 C9 2 9 2 9 8 C7.35 8.66 5.7 9.32 4 10 C3.01 11.485 3.01 11.485 2 13 C1.34 13 0.68 13 0 13 C0 8.71 0 4.42 0 0 Z M4 2 C3.67 3.65 3.34 5.3 3 7 C3.99 7 4.98 7 6 7 C5.67 5.35 5.34 3.7 5 2 C4.67 2 4.34 2 4 2 Z " fill="#C0C0C0" transform="translate(108,60)"/>
<path d="M0 0 C4.29 0 8.58 0 13 0 C13 0.99 13 1.98 13 3 C9.7 2.67 6.4 2.34 3 2 C3.99 2.99 4.98 3.98 6 5 C7.98 4.67 9.96 4.34 12 4 C12 5.32 12 6.64 12 8 C9.69 8.33 7.38 8.66 5 9 C3.35 7.35 1.7 5.7 0 4 C0 2.68 0 1.36 0 0 Z " fill="#B6B6B6" transform="translate(71,72)"/>
<path d="M0 0 C0.66 0.66 1.32 1.32 2 2 C1.67 4.31 1.34 6.62 1 9 C-0.65 9.33 -2.3 9.66 -4 10 C-5.32 8.68 -6.64 7.36 -8 6 C-7.67 4.35 -7.34 2.7 -7 1 C-5 0 -5 0 0 0 Z M-3 2 C-3.33 3.65 -3.66 5.3 -4 7 C-3.01 6.67 -2.02 6.34 -1 6 C-1.33 4.68 -1.66 3.36 -2 2 C-2.33 2 -2.66 2 -3 2 Z " fill="#999999" transform="translate(95,60)"/>
<path d="M0 0 C1.65 0 3.3 0 5 0 C7 2 7 2 7 9 C3 10 3 10 -1 9 C-1 1 -1 1 0 0 Z " fill="#CCCCCC" transform="translate(34,60)"/>
<path d="M0 0 C0.99 0 1.98 0 3 0 C3 2.31 3 4.62 3 7 C5.508 4.861 5.508 4.861 6 0 C6.99 0.33 7.98 0.66 9 1 C9 3.64 9 6.28 9 9 C6.69 9.33 4.38 9.66 2 10 C1.34 9.34 0.68 8.68 0 8 C0 5.36 0 2.72 0 0 Z " fill="#B6B6B6" transform="translate(98,60)"/>
<path d="M0 0 C1.65 0 3.3 0 5 0 C3.68 0.33 2.36 0.66 1 1 C1 2.32 1 3.64 1 5 C5.202 4.426 5.202 4.426 7 1 C7.66 1.33 8.32 1.66 9 2 C8.67 3.32 8.34 4.64 8 6 C8.33 7.65 8.66 9.3 9 11 C7.68 11 6.36 11 5 11 C5 10.01 5 9.02 5 8 C4.01 7.67 3.02 7.34 2 7 C1.67 8.32 1.34 9.64 1 11 C0.67 11 0.34 11 0 11 C0 7.37 0 3.74 0 0 Z " fill="#CFCFCF" transform="translate(13,57)"/>
<path d="M0 0 C0.99 0 1.98 0 3 0 C3 2.31 3 4.62 3 7 C5.508 4.861 5.508 4.861 6 0 C6.66 0 7.32 0 8 0 C8 2.97 8 5.94 8 9 C6.02 9.33 4.04 9.66 2 10 C1.34 9.34 0.68 8.68 0 8 C0 5.36 0 2.72 0 0 Z " fill="#A3A3A3" transform="translate(42,60)"/>
<path d="M0 0 C1.65 0.33 3.3 0.66 5 1 C4.34 2.65 3.68 4.3 3 6 C2.67 8.31 2.34 10.62 2 13 C1.01 13 0.02 13 -1 13 C-2 4 -2 4 0 0 Z " fill="#A9A9A9" transform="translate(64,56)"/>
<path d="M0 0 C0.66 0 1.32 0 2 0 C3 2 3 2 3 12 C1.68 12.33 0.36 12.66 -1 13 C-1.042 9 -1.041 5 -1 1 C-0.67 0.67 -0.34 0.34 0 0 Z " fill="#8B8B8B" transform="translate(79,56)"/>
<path d="M0 0 C0.33 0 0.66 0 1 0 C1 8 1 8 -2 13 C-2.33 11.68 -2.66 10.36 -3 9 C-7.455 9.495 -7.455 9.495 -12 10 C-12 9.34 -12 8.68 -12 8 C-8.7 8 -5.4 8 -2 8 C-1.34 5.36 -0.68 2.72 0 0 Z " fill="#6B6B6B" transform="translate(86,66)"/>
<path d="M0 0 C0.99 0 1.98 0 3 0 C3 2.97 3 5.94 3 9 C2.01 9.495 2.01 9.495 1 10 C0.01 9.01 -0.98 8.02 -2 7 C-1.34 7 -0.68 7 0 7 C0 4.69 0 2.38 0 0 Z " fill="#A5A5A5" transform="translate(74,60)"/>
<path d="M0 0 C5 1 5 1 7 3 C7 3.99 7 4.98 7 6 C6.01 6 5.02 6 4 6 C2.333 4.333 0.667 2.667 -1 1 C-0.67 0.67 -0.34 0.34 0 0 Z " fill="#969696" transform="translate(86,46)"/>
<path d="M0 0 C0.33 0 0.66 0 1 0 C1 1.98 1 3.96 1 6 C-0.65 6.66 -2.3 7.32 -4 8 C-4.66 8.66 -5.32 9.32 -6 10 C-5.67 8.35 -5.34 6.7 -5 5 C-3.35 5 -1.7 5 0 5 C0 3.35 0 1.7 0 0 Z " fill="#8F8F8F" transform="translate(116,62)"/>
<path d="M0 0 C0.33 0 0.66 0 1 0 C1 2.31 1 4.62 1 7 C0.01 7.495 0.01 7.495 -1 8 C-2.32 7.01 -3.64 6.02 -5 5 C-5 4.34 -5 3.68 -5 3 C-3.68 3 -2.36 3 -1 3 C-0.67 2.01 -0.34 1.02 0 0 Z " fill="#7E7E7E" transform="translate(40,62)"/>
<path d="M0 0 C1.65 0 3.3 0 5 0 C5.33 0.66 5.66 1.32 6 2 C5.67 2.66 5.34 3.32 5 4 C2.03 3.505 2.03 3.505 -1 3 C-0.67 2.01 -0.34 1.02 0 0 Z " fill="#949494" transform="translate(34,60)"/>
<path d="M0 0 C0.66 0 1.32 0 2 0 C2 2.97 2 5.94 2 9 C1.34 9 0.68 9 0 9 C-1 4 -1 4 0 0 Z " fill="#D5D5D5" transform="translate(48,60)"/>
<path d="M0 0 C1.65 0 3.3 0 5 0 C6 1 6 1 6 6 C5.01 5.01 4.02 4.02 3 3 C2.01 2.67 1.02 2.34 0 2 C0 1.34 0 0.68 0 0 Z " fill="#C4C4C4" transform="translate(90,60)"/>
<path d="M0 0 C0.99 0.33 1.98 0.66 3 1 C3 3.64 3 6.28 3 9 C2.67 9 2.34 9 2 9 C1.67 7.02 1.34 5.04 1 3 C0.34 3.66 -0.32 4.32 -1 5 C-0.67 3.35 -0.34 1.7 0 0 Z " fill="#575757" transform="translate(104,60)"/>
<path d="M0 0 C0.66 0 1.32 0 2 0 C2 0.99 2 1.98 2 3 C1.01 3 0.02 3 -1 3 C-0.67 2.01 -0.34 1.02 0 0 Z " fill="#8B8B8B" transform="translate(59,56)"/>
<path d="" fill="#0C0C0C" transform="translate(0,0)"/>
<path d="" fill="#0C0C0C" transform="translate(0,0)"/>
</svg>
