<?xml version="1.0" encoding="UTF-8"?>
<!-- Generator: visioncortex VTracer 0.6.4 -->
<svg version="1.1" xmlns="http://www.w3.org/2000/svg" width="128" height="128">
<path d="M0 0 C14.96 10.897 24.529 23.878 29 42 C29.299 46.451 29.435 50.914 29.438 55.375 C29.457 57.651 29.476 59.928 29.496 62.273 C28.226 79.499 19.972 92.028 8 104 C-9.543 118.154 -26.005 120.24 -48 119 C-66.987 114.288 -80.222 104.258 -91 88 C-100.195 71.654 -101.413 53.861 -97.375 35.688 C-88.604 14.682 -76.105 1.839 -55 -7 C-35.818 -11.796 -17.22 -9.84 0 0 Z " fill="#2E4050" transform="translate(99,9)"/>
<path d="M0 0 C5.938 5.5 5.938 5.5 10 10 C9.01 11.65 8.02 13.3 7 15 C5.35 13.35 3.7 11.7 2 10 C-6.876 14.438 -12.75 22.216 -17 31 C-17.66 31 -18.32 31 -19 31 C-24.174 20.742 -29.185 10.432 -34 0 C-37.781 1.89 -38.287 7.166 -39.562 10.938 C-42.947 20.894 -42.947 20.894 -44 23 C-44.66 23 -45.32 23 -46 23 C-46.66 22.01 -47.32 21.02 -48 20 C-48.66 20 -49.32 20 -50 20 C-50.338 21.542 -50.675 23.083 -51.023 24.672 C-51.692 27.681 -51.692 27.681 -52.375 30.75 C-52.816 32.745 -53.257 34.741 -53.711 36.797 C-55 42 -55 42 -57 46 C-57.66 46 -58.32 46 -59 46 C-59.99 43.03 -60.98 40.06 -62 37 C-66.914 31.295 -66.914 31.295 -73 27 C-73.33 28.65 -73.66 30.3 -74 32 C-75.973 37.676 -77.971 43.344 -80 49 C-81.65 48.01 -83.3 47.02 -85 46 C-85.33 48.31 -85.66 50.62 -86 53 C-86.33 53.99 -86.66 54.98 -87 56 C-89.475 56.99 -89.475 56.99 -92 58 C-95.578 43.688 -92.159 29.528 -85 17 C-63.628 -12.683 -30.948 -18.781 0 0 Z " fill="#DCEEEB" transform="translate(99,17)"/>
<path d="M0 0 C-0.533 16.181 -5.567 28.567 -17 40 C-19.97 40 -22.94 40 -26 40 C-26 39.01 -26 38.02 -26 37 C-28.64 37.33 -31.28 37.66 -34 38 C-34 37.34 -34 36.68 -34 36 C-35.32 36 -36.64 36 -38 36 C-38 35.34 -38 34.68 -38 34 C-39.32 34 -40.64 34 -42 34 C-42 34.66 -42 35.32 -42 36 C-43.32 36 -44.64 36 -46 36 C-46 36.66 -46 37.32 -46 38 C-47.32 38 -48.64 38 -50 38 C-50 39.65 -50 41.3 -50 43 C-51.65 43 -53.3 43 -55 43 C-55 41.68 -55 40.36 -55 39 C-57.64 39 -60.28 39 -63 39 C-64.32 38.67 -65.64 38.34 -67 38 C-67 38.66 -67 39.32 -67 40 C-68.65 40 -70.3 40 -72 40 C-72 40.99 -72 41.98 -72 43 C-75.96 43 -79.92 43 -84 43 C-84 42.34 -84 41.68 -84 41 C-85.32 41 -86.64 41 -88 41 C-88 41.99 -88 42.98 -88 44 C-97.322 42.835 -99.024 40.881 -105 34 C-105.66 32.35 -106.32 30.7 -107 29 C-103.947 28.175 -100.895 27.35 -97.75 26.5 C-86.64 23.471 -75.569 20.318 -64.5 17.145 C-4.541 0 -4.541 0 0 0 Z " fill="#DCF0ED" transform="translate(122,65)"/>
<path d="M0 0 C0.66 0 1.32 0 2 0 C3.794 3.898 3.794 3.898 5.625 7.875 C10.104 19.449 10.104 19.449 18 28 C18.66 26.35 19.32 24.7 20 23 C24.245 15.712 28.009 9.991 34 4 C37 5 37 5 41 11 C42.32 9.35 43.64 7.7 45 6 C46.32 4.68 47.64 3.36 49 2 C49.99 2.99 49.99 2.99 51 4 C49.54 9.84 45.795 13.422 42 18 C40.35 16.35 38.7 14.7 37 13 C33.57 12.648 33.57 12.648 30.652 16.312 C26.737 21.337 24.203 26.212 21.562 32 C20.265 34.815 20.265 34.815 18.941 37.688 C18.301 39.111 17.66 40.534 17 42 C9.095 34.095 4.68 23.72 2 13 C2 11.35 2 9.7 2 8 C1.34 8 0.68 8 0 8 C-0.33 10.97 -0.66 13.94 -1 17 C-1.99 19.31 -2.98 21.62 -4 24 C-6 23 -8 22 -10 21 C-10.33 23.97 -10.66 26.94 -11 30 C-12.93 39.168 -17.497 45.503 -23 53 C-28.998 47.002 -31.708 39.022 -34 31 C-34.99 33.97 -35.98 36.94 -37 40 C-37.99 42.97 -38.98 45.94 -40 49 C-41.65 49 -43.3 49 -45 49 C-47.084 51.942 -49.089 54.942 -51 58 C-51.66 58 -52.32 58 -53 58 C-54 53 -54 53 -52 48 C-50.35 47.34 -48.7 46.68 -47 46 C-46.67 45.34 -46.34 44.68 -46 44 C-44.68 44.33 -43.36 44.66 -42 45 C-41.67 43.35 -41.34 41.7 -41 40 C-39.031 34.655 -37.033 29.321 -35 24 C-31 26 -31 26 -27.75 35.375 C-25 44.347 -25 44.347 -25 49 C-24.34 49 -23.68 49 -23 49 C-22.01 46.03 -21.02 43.06 -20 40 C-18.763 37.649 -18.763 37.649 -17.5 35.25 C-14.651 29.268 -13.309 23.477 -12 17 C-10 18 -8 19 -6 20 C-5.34 17.03 -4.68 14.06 -4 11 C-2.709 7.318 -1.385 3.647 0 0 Z " fill="#F0F1F2" transform="translate(64,31)"/>
<path d="M0 0 C0.66 0 1.32 0 2 0 C2.66 2.31 3.32 4.62 4 7 C2.68 7 1.36 7 0 7 C-0.103 8.506 -0.206 10.011 -0.312 11.562 C-1 17 -1 17 -4 24 C-6 23 -8 22 -10 21 C-10.33 23.97 -10.66 26.94 -11 30 C-12.93 39.168 -17.497 45.503 -23 53 C-28.998 47.002 -31.708 39.022 -34 31 C-34.99 33.97 -35.98 36.94 -37 40 C-37.99 42.97 -38.98 45.94 -40 49 C-41.65 49 -43.3 49 -45 49 C-47.084 51.942 -49.089 54.942 -51 58 C-51.66 58 -52.32 58 -53 58 C-54 53 -54 53 -52 48 C-50.35 47.34 -48.7 46.68 -47 46 C-46.67 45.34 -46.34 44.68 -46 44 C-44.68 44.33 -43.36 44.66 -42 45 C-41.67 43.35 -41.34 41.7 -41 40 C-39.031 34.655 -37.033 29.321 -35 24 C-31 26 -31 26 -27.75 35.375 C-25 44.347 -25 44.347 -25 49 C-24.34 49 -23.68 49 -23 49 C-22.01 46.03 -21.02 43.06 -20 40 C-18.763 37.649 -18.763 37.649 -17.5 35.25 C-14.651 29.268 -13.309 23.477 -12 17 C-10 18 -8 19 -6 20 C-5.34 17.03 -4.68 14.06 -4 11 C-2.709 7.318 -1.385 3.647 0 0 Z " fill="#E9EBEC" transform="translate(64,31)"/>
<path d="M0 0 C5.61 0 11.22 0 17 0 C17 5.61 17 11.22 17 17 C11.39 17 5.78 17 0 17 C0 11.39 0 5.78 0 0 Z " fill="#FDFEFE" transform="translate(30,21)"/>
<path d="M0 0 C0.33 0 0.66 0 1 0 C1 5.28 1 10.56 1 16 C3.97 16 6.94 16 10 16 C8 25 8 25 6 27 C4.68 26.01 3.36 25.02 2 24 C1.67 26.31 1.34 28.62 1 31 C0.505 32.485 0.505 32.485 0 34 C-1.65 34.66 -3.3 35.32 -5 36 C-7.605 25.581 -6.173 15.107 -3 5 C-2.01 3.35 -1.02 1.7 0 0 Z " fill="#A9DED5" transform="translate(12,39)"/>
<path d="M0 0 C5.28 0 10.56 0 16 0 C16 5.28 16 10.56 16 16 C10.72 16 5.44 16 0 16 C0 10.72 0 5.44 0 0 Z " fill="#FEFEFE" transform="translate(100,74)"/>
<path d="M0 0 C0 5.28 0 10.56 0 16 C-4.95 16 -9.9 16 -15 16 C-15 11.05 -15 6.1 -15 1 C-10.105 -0.632 -5.117 -0.055 0 0 Z " fill="#FDFDFD" transform="translate(98,74)"/>
<path d="M0 0 C-0.378 8.78 -1.64 15.87 -5 24 C-5.33 24 -5.66 24 -6 24 C-6 19.05 -6 14.1 -6 9 C-11.28 9 -16.56 9 -22 9 C-22 14.28 -22 19.56 -22 25 C-22.66 25 -23.32 25 -24 25 C-24 19.72 -24 14.44 -24 9 C-26.97 9 -29.94 9 -33 9 C-28.426 6.713 -24.097 5.697 -19.125 4.5 C-0.494 0 -0.494 0 0 0 Z " fill="#B6DED8" transform="translate(122,65)"/>
<path d="M0 0 C5.28 0 10.56 0 16 0 C16 4.29 16 8.58 16 13 C13.03 12.67 10.06 12.34 7 12 C7 12.66 7 13.32 7 14 C5.35 14 3.7 14 2 14 C2 14.99 2 15.98 2 17 C1.34 17 0.68 17 0 17 C0 11.39 0 5.78 0 0 Z " fill="#F8FCFC" transform="translate(48,91)"/>
<path d="M0 0 C5.61 0 11.22 0 17 0 C17 2.64 17 5.28 17 8 C16.34 8 15.68 8 15 8 C15 8.66 15 9.32 15 10 C13.68 10 12.36 10 11 10 C11 10.66 11 11.32 11 12 C9.68 12 8.36 12 7 12 C7 13.65 7 15.3 7 17 C5.35 17 3.7 17 2 17 C2 15.68 2 14.36 2 13 C1.34 13 0.68 13 0 13 C0 8.71 0 4.42 0 0 Z " fill="#EEF8F7" transform="translate(65,91)"/>
<path d="M0 0 C5.28 0 10.56 0 16 0 C16 1.98 16 3.96 16 6 C15.01 5.67 14.02 5.34 13 5 C12.67 6.65 12.34 8.3 12 10 C11.34 11.98 10.68 13.96 10 16 C6.7 16 3.4 16 0 16 C0 10.72 0 5.44 0 0 Z " fill="#FDFDFD" transform="translate(13,39)"/>
<path d="M0 0 C5.28 0 10.56 0 16 0 C16 6 16 6 10.812 11.875 C5 17 5 17 0 17 C0 11.39 0 5.78 0 0 Z " fill="#F9FAFA" transform="translate(83,21)"/>
<path d="M0 0 C0 4.29 0 8.58 0 13 C-5.61 13 -11.22 13 -17 13 C-17 9.7 -17 6.4 -17 3 C-11.05 1.259 -6.233 0 0 0 Z " fill="#F9FBFB" transform="translate(82,77)"/>
<path d="M0 0 C11.5 -0.25 11.5 -0.25 16 2 C16 5.63 16 9.26 16 13 C11.05 13 6.1 13 1 13 C0 10 0 10 0 0 Z " fill="#FBFCFC" transform="translate(65,7)"/>
<path d="M0 0 C1.32 0 2.64 0 4 0 C4 5.61 4 11.22 4 17 C-1.28 17 -6.56 17 -12 17 C-9.281 10.203 -5.147 5.147 0 0 Z " fill="#FBFCFC" transform="translate(25,21)"/>
<path d="M0 0 C5.28 0 10.56 0 16 0 C16 4.29 16 8.58 16 13 C15.34 13 14.68 13 14 13 C14 12.34 14 11.68 14 11 C9.545 11.495 9.545 11.495 5 12 C5 11.34 5 10.68 5 10 C3.68 10 2.36 10 1 10 C0 8 0 8 0 0 Z " fill="#F4FAFA" transform="translate(83,91)"/>
<path d="M0 0 C4.29 0 8.58 0 13 0 C11.867 6.798 9.543 12.611 7 19 C6.34 19 5.68 19 5 19 C0 14 0 14 -0.312 6.688 C-0.209 4.481 -0.106 2.274 0 0 Z " fill="#F8FBFB" transform="translate(48,21)"/>
<path d="M0 0 C0 5.61 0 11.22 0 17 C-6.504 15.699 -8.631 12.87 -13 8 C-13.66 6.35 -14.32 4.7 -15 3 C-4.5 0 -4.5 0 0 0 Z " fill="#EFF6F5" transform="translate(30,91)"/>
<path d="M0 0 C4.29 0 8.58 0 13 0 C13 5.61 13 11.22 13 17 C11.02 17 9.04 17 7 17 C0 3.375 0 3.375 0 0 Z " fill="#FCFCFC" transform="translate(68,21)"/>
<path d="M0 0 C4.95 0 9.9 0 15 0 C12.779 5.553 9.735 9.366 6 14 C3.03 13.505 3.03 13.505 0 13 C0 8.71 0 4.42 0 0 Z " fill="#F7F9F9" transform="translate(100,91)"/>
<path d="M0 0 C0 3.63 0 7.26 0 11 C-5.61 11 -11.22 11 -17 11 C-16.67 9.68 -16.34 8.36 -16 7 C-4.1 0 -4.1 0 0 0 Z " fill="#F8FAFA" transform="translate(47,9)"/>
<path d="M0 0 C0 2.97 0 5.94 0 9 C-5.28 9 -10.56 9 -16 9 C-16 7.35 -16 5.7 -16 4 C-2.25 0 -2.25 0 0 0 Z " fill="#F8FAFA" transform="translate(64,81)"/>
<path d="M0 0 C6.11 1.222 10.604 3.944 16 7 C16 7.99 16 8.98 16 10 C10.72 10 5.44 10 0 10 C0 6.7 0 3.4 0 0 Z " fill="#F9FBFA" transform="translate(83,10)"/>
<path d="M0 0 C1.98 0 3.96 0 6 0 C6.125 12.625 6.125 12.625 5 16 C3.35 15.67 1.7 15.34 0 15 C0 10.05 0 5.1 0 0 Z " fill="#EEF2F2" transform="translate(6,56)"/>
<path d="M0 0 C0 7.26 0 14.52 0 22 C-1.98 21.67 -3.96 21.34 -6 21 C-6 20.67 -6 20.34 -6 20 C-4.35 20 -2.7 20 -1 20 C-1 15.05 -1 10.1 -1 5 C-6.61 5 -12.22 5 -18 5 C-13.539 0.539 -6.043 0 0 0 Z " fill="#AFDCD6" transform="translate(48,86)"/>
<path d="M0 0 C0 1.98 0 3.96 0 6 C-5.28 6 -10.56 6 -16 6 C-16 5.34 -16 4.68 -16 4 C-5.333 0 -5.333 0 0 0 Z " fill="#EFF5F5" transform="translate(116,67)"/>
<path d="M0 0 C2.97 0 5.94 0 9 0 C8.01 3.3 7.02 6.6 6 10 C4.35 9.01 2.7 8.02 1 7 C0.67 7.66 0.34 8.32 0 9 C0 6.03 0 3.06 0 0 Z " fill="#F8FAFA" transform="translate(13,56)"/>
<path d="M0 0 C4 1 4 1 9 7 C7.68 8.32 6.36 9.64 5 11 C1 6 1 6 0 0 Z " fill="#F4F7F7" transform="translate(100,21)"/>
<path d="M0 0 C0.33 0.99 0.66 1.98 1 3 C1.66 3 2.32 3 3 3 C2.34 4.65 1.68 6.3 1 8 C-0.023 11.66 -1.026 15.326 -2 19 C-2.66 18.34 -3.32 17.68 -4 17 C-4.66 17.33 -5.32 17.66 -6 18 C-4.213 11.872 -2.246 5.989 0 0 Z " fill="#E3E6E8" transform="translate(28,57)"/>
<path d="M0 0 C0.33 0 0.66 0 1 0 C1 4.62 1 9.24 1 14 C-0.65 14 -2.3 14 -4 14 C-2.25 3.375 -2.25 3.375 0 0 Z " fill="#F2F4F4" transform="translate(11,41)"/>
<path d="M0 0 C0.33 0 0.66 0 1 0 C0.25 9.5 0.25 9.5 -2 14 C-3.32 13.67 -4.64 13.34 -6 13 C-4 7 -4 7 0 0 Z " fill="#F1F2F3" transform="translate(51,58)"/>
<path d="M0 0 C3.282 4.922 2.114 10.245 2 16 C1.34 16 0.68 16 0 16 C0 12.04 0 8.08 0 4 C-0.99 4 -1.98 4 -3 4 C-3 7.3 -3 10.6 -3 14 C-3.33 14 -3.66 14 -4 14 C-4 10.04 -4 6.08 -4 2 C-2.68 2.33 -1.36 2.66 0 3 C0 2.01 0 1.02 0 0 Z " fill="#316E70" transform="translate(50,105)"/>
<path d="M0 0 C0.66 0 1.32 0 2 0 C2 0.66 2 1.32 2 2 C7.61 2 13.22 2 19 2 C19 2.33 19 2.66 19 3 C13.39 3 7.78 3 2 3 C2 8.61 2 14.22 2 20 C1.67 20 1.34 20 1 20 C1 14.39 1 8.78 1 3 C0.01 2.67 -0.98 2.34 -2 2 C-1.34 1.34 -0.68 0.68 0 0 Z " fill="#A7DCD5" transform="translate(28,18)"/>
<path d="M0 0 C0.99 0 1.98 0 3 0 C3 2.31 3 4.62 3 7 C1.35 7.33 -0.3 7.66 -2 8 C-1 1 -1 1 0 0 Z " fill="#E5EEED" transform="translate(119,65)"/>
<path d="M0 0 C1.32 0 2.64 0 4 0 C3 7 3 7 1 11 C0.67 11 0.34 11 0 11 C0 7.37 0 3.74 0 0 Z " fill="#E7F2F1" transform="translate(117,74)"/>
<path d="M0 0 C1.65 0 3.3 0 5 0 C4 6 4 6 3 8 C2.34 8 1.68 8 1 8 C0.67 5.36 0.34 2.72 0 0 Z " fill="#DDE8E7" transform="translate(39,55)"/>
<path d="M0 0 C0.33 0 0.66 0 1 0 C1.809 6.636 2.145 10.565 0 17 C-1.65 17.66 -3.3 18.32 -5 19 C-5 18.01 -5 17.02 -5 16 C-3.68 16 -2.36 16 -1 16 C-0.67 10.72 -0.34 5.44 0 0 Z " fill="#BDE1DC" transform="translate(12,56)"/>
<path d="M0 0 C0 0.99 0 1.98 0 3 C-3.96 3 -7.92 3 -12 3 C-7.79 0.193 -5.074 0 0 0 Z " fill="#F8FAFB" transform="translate(46,87)"/>
<path d="M0 0 C1.65 0 3.3 0 5 0 C5 2.64 5 5.28 5 8 C1 4 1 4 0 0 Z " fill="#F0F4F4" transform="translate(76,39)"/>
<path d="M0 0 C0.66 0 1.32 0 2 0 C2.66 2.31 3.32 4.62 4 7 C2.02 7 0.04 7 -2 7 C-1.34 4.69 -0.68 2.38 0 0 Z " fill="#E1E3E5" transform="translate(64,31)"/>
<path d="M0 0 C0.33 0 0.66 0 1 0 C1 4.62 1 9.24 1 14 C0.67 14 0.34 14 0 14 C-0.33 11.36 -0.66 8.72 -1 6 C-1.33 5.01 -1.66 4.02 -2 3 C-1.34 2.01 -0.68 1.02 0 0 Z " fill="#DBECEA" transform="translate(11,41)"/>
<path d="M0 0 C0.33 0 0.66 0 1 0 C0.67 2.31 0.34 4.62 0 7 C-2.475 6.01 -2.475 6.01 -5 5 C-4.01 4.67 -3.02 4.34 -2 4 C-1.34 2.68 -0.68 1.36 0 0 Z " fill="#F9F9F9" transform="translate(24,73)"/>
<path d="M0 0 C0.99 0.33 1.98 0.66 3 1 C3 2.32 3 3.64 3 5 C3.66 5 4.32 5 5 5 C4.67 6.32 4.34 7.64 4 9 C0 2 0 2 0 0 Z " fill="#DFE2E4" transform="translate(36,75)"/>
<path d="M0 0 C0.33 0.99 0.66 1.98 1 3 C1.66 3 2.32 3 3 3 C2.34 4.65 1.68 6.3 1 8 C0.01 7.67 -0.98 7.34 -2 7 C-1.34 4.69 -0.68 2.38 0 0 Z " fill="#CFD3D6" transform="translate(28,57)"/>
</svg>
