<?xml version="1.0" encoding="UTF-8"?>
<!-- Generator: visioncortex VTracer 0.6.4 -->
<svg version="1.1" xmlns="http://www.w3.org/2000/svg" width="128" height="128">
<path d="M0 0 C5.92 -0.856 5.92 -0.856 11.188 -2.562 C23.834 -5.69 34.566 -3.712 45.875 2.812 C55.853 10.523 62.502 19.511 65 32 C65.651 45.665 63.492 56.104 55 67 C45.435 76.565 36.894 80.821 23.438 81.312 C15.095 81.036 10.576 79.781 3 77 C0.03 77.99 -2.94 78.98 -6 80 C-18.111 83.028 -30.128 81.942 -41 76 C-52.895 67.917 -58.527 57.892 -62 44 C-62.954 30.799 -59.319 20.229 -51 10 C-36.061 -5.385 -19.466 -6.158 0 0 Z " fill="#F7D82C" transform="translate(62,25)"/>
<path d="M0 0 C0.495 1.485 0.495 1.485 1 3 C-0.856 4.568 -2.712 6.135 -4.625 7.75 C-15.064 17.984 -18.077 26.566 -18.316 40.668 C-18.379 44.173 -18.379 44.173 -18.443 47.748 C-18.483 50.203 -18.522 52.658 -18.562 55.188 C-18.627 58.887 -18.627 58.887 -18.693 62.662 C-18.8 68.775 -18.902 74.887 -19 81 C-31.999 81 -40.332 77.642 -50 69 C-58.512 57.651 -62.916 47.203 -62 33 C-58.806 19.586 -52.953 10.393 -42 2 C-27.261 -4.927 -15.433 -5.808 0 0 Z " fill="#3279F3" transform="translate(62,25)"/>
<path d="M0 0 C-1.98 0.99 -1.98 0.99 -4 2 C-4 1.34 -4 0.68 -4 0 C-6.97 -0.33 -9.94 -0.66 -13 -1 C-12.979 0.391 -12.958 1.782 -12.937 3.216 C-12.853 9.56 -12.801 15.905 -12.75 22.25 C-12.7 25.533 -12.7 25.533 -12.648 28.883 C-12.557 44.036 -13.568 55.608 -23 68 C-30.685 75.685 -35.698 79.865 -46 83 C-48.97 83 -51.94 83 -55 83 C-55.116 74.542 -55.187 66.084 -55.25 57.625 C-55.284 55.229 -55.317 52.832 -55.352 50.363 C-55.364 48.049 -55.377 45.736 -55.391 43.352 C-55.412 41.225 -55.433 39.099 -55.454 36.909 C-54.357 22.632 -46.428 14.164 -36 5 C-36 4.34 -36 3.68 -36 3 C-22.62 -1.282 -13.613 -3.403 0 0 Z " fill="#FA6345" transform="translate(98,23)"/>
<path d="M0 0 C2.475 0.495 2.475 0.495 5 1 C5.33 1.99 5.66 2.98 6 4 C5.01 4.66 4.02 5.32 3 6 C2.01 4.02 1.02 2.04 0 0 Z " fill="#2E5BAF" transform="translate(57,24)"/>
</svg>
