<?xml version="1.0" encoding="UTF-8"?>
<!-- Generator: visioncortex VTracer 0.6.4 -->
<svg version="1.1" xmlns="http://www.w3.org/2000/svg" width="128" height="128">
<path d="M0 0 C16.075 11.145 25.343 24.544 30.688 43.25 C32.131 65.984 29.108 82.775 14.25 100.562 C3.149 111.968 -10.506 119.501 -26.449 120.719 C-48.934 120.826 -65.076 116.281 -81.312 100.25 C-95.969 82.548 -98.619 65.655 -97.312 43.25 C-92.603 24.412 -82.1 9.406 -65.312 -0.75 C-43.585 -10.626 -21.434 -11.095 0 0 Z " fill="#0153CC" transform="translate(97.3125,7.75)"/>
<path d="M0 0 C5.076 3.948 7.599 5.998 10 12 C5.084 15.136 0.078 18.134 -5 21 C-9 19 -9 19 -14 15 C-19.858 12.657 -23.724 12.517 -30 13 C-39.4 18.587 -39.4 18.587 -44 28 C-44.745 38 -44.745 38 -40 46 C-30.765 53.294 -30.765 53.294 -19 53 C-13.544 50.514 -10.606 48.807 -7 44 C-0.947 46.421 4.4 49.677 10 53 C8.482 59.071 4.813 62.365 0 66.125 C-11.634 72.815 -23.064 74.721 -36.188 71.875 C-48.749 66.981 -56.157 60.331 -62.5 48.438 C-66.086 37.768 -66.382 29.227 -62.875 18.5 C-56.207 5.745 -48.872 -0.279 -36 -6 C-22.848 -8.63 -11.612 -6.532 0 0 Z " fill="#FAFBFD" transform="translate(91,31)"/>
</svg>
