<?xml version="1.0" encoding="UTF-8"?>
<!-- Generator: visioncortex VTracer 0.6.4 -->
<svg version="1.1" xmlns="http://www.w3.org/2000/svg" width="128" height="128">
<path d="M0 0 C1.65 0.99 3.3 1.98 5 3 C5 3.99 5 4.98 5 6 C5.66 6 6.32 6 7 6 C7 6.66 7 7.32 7 8 C7.66 8 8.32 8 9 8 C12 13 12 13 12 15 C12.66 15 13.32 15 14 15 C22.181 31.363 25.496 45.212 21.25 63.562 C17.093 75.456 11.779 85.026 2 93 C0.02 94.65 -1.96 96.3 -4 98 C-21.68 107.609 -38.296 110.113 -57.812 104.438 C-67.187 99.954 -74.128 94.747 -82 88 C-82 87.34 -82 86.68 -82 86 C-82.66 86 -83.32 86 -84 86 C-94.669 71.104 -97.781 56.121 -97 38 C-92.011 18.045 -82.185 5.048 -65 -6 C-41.74 -16.7 -21.268 -12.884 0 0 Z M-53 3 C-53.33 3.66 -53.66 4.32 -54 5 C-53.01 4.67 -52.02 4.34 -51 4 C-51.66 3.67 -52.32 3.34 -53 3 Z M-47 7 C-49.569 10.386 -49.569 10.386 -50 17 C-46.759 25.75 -46.759 25.75 -38 28 C-30.345 25.759 -30.345 25.759 -27 22 C-25.103 12.975 -25.103 12.975 -30 6 C-37.429 3.028 -39.482 3.778 -47 7 Z M-56 5 C-65.089 14.089 -67 18.877 -67 32 C-64.685 40.526 -64.685 40.526 -61 45 C-60.34 45 -59.68 45 -59 45 C-58.34 46.32 -57.68 47.64 -57 49 C-48.847 54.435 -42.606 55.528 -33 55 C-25.119 53.386 -20.59 50.779 -15 45 C-9.394 36.03 -8.657 32.278 -9 22 C-10.902 15.64 -10.902 15.64 -15 9 C-15.66 9 -16.32 9 -17 9 C-17 8.34 -17 7.68 -17 7 C-17.66 7.33 -18.32 7.66 -19 8 C-18.196 9.423 -17.391 10.846 -16.562 12.312 C-12.098 22.221 -12.553 27.66 -16 38 C-21.662 45.927 -24.697 48.342 -34 51 C-42.746 51 -47.764 48.824 -55 44 C-61.117 34.825 -61.616 29.006 -61 18 C-59.016 13.196 -56.863 9.295 -54 5 C-54.66 5 -55.32 5 -56 5 Z M0 16 C1 18 1 18 1 18 Z M3 22 C3.33 23.32 3.66 24.64 4 26 C4.33 25.34 4.66 24.68 5 24 C4.34 23.34 3.68 22.68 3 22 Z M-78 24 C-77 26 -77 26 -77 26 Z M4 26 C3.794 29.073 3.588 32.146 3.375 35.312 C2.546 43.86 0.807 49.738 -4 57 C-4.33 57.99 -4.66 58.98 -5 60 C-6.98 60.99 -6.98 60.99 -9 62 C-10.65 63.32 -12.3 64.64 -14 66 C-25.925 72.409 -36.914 73.692 -50.375 70.875 C-63.628 65.502 -69.652 58.696 -76 46 C-76.76 42.352 -77.447 38.686 -78 35 C-80.601 38.227 -80.601 38.227 -79.5 43.938 C-77.626 52.76 -74.407 59.79 -69 67 C-68.34 67 -67.68 67 -67 67 C-67 67.66 -67 68.32 -67 69 C-66.34 69 -65.68 69 -65 69 C-64.67 69.99 -64.34 70.98 -64 72 C-52.485 80.637 -42.148 81.678 -28 81 C-20.318 78.941 -14.349 75.788 -8 71 C-8 70.34 -8 69.68 -8 69 C-7.01 68.67 -6.02 68.34 -5 68 C-0.815 62.925 -0.815 62.925 -1 60 C-0.34 60 0.32 60 1 60 C5.342 49.496 6.288 41.442 6 30 C5.01 28.02 5.01 28.02 4 26 Z M-79 28 C-78 31 -78 31 -78 31 Z " fill="#E44559" transform="translate(101,16)"/>
<path d="M0 0 C1.65 0 3.3 0 5 0 C5 0.66 5 1.32 5 2 C5.99 2.33 6.98 2.66 8 3 C6.68 3.804 5.36 4.609 4 5.438 C-7.266 13.464 -12.682 22.727 -16 36 C-16.132 39.498 -16.171 43 -16.125 46.5 C-16.084 49.635 -16.043 52.77 -16 56 C-15.01 56 -14.02 56 -13 56 C-12.093 57.898 -11.185 59.795 -10.25 61.75 C-7.395 68.006 -7.395 68.006 -3 72 C-3 72.66 -3 73.32 -3 74 C-2.34 74 -1.68 74 -1 74 C0.65 75.65 2.3 77.3 4 79 C16.824 85.412 28.055 87.167 42.188 83.312 C47.568 80.896 47.568 80.896 54 76 C54.66 76 55.32 76 56 76 C56 75.34 56 74.68 56 74 C57.32 72.68 58.64 71.36 60 70 C60.99 68.35 61.98 66.7 63 65 C63.66 65 64.32 65 65 65 C68.76 52.738 70.139 41.835 68 29 C68 26.36 68 23.72 68 21 C68.495 21.99 68.495 21.99 69 23 C69.99 23 70.98 23 72 23 C72.33 21.35 72.66 19.7 73 18 C73.66 18.33 74.32 18.66 75 19 C75.495 21.475 75.495 21.475 76 24 C77.65 24.66 79.3 25.32 81 26 C87.894 39.788 88.721 53.565 85.25 68.562 C81.093 80.456 75.779 90.026 66 98 C64.02 99.65 62.04 101.3 60 103 C42.32 112.609 25.704 115.113 6.188 109.438 C-3.187 104.954 -10.128 99.747 -18 93 C-18 92.34 -18 91.68 -18 91 C-18.66 91 -19.32 91 -20 91 C-30.669 76.104 -33.781 61.121 -33 43 C-29.209 27.835 -23.555 15.448 -10 7 C-9.34 6.34 -8.68 5.68 -8 5 C-5.69 4.34 -3.38 3.68 -1 3 C-0.67 2.01 -0.34 1.02 0 0 Z " fill="#E7445A" transform="translate(37,11)"/>
<path d="M0 0 C9 0 9 0 17 4 C18.32 5.65 19.64 7.3 21 9 C20.67 9.33 20.34 9.66 20 10 C20.66 11.32 21.32 12.64 22 14 C22.66 14 23.32 14 24 14 C27.1 20.199 26.352 29.112 26 36 C21.211 44.6 15.474 48.293 6 51 C-2.746 51 -7.764 48.824 -15 44 C-21.981 34.226 -22.397 28.918 -22 17 C-21.34 15.35 -20.68 13.7 -20 12 C-15 10 -15 10 -11 10 C-10.67 12.97 -10.34 15.94 -10 19 C-5.876 23.676 -5.876 23.676 2 26 C9.434 23.841 9.434 23.841 12 21 C13.84 11.868 13.84 11.868 9 4 C9 3.34 9 2.68 9 2 C6.03 1.67 3.06 1.34 0 1 C0 0.67 0 0.34 0 0 Z " fill="#E7445A" transform="translate(61,17)"/>
<path d="M0 0 C1.65 0.99 3.3 1.98 5 3 C5 3.99 5 4.98 5 6 C5.66 6 6.32 6 7 6 C7 6.66 7 7.32 7 8 C7.66 8 8.32 8 9 8 C12 13 12 13 12 15 C12.66 15 13.32 15 14 15 C14.495 17.475 14.495 17.475 15 20 C13.515 19.505 13.515 19.505 12 19 C11.01 16.525 11.01 16.525 10 14 C9.34 15.32 8.68 16.64 8 18 C7.01 18 6.02 18 5 18 C4.34 20.64 3.68 23.28 3 26 C1 22 1 22 0 17 C-1.32 15.35 -2.64 13.7 -4 12 C-5.011 10.701 -6.021 9.401 -7.062 8.062 C-15.431 -0.572 -24.941 -3.838 -36.812 -4.312 C-48.802 -3.855 -55.515 -1.348 -65 6 C-65.33 6.66 -65.66 7.32 -66 8 C-65.67 8.66 -65.34 9.32 -65 10 C-63.68 9.34 -62.36 8.68 -61 8 C-60.34 7.67 -59.68 7.34 -59 7 C-60.868 10.736 -62.928 14.374 -65 18 C-66.57 24.279 -66.056 30.558 -66 37 C-70.377 30.434 -68.066 20.46 -67 13 C-67.33 12.34 -67.66 11.68 -68 11 C-74.905 17.905 -75.923 23.758 -76.25 33.25 C-76.002 40.937 -75.701 47.299 -70 53 C-70.33 54.32 -70.66 55.64 -71 57 C-76 49 -76 49 -79 40 C-78.67 43.63 -78.34 47.26 -78 51 C-78.66 51 -79.32 51 -80 51 C-82.106 36.255 -81.093 24.667 -73 12 C-68.223 6.281 -64.219 2.146 -58 -2 C-58.33 -2.99 -58.66 -3.98 -59 -5 C-64.324 -4.416 -64.324 -4.416 -68 0 C-69.65 0.66 -71.3 1.32 -73 2 C-73.99 2.99 -74.98 3.98 -76 5 C-76.66 4.67 -77.32 4.34 -78 4 C-54.98 -18.134 -25.624 -15.522 0 0 Z M-78 24 C-77 26 -77 26 -77 26 Z M-79 28 C-78 31 -78 31 -78 31 Z " fill="#C43E50" transform="translate(101,16)"/>
<path d="M0 0 C-1.579 -0.035 -3.158 -0.07 -4.785 -0.105 C-7.892 -0.146 -7.892 -0.146 -11.062 -0.188 C-13.116 -0.222 -15.169 -0.257 -17.285 -0.293 C-23.391 -0.311 -23.391 -0.311 -30 3 C-29.67 3.66 -29.34 4.32 -29 5 C-26.69 4.34 -24.38 3.68 -22 3 C-7.856 2.238 1.899 3.632 13.5 11.938 C18 16 18 16 23 22 C22.505 23.485 22.505 23.485 22 25 C18.496 21.496 15.225 17.762 12 14 C-0.809 6.197 -12.503 4.123 -27.375 7.062 C-36.535 10.9 -36.535 10.9 -43 18 C-42.67 18.66 -42.34 19.32 -42 20 C-40.68 19.34 -39.36 18.68 -38 18 C-37.34 17.67 -36.68 17.34 -36 17 C-37.868 20.736 -39.928 24.374 -42 28 C-43.57 34.279 -43.056 40.558 -43 47 C-47.377 40.434 -45.066 30.46 -44 23 C-44.33 22.34 -44.66 21.68 -45 21 C-51.905 27.905 -52.923 33.758 -53.25 43.25 C-53.002 50.937 -52.701 57.299 -47 63 C-47.33 64.32 -47.66 65.64 -48 67 C-53 59 -53 59 -56 50 C-55.67 53.63 -55.34 57.26 -55 61 C-55.66 61 -56.32 61 -57 61 C-59.106 46.255 -58.093 34.667 -50 22 C-45.223 16.281 -41.219 12.146 -35 8 C-35.33 7.01 -35.66 6.02 -36 5 C-41.324 5.584 -41.324 5.584 -45 10 C-46.65 10.66 -48.3 11.32 -50 12 C-50.99 12.99 -51.98 13.98 -53 15 C-53.66 14.67 -54.32 14.34 -55 14 C-42.002 1.502 -17.653 -8.826 0 0 Z M-55 34 C-54 36 -54 36 -54 36 Z M-56 38 C-55 41 -55 41 -55 41 Z " fill="#4B1419" transform="translate(78,6)"/>
<path d="M0 0 C6.969 3.883 8.876 10.44 12.375 17.438 C13.432 24.23 13.569 27.854 11.375 34.438 C11.045 34.438 10.715 34.438 10.375 34.438 C10.045 27.837 9.715 21.237 9.375 14.438 C8.715 14.438 8.055 14.438 7.375 14.438 C6.385 13.447 5.395 12.457 4.375 11.438 C4.375 10.117 4.375 8.797 4.375 7.438 C-1.034 3.11 -3.71 1.438 -10.625 1.438 C-8.15 1.933 -8.15 1.933 -5.625 2.438 C-5.295 3.428 -4.965 4.418 -4.625 5.438 C-6.883 5.128 -6.883 5.128 -9.188 4.812 C-14.962 4.104 -14.962 4.104 -21.625 6.438 C-23.345 13.411 -23.664 16.301 -21.625 23.438 C-22.945 22.117 -24.265 20.797 -25.625 19.438 C-25.625 16.468 -25.625 13.497 -25.625 10.438 C-28.265 11.098 -30.905 11.758 -33.625 12.438 C-31.625 7.438 -31.625 7.438 -26.625 3.438 C-26.625 2.447 -26.625 1.457 -26.625 0.438 C-17.333 -2.217 -9.363 -2.601 0 0 Z " fill="#802833" transform="translate(75.625,16.5625)"/>
<path d="M0 0 C5.133 8.982 8.759 15.617 9 26 C8.34 27.98 7.68 29.96 7 32 C6.67 32 6.34 32 6 32 C5.67 25.4 5.34 18.8 5 12 C4.34 12 3.68 12 3 12 C2.01 11.01 1.02 10.02 0 9 C0 7.68 0 6.36 0 5 C-7.842 -1.274 -11.782 -2 -22 -2 C-23.98 -1.34 -25.96 -0.68 -28 0 C-29.32 -0.33 -30.64 -0.66 -32 -1 C-22.893 -7.071 -9.097 -5.068 0 0 Z " fill="#2C080B" transform="translate(80,19)"/>
<path d="M0 0 C-1.579 -0.035 -3.158 -0.07 -4.785 -0.105 C-7.892 -0.146 -7.892 -0.146 -11.062 -0.188 C-13.116 -0.222 -15.169 -0.257 -17.285 -0.293 C-23.391 -0.311 -23.391 -0.311 -30 3 C-30.33 4.32 -30.66 5.64 -31 7 C-32.65 7 -34.3 7 -36 7 C-36 6.34 -36 5.68 -36 5 C-41.324 5.584 -41.324 5.584 -45 10 C-46.65 10.66 -48.3 11.32 -50 12 C-50.99 12.99 -51.98 13.98 -53 15 C-53.66 14.67 -54.32 14.34 -55 14 C-42.002 1.502 -17.653 -8.826 0 0 Z " fill="#7A242E" transform="translate(78,6)"/>
<path d="M0 0 C7 1 7 1 11 5 C11 5.66 11 6.32 11 7 C11.66 7 12.32 7 13 7 C13.33 8.65 13.66 10.3 14 12 C13.01 11.67 12.02 11.34 11 11 C10.34 9.35 9.68 7.7 9 6 C8.34 7.32 7.68 8.64 7 10 C6.01 10 5.02 10 4 10 C3.34 12.64 2.68 15.28 2 18 C0 14 0 14 -1 9 C-1.33 8.34 -1.66 7.68 -2 7 C-2 2 -2 2 0 0 Z " fill="#E8475C" transform="translate(102,24)"/>
<path d="M0 0 C1.65 1.65 3.3 3.3 5 5 C3.577 4.977 2.154 4.954 0.688 4.93 C-1.189 4.912 -3.066 4.894 -5 4.875 C-6.856 4.852 -8.712 4.829 -10.625 4.805 C-16.504 4.832 -16.504 4.832 -24 7 C-24.33 5.68 -24.66 4.36 -25 3 C-16 -0.375 -9.545 -0.574 0 0 Z " fill="#E94D62" transform="translate(72,5)"/>
<path d="M0 0 C1.65 0 3.3 0 5 0 C5 0.66 5 1.32 5 2 C5.99 2.33 6.98 2.66 8 3 C6.639 3.846 5.278 4.691 3.875 5.562 C-1.609 9.131 -1.609 9.131 -7 16 C-7.33 16 -7.66 16 -8 16 C-9 9 -9 9 -8 5 C-5.69 4.34 -3.38 3.68 -1 3 C-0.67 2.01 -0.34 1.02 0 0 Z " fill="#EF4A61" transform="translate(37,11)"/>
<path d="M0 0 C15.345 -0.775 25.582 2.692 37 13 C39.475 15.97 39.475 15.97 42 19 C41.505 20.485 41.505 20.485 41 22 C37.496 18.496 34.225 14.762 31 11 C20.959 4.784 11.738 1.838 0 1 C0 0.67 0 0.34 0 0 Z " fill="#3E0B0E" transform="translate(59,9)"/>
<path d="M0 0 C9 0 9 0 17 4 C18.32 5.65 19.64 7.3 21 9 C19.68 9.33 18.36 9.66 17 10 C16.876 11.629 16.752 13.259 16.625 14.938 C16.316 17.443 16.316 17.443 16 20 C15.34 20.33 14.68 20.66 14 21 C14 17.7 14 14.4 14 11 C13.34 9.02 12.68 7.04 12 5 C11.01 4.67 10.02 4.34 9 4 C9 3.34 9 2.68 9 2 C6.03 1.67 3.06 1.34 0 1 C0 0.67 0 0.34 0 0 Z " fill="#ED4E65" transform="translate(61,17)"/>
<path d="M0 0 C-0.99 0.66 -1.98 1.32 -3 2 C-1.35 2.33 0.3 2.66 2 3 C2.33 3.99 2.66 4.98 3 6 C1.536 5.773 0.071 5.546 -1.438 5.312 C-7.698 4.618 -7.698 4.618 -16 8 C-16.33 6.68 -16.66 5.36 -17 4 C-10 0 -10 0 0 0 Z " fill="#993240" transform="translate(68,16)"/>
<path d="M0 0 C0 3 0 3 -4 8 C-6.185 15.647 -6.14 22.087 -6 30 C-10.377 23.434 -8.066 13.46 -7 6 C-7.833 3.833 -7.833 3.833 -10 3 C-8.68 2.34 -7.36 1.68 -6 1 C-5.67 1.66 -5.34 2.32 -5 3 C-1.316 1.422 -1.316 1.422 0 0 Z " fill="#631E26" transform="translate(41,23)"/>
<path d="M0 0 C2.475 0.495 2.475 0.495 5 1 C8.761 9.776 10.045 15.866 7 25 C6.67 25 6.34 25 6 25 C5.67 18.4 5.34 11.8 5 5 C4.34 5 3.68 5 3 5 C2.01 4.01 1.02 3.02 0 2 C0 1.34 0 0.68 0 0 Z " fill="#752732" transform="translate(80,26)"/>
<path d="M0 0 C4 6 0.073 16.062 -1 23 C-1.33 23 -1.66 23 -2 23 C-2.66 17.39 -3.32 11.78 -4 6 C-3.01 5.34 -2.02 4.68 -1 4 C-0.67 2.68 -0.34 1.36 0 0 Z " fill="#F74B63" transform="translate(33,26)"/>
<path d="M0 0 C0 0.66 0 1.32 0 2 C-0.66 2 -1.32 2 -2 2 C-2.33 3.65 -2.66 5.3 -3 7 C-4.32 8.32 -5.64 9.64 -7 11 C-7.99 10.67 -8.98 10.34 -10 10 C-10.33 9.01 -10.66 8.02 -11 7 C-2.833 0 -2.833 0 0 0 Z " fill="#EE4D63" transform="translate(45,16)"/>
<path d="M0 0 C3.465 1.485 3.465 1.485 7 3 C7.33 4.32 7.66 5.64 8 7 C9.32 7.33 10.64 7.66 12 8 C12.66 8.33 13.32 8.66 14 9 C14 9.99 14 10.98 14 12 C8.093 9.637 4.575 6.37 0 2 C0 1.34 0 0.68 0 0 Z " fill="#8D2E3B" transform="translate(19,102)"/>
<path d="M0 0 C7 0 7 0 15 3 C13.02 3.99 13.02 3.99 11 5 C11 4.34 11 3.68 11 3 C8.36 3.66 5.72 4.32 3 5 C3 4.34 3 3.68 3 3 C2.01 2.67 1.02 2.34 0 2 C0 1.34 0 0.68 0 0 Z " fill="#AC3647" transform="translate(74,6)"/>
<path d="M0 0 C0.66 0.33 1.32 0.66 2 1 C0 5 0 5 -3 9 C-3.66 9 -4.32 9 -5 9 C-5 8.34 -5 7.68 -5 7 C-6.98 7.33 -8.96 7.66 -11 8 C-7.373 5.28 -3.689 2.635 0 0 Z " fill="#8C2C3A" transform="translate(91,87)"/>
<path d="M0 0 C0.99 0 1.98 0 3 0 C1 5 1 5 -6 11 C-6.66 10.67 -7.32 10.34 -8 10 C-7.67 8.68 -7.34 7.36 -7 6 C-6.01 5.67 -5.02 5.34 -4 5 C-3.67 4.34 -3.34 3.68 -3 3 C-2.01 2.67 -1.02 2.34 0 2 C0 1.34 0 0.68 0 0 Z " fill="#96303E" transform="translate(95,71)"/>
<path d="M0 0 C-6.857 5.143 -14.731 3.27 -23 3 C-25.475 2.01 -25.475 2.01 -28 1 C-25 0 -25 0 -21 1 C-14.368 1.234 -5.755 -1.918 0 0 Z " fill="#3B1115" transform="translate(78,69)"/>
<path d="M0 0 C0.33 1.32 0.66 2.64 1 4 C-0.65 5.98 -2.3 7.96 -4 10 C-4.99 10 -5.98 10 -7 10 C-7.33 10.66 -7.66 11.32 -8 12 C-7 8 -7 8 -2 1 C-1.34 0.67 -0.68 0.34 0 0 Z " fill="#8E2E3A" transform="translate(20,23)"/>
<path d="M0 0 C0.66 0.33 1.32 0.66 2 1 C0.969 2.093 -0.062 3.186 -1.125 4.312 C-5.218 9.263 -8.077 14.296 -11 20 C-12 16 -12 16 -9.438 11.125 C-6 6 -6 6 0 0 Z " fill="#390A0C" transform="translate(36,19)"/>
<path d="M0 0 C9.625 1.625 9.625 1.625 13 5 C12.01 5.33 11.02 5.66 10 6 C9.67 5.34 9.34 4.68 9 4 C7.02 4.99 7.02 4.99 5 6 C3.68 5.34 2.36 4.68 1 4 C0.67 2.68 0.34 1.36 0 0 Z " fill="#EB4B61" transform="translate(75,14)"/>
<path d="M0 0 C2.97 0.99 5.94 1.98 9 3 C12.465 2.505 12.465 2.505 16 2 C15.01 2.99 14.02 3.98 13 5 C3 5 3 5 0 4 C0 2.68 0 1.36 0 0 Z " fill="#651F29" transform="translate(54,40)"/>
<path d="M0 0 C5.864 2.345 8.189 5.046 12 10 C11.67 10.99 11.34 11.98 11 13 C7.138 9.138 3.542 5.156 0 1 C0 0.67 0 0.34 0 0 Z " fill="#29080B" transform="translate(89,18)"/>
<path d="M0 0 C0.66 0 1.32 0 2 0 C4.717 3.293 7.385 6.626 10 10 C7 10 7 10 1 5 C0.34 3.68 -0.32 2.36 -1 1 C-0.67 0.67 -0.34 0.34 0 0 Z " fill="#7A2932" transform="translate(32,72)"/>
<path d="M0 0 C0.66 0.33 1.32 0.66 2 1 C-3 6 -3 6 -8 8 C-8.99 8.99 -9.98 9.98 -11 11 C-11.66 10.67 -12.32 10.34 -13 10 C-8.774 6.203 -4.886 2.932 0 0 Z " fill="#69212B" transform="translate(36,10)"/>
<path d="M0 0 C4.29 0 8.58 0 13 0 C13 0.99 13 1.98 13 3 C8.71 3 4.42 3 0 3 C0 2.01 0 1.02 0 0 Z " fill="#F15369" transform="translate(56,11)"/>
<path d="M0 0 C0.66 0.33 1.32 0.66 2 1 C-3 5 -3 5 -8 8 C-8.99 7.67 -9.98 7.34 -11 7 C-10.34 7 -9.68 7 -9 7 C-9 6.01 -9 5.02 -9 4 C-8.01 4 -7.02 4 -6 4 C-6 3.34 -6 2.68 -6 2 C-4.35 1.67 -2.7 1.34 -1 1 C-0.67 0.67 -0.34 0.34 0 0 Z " fill="#69222B" transform="translate(100,109)"/>
<path d="M0 0 C0.33 1.32 0.66 2.64 1 4 C0.01 4.99 -0.98 5.98 -2 7 C-2.66 8.32 -3.32 9.64 -4 11 C-5.65 11.66 -7.3 12.32 -9 13 C-9 11 -9 11 -5 7 C-4.01 5.35 -3.02 3.7 -2 2 C-1.34 2 -0.68 2 0 2 C0 1.34 0 0.68 0 0 Z " fill="#5A1B23" transform="translate(102,74)"/>
<path d="M0 0 C0.66 0.33 1.32 0.66 2 1 C2.33 2.32 2.66 3.64 3 5 C3.66 6.98 4.32 8.96 5 11 C4.34 10.67 3.68 10.34 3 10 C3 9.34 3 8.68 3 8 C2.34 8 1.68 8 1 8 C1 7.34 1 6.68 1 6 C0.01 5.67 -0.98 5.34 -2 5 C-2 4.01 -2 3.02 -2 2 C-1.34 2 -0.68 2 0 2 C0 1.34 0 0.68 0 0 Z " fill="#9F3341" transform="translate(83,17)"/>
<path d="M0 0 C2.475 0.99 2.475 0.99 5 2 C3 6 3 6 -2 8 C-1.67 6.35 -1.34 4.7 -1 3 C-0.34 3 0.32 3 1 3 C0.67 2.01 0.34 1.02 0 0 Z " fill="#A83544" transform="translate(44,15)"/>
<path d="M0 0 C2.475 0.99 2.475 0.99 5 2 C6.98 2.66 8.96 3.32 11 4 C11 4.33 11 4.66 11 5 C5 6 5 6 0 3 C0 2.01 0 1.02 0 0 Z " fill="#7E2935" transform="translate(41,91)"/>
<path d="M0 0 C0 1.65 0 3.3 0 5 C-1.98 4.01 -3.96 3.02 -6 2 C-7.65 1.67 -9.3 1.34 -11 1 C-7 -1 -7 -1 0 0 Z " fill="#F54C61" transform="translate(89,10)"/>
<path d="M0 0 C-0.33 0.66 -0.66 1.32 -1 2 C-7 3 -7 3 -9 2 C-9 1.34 -9 0.68 -9 0 C-6 -1 -6 -1 0 0 Z " fill="#EF4D63" transform="translate(55,14)"/>
<path d="M0 0 C0.66 0.33 1.32 0.66 2 1 C1.34 2.32 0.68 3.64 0 5 C-0.66 5 -1.32 5 -2 5 C-2.33 6.65 -2.66 8.3 -3 10 C-3.66 10 -4.32 10 -5 10 C-3 4 -3 4 0 0 Z " fill="#E64D63" transform="translate(31,27)"/>
<path d="M0 0 C0.99 0.99 1.98 1.98 3 3 C2.67 5.31 2.34 7.62 2 10 C0 6 0 6 -1 2 C-0.67 1.34 -0.34 0.68 0 0 Z " fill="#290A0C" transform="translate(102,32)"/>
<path d="M0 0 C0.99 0.495 0.99 0.495 2 1 C2 1.66 2 2.32 2 3 C2.66 3 3.32 3 4 3 C4.33 4.65 4.66 6.3 5 8 C4.01 7.67 3.02 7.34 2 7 C1.34 4.69 0.68 2.38 0 0 Z " fill="#752932" transform="translate(111,28)"/>
<path d="M0 0 C5 1 5 1 8 3 C5 4 5 4 -2 2 C-1.34 1.34 -0.68 0.68 0 0 Z " fill="#4E151A" transform="translate(74,10)"/>
<path d="" fill="#030001" transform="translate(0,0)"/>
</svg>
