<?xml version="1.0" encoding="UTF-8"?>
<!-- Generator: visioncortex VTracer 0.6.4 -->
<svg version="1.1" xmlns="http://www.w3.org/2000/svg" width="128" height="128">
<path d="M0 0 C13.607 11.146 21.992 23.873 26 41 C27.467 60.848 24.915 77.327 12.875 93.562 C0.73 107.109 -13.455 116.073 -31.867 117.434 C-51.549 117.446 -66.299 113.947 -81.875 101.188 C-95.354 87.544 -102.425 72.372 -102.438 53.125 C-102.186 34.546 -96.363 20.79 -84 7 C-59.49 -15.203 -27.982 -17.008 0 0 Z M-21 36 C-21 41.94 -21 47.88 -21 54 C-20.34 54 -19.68 54 -19 54 C-19 48.06 -19 42.12 -19 36 C-19.66 36 -20.32 36 -21 36 Z M-14 36 C-14 41.94 -14 47.88 -14 54 C-13.34 54 -12.68 54 -12 54 C-12 48.06 -12 42.12 -12 36 C-12.66 36 -13.32 36 -14 36 Z M-6 36 C-7.889 37.656 -7.889 37.656 -7.062 44.562 C-7.042 47.017 -7.021 49.471 -7 52 C-6.01 51.67 -5.02 51.34 -4 51 C-4 46.38 -4 41.76 -4 37 C-4.66 36.67 -5.32 36.34 -6 36 Z M-28 37 C-28 44.59 -28 52.18 -28 60 C-27.34 60 -26.68 60 -26 60 C-26 52.41 -26 44.82 -26 37 C-26.66 37 -27.32 37 -28 37 Z M0 38 C0 41.96 0 45.92 0 50 C0.99 50 1.98 50 3 50 C3 46.04 3 42.08 3 38 C2.01 38 1.02 38 0 38 Z M-35 39 C-35 47.25 -35 55.5 -35 64 C-34.34 64 -33.68 64 -33 64 C-33 55.75 -33 47.5 -33 39 C-33.66 39 -34.32 39 -35 39 Z M-64 40 C-64 40.66 -64 41.32 -64 42 C-63.34 42 -62.68 42 -62 42 C-62 41.34 -62 40.68 -62 40 C-62.66 40 -63.32 40 -64 40 Z M-86 41 C-86 41.99 -86 42.98 -86 44 C-85.01 44 -84.02 44 -83 44 C-83.33 43.01 -83.66 42.02 -84 41 C-84.66 41 -85.32 41 -86 41 Z M-71 41 C-71 46.28 -71 51.56 -71 57 C-70.34 57 -69.68 57 -69 57 C-69 51.72 -69 46.44 -69 41 C-69.66 41 -70.32 41 -71 41 Z M-78 42 C-78.33 43.65 -78.66 45.3 -79 47 C-78.01 47 -77.02 47 -76 47 C-76 45.35 -76 43.7 -76 42 C-76.66 42 -77.32 42 -78 42 Z M-42 42 C-43.6 43.369 -43.6 43.369 -43.098 48.129 C-43.086 50.252 -43.074 52.375 -43.062 54.562 C-43.053 56.688 -43.044 58.814 -43.035 61.004 C-43.024 62.653 -43.012 64.301 -43 66 C-42.01 66.33 -41.02 66.66 -40 67 C-40 58.75 -40 50.5 -40 42 C-40.66 42 -41.32 42 -42 42 Z M8 42 C7.67 42.33 7.34 42.66 7 43 C7 44.98 7 46.96 7 49 C7.99 49 8.98 49 10 49 C10 47.02 10 45.04 10 43 C9.34 42.67 8.68 42.34 8 42 Z M-49 46 C-51.717 51.435 -50.04 61.019 -50 67 C-49.01 67 -48.02 67 -47 67 C-47 60.4 -47 53.8 -47 47 C-47.66 46.67 -48.32 46.34 -49 46 Z M-57 49 C-57 55.93 -57 62.86 -57 70 C-56.01 70 -55.02 70 -54 70 C-54 63.07 -54 56.14 -54 49 C-54.99 49 -55.98 49 -57 49 Z M-63 51 C-64.653 52.42 -64.653 52.42 -64.062 57.562 C-64.042 59.357 -64.021 61.151 -64 63 C-63.01 62.67 -62.02 62.34 -61 62 C-61.33 58.37 -61.66 54.74 -62 51 C-62.33 51 -62.66 51 -63 51 Z " fill="#F3F3F3" transform="translate(102,11)"/>
<path d="M0 0 C0.99 0.33 1.98 0.66 3 1 C3 4.63 3 8.26 3 12 C1.68 11.67 0.36 11.34 -1 11 C-1 1 -1 1 0 0 Z " fill="#BCBCBD" transform="translate(88,67)"/>
<path d="M0 0 C0.66 0.33 1.32 0.66 2 1 C-3.28 6.28 -8.56 11.56 -14 17 C-14 11.385 -8.668 7.858 -5 4 C-3.35 2.68 -1.7 1.36 0 0 Z " fill="#9B9B9B" transform="translate(26,11)"/>
<path d="M0 0 C1.32 0 2.64 0 4 0 C4 3.3 4 6.6 4 10 C2.68 9.67 1.36 9.34 0 9 C0 6.03 0 3.06 0 0 Z " fill="#BABBBD" transform="translate(80,69)"/>
<path d="M0 0 C0.99 0 1.98 0 3 0 C3 3.63 3 7.26 3 11 C2.01 11 1.02 11 0 11 C0 7.37 0 3.74 0 0 Z " fill="#B1B2B4" transform="translate(95,66)"/>
<path d="M0 0 C0.99 0 1.98 0 3 0 C3 3.63 3 7.26 3 11 C2.01 11 1.02 11 0 11 C0 7.37 0 3.74 0 0 Z " fill="#B5B6B7" transform="translate(102,64)"/>
<path d="M0 0 C0.99 0 1.98 0 3 0 C3 2.97 3 5.94 3 9 C2.01 9 1.02 9 0 9 C0 6.03 0 3.06 0 0 Z " fill="#AEAFAF" transform="translate(109,60)"/>
</svg>
