<?xml version="1.0" encoding="UTF-8"?>
<!-- Generator: visioncortex VTracer 0.6.4 -->
<svg version="1.1" xmlns="http://www.w3.org/2000/svg" width="128" height="128">
<path d="M0 0 C10.373 8.202 17.365 17.823 20 31 C20.234 45.297 20.234 45.297 19 49 C20.32 49.66 21.64 50.32 23 51 C26.915 58.829 26.463 67.43 26 76 C19.051 84.338 12.406 86.399 2 89 C-7.352 89.383 -12.647 89.176 -21 85 C-31 84.255 -31 84.255 -39 89 C-53.291 90.138 -64.325 87.339 -76 79 C-79.432 70.419 -78.412 61.805 -76 53 C-74.68 51.68 -73.36 50.36 -72 49 C-71.957 43 -71.96 37 -72 31 C-69.078 17.311 -61.551 6.504 -50 -1.438 C-33.218 -10.039 -16.115 -9.848 0 0 Z " fill="#FD9F07" transform="translate(90,23)"/>
<path d="M0 0 C11.212 5.326 17.527 12.428 23 23.375 C24.721 30.258 24.053 37.316 24 44.375 C22.02 44.045 20.04 43.715 18 43.375 C16.35 44.365 14.7 45.355 13 46.375 C10.36 46.045 7.72 45.715 5 45.375 C1.778 48.32 1.778 48.32 -0.312 52.562 C-3 57.375 -3 57.375 -9 65.375 C-9 68.015 -9 70.655 -9 73.375 C-11.64 73.375 -14.28 73.375 -17 73.375 C-17 70.735 -17 68.095 -17 65.375 C-18.98 62.735 -20.96 60.095 -23 57.375 C-23.969 55.416 -24.939 53.456 -25.938 51.438 C-26.948 49.767 -27.959 48.096 -29 46.375 C-35.481 45.281 -35.481 45.281 -40 45.375 C-41.32 44.715 -42.64 44.055 -44 43.375 C-46.97 43.87 -46.97 43.87 -50 44.375 C-53.214 37.948 -51.355 28.597 -49.438 22 C-39.199 2.573 -21.653 -5.864 0 0 Z " fill="#FDD01D" transform="translate(77,25.625)"/>
<path d="M0 0 C10.373 8.202 17.365 17.823 20 31 C20.234 45.297 20.234 45.297 19 49 C20.32 49.66 21.64 50.32 23 51 C26.915 58.829 26.463 67.43 26 76 C19.051 84.338 12.406 86.399 2 89 C-7.352 89.383 -12.647 89.176 -21 85 C-31 84.255 -31 84.255 -39 89 C-53.291 90.138 -64.325 87.339 -76 79 C-79.432 70.419 -78.412 61.805 -76 53 C-74.68 51.68 -73.36 50.36 -72 49 C-71.594 44.005 -71.257 39.005 -71 34 C-70.01 33.505 -70.01 33.505 -69 33 C-68.152 38.977 -67.491 44.983 -67 51 C-68.32 51.99 -69.64 52.98 -71 54 C-71.33 56.64 -71.66 59.28 -72 62 C-72.495 62.495 -72.495 62.495 -73 63 C-73.501 68.333 -73.501 68.333 -73 74 C-65.281 81.719 -56.118 83.689 -45.375 84.5 C-39.691 84.299 -39.691 84.299 -34 81 C-25.09 80.579 -19.252 80.463 -11 84 C0.466 84 8.679 81.702 19 77 C22.022 72.467 21.18 68.335 21 63 C20.67 61.68 20.34 60.36 20 59 C19.67 57.35 19.34 55.7 19 54 C17.35 52.68 15.7 51.36 14 50 C14.33 48.02 14.66 46.04 15 44 C15.553 31.277 13.132 22.561 6 12 C-3.643 2.357 -12.559 -2.277 -26.188 -2.375 C-39.525 -2.21 -47.067 0.97 -57 10 C-62.652 16.929 -65.51 23.434 -68 32 C-68.66 31.67 -69.32 31.34 -70 31 C-70 20.271 -66.357 14.947 -59.75 6.688 C-43.122 -9.722 -19.937 -12.184 0 0 Z " fill="#D5D1C9" transform="translate(90,23)"/>
<path d="M0 0 C6.567 1.642 9.372 7.559 13 13 C13.99 13.33 14.98 13.66 16 14 C16 13.01 16 12.02 16 11 C15.01 10.67 14.02 10.34 13 10 C12 8 12 8 12 2 C16 3 16 3 19 7.75 C19.99 9.483 20.98 11.215 22 13 C23.32 14.65 24.64 16.3 26 18 C26 20.31 26 22.62 26 25 C21 30 21 30 13.812 30.5 C4.837 29.926 -1.321 28.607 -9 24 C-9 23.01 -9 22.02 -9 21 C-3 22 -3 22 2 24 C2 23.34 2 22.68 2 22 C-0.97 21.01 -3.94 20.02 -7 19 C-7.66 18.34 -8.32 17.68 -9 17 C-9 16.01 -9 15.02 -9 14 C-3 15 -3 15 4 19 C4.33 18.34 4.66 17.68 5 17 C2.525 16.01 2.525 16.01 0 15 C-2.64 13.02 -5.28 11.04 -8 9 C-8 8.01 -8 7.02 -8 6 C-1.066 7.156 1.66 9.602 7 14 C7.66 14.33 8.32 14.66 9 15 C7.886 13.742 6.773 12.484 5.625 11.188 C0 4.69 0 4.69 0 0 Z " fill="#FED01C" transform="translate(30,73)"/>
<path d="M0 0 C0.99 0 1.98 0 3 0 C1.687 6.565 -1.748 9.938 -6 15 C-2.906 12.773 -2.906 12.773 0.25 10.5 C7 6 7 6 11 6 C9.471 12.117 5.131 13.706 0 17 C-0.66 17 -1.32 17 -2 17 C-1.67 17.66 -1.34 18.32 -1 19 C1.104 17.763 1.104 17.763 3.25 16.5 C8 14 8 14 12 14 C11.67 15.32 11.34 16.64 11 18 C8.03 19.32 5.06 20.64 2 22 C1.67 22.66 1.34 23.32 1 24 C2.98 23.01 4.96 22.02 7 21 C8.65 21 10.3 21 12 21 C12 21.99 12 22.98 12 24 C1.202 29.399 -5.916 30.666 -18 30 C-19.65 28.35 -21.3 26.7 -23 25 C-23 16.285 -20.248 13.737 -15 7 C-14.01 5.35 -13.02 3.7 -12 2 C-11.01 2 -10.02 2 -9 2 C-9 3.98 -9 5.96 -9 8 C-9.99 8.99 -10.98 9.98 -12 11 C-12.33 11.99 -12.66 12.98 -13 14 C-7.758 11.379 -6.137 7.872 -3 3 C-2.01 2.01 -1.02 1.02 0 0 Z " fill="#FED01C" transform="translate(95,73)"/>
<path d="M0 0 C0.33 0 0.66 0 1 0 C1.848 5.977 2.509 11.983 3 18 C1.68 18.99 0.36 19.98 -1 21 C-1.33 23.64 -1.66 26.28 -2 29 C-2.33 29.33 -2.66 29.66 -3 30 C-3.501 35.333 -3.501 35.333 -3 41 C4.719 48.719 13.882 50.689 24.625 51.5 C30.309 51.299 30.309 51.299 36 48 C44.91 47.579 50.748 47.463 59 51 C62.657 51.423 66.325 51.773 70 52 C69.67 52.99 69.34 53.98 69 55 C61.826 55.177 55.636 55.318 49 52 C39 51.255 39 51.255 31 56 C16.709 57.138 5.675 54.339 -6 46 C-9.432 37.419 -8.412 28.805 -6 20 C-4.68 18.68 -3.36 17.36 -2 16 C-1.554 11.009 -1.214 6.007 -1 1 C-0.67 0.67 -0.34 0.34 0 0 Z " fill="#D4D1CC" transform="translate(20,56)"/>
<path d="M0 0 C0.99 0.33 1.98 0.66 3 1 C1 10 1 10 -2 13 C-3.32 12.34 -4.64 11.68 -6 11 C-6.99 10.67 -7.98 10.34 -9 10 C-9.99 10.66 -10.98 11.32 -12 12 C-12.33 11.01 -12.66 10.02 -13 9 C-14.98 10.32 -16.96 11.64 -19 13 C-23 11 -23 11 -25 8 C-25 5.69 -25 3.38 -25 1 C-20 2 -20 2 -17 3 C-9.898 3.334 -6.479 3.24 0 0 Z " fill="#39383B" transform="translate(75,61)"/>
<path d="M0 0 C0.33 0 0.66 0 1 0 C2.028 7.197 2.392 13.739 2 21 C-4.949 29.338 -11.594 31.399 -22 34 C-36.313 34.458 -36.313 34.458 -40 32 C-35.05 32 -30.1 32 -25 32 C-25 31.01 -25 30.02 -25 29 C-22.36 28.34 -19.72 27.68 -17 27 C-8.936 24.441 -8.936 24.441 -3 19 C-2.819 13.749 -2.723 9.109 -4 4 C-2.68 2.68 -1.36 1.36 0 0 Z " fill="#D0CDC8" transform="translate(114,78)"/>
<path d="M0 0 C4.87 7.304 4.219 13.326 4 22 C3.67 22.99 3.34 23.98 3 25 C4.32 25.66 5.64 26.32 7 27 C7.33 28.98 7.66 30.96 8 33 C7.01 33.99 6.02 34.98 5 36 C4.34 34.02 3.68 32.04 3 30 C1.35 28.68 -0.3 27.36 -2 26 C-1.67 24.02 -1.34 22.04 -1 20 C-1 16.762 -1 13.524 -1 10.188 C-1 1 -1 1 0 0 Z " fill="#E1DFDB" transform="translate(106,47)"/>
<path d="M0 0 C14.125 -0.375 14.125 -0.375 22 3 C25.657 3.423 29.325 3.773 33 4 C32.67 4.99 32.34 5.98 32 7 C24.826 7.177 18.636 7.318 12 4 C9.03 4 6.06 4 3 4 C3 3.34 3 2.68 3 2 C2.01 1.67 1.02 1.34 0 1 C0 0.67 0 0.34 0 0 Z " fill="#CDCDCC" transform="translate(57,104)"/>
<path d="M0 0 C0.66 0.66 1.32 1.32 2 2 C2.99 1.34 3.98 0.68 5 0 C6.65 1.65 8.3 3.3 10 5 C5.417 8.055 1.381 7.302 -4 7 C-5.32 6.01 -6.64 5.02 -8 4 C-2 0 -2 0 0 0 Z " fill="#F5353D" transform="translate(62,70)"/>
<path d="M0 0 C2.31 0.33 4.62 0.66 7 1 C7.33 2.98 7.66 4.96 8 7 C2 9 2 9 -2 9 C-2.33 7.02 -2.66 5.04 -3 3 C-2.01 2.01 -1.02 1.02 0 0 Z " fill="#38393B" transform="translate(47,44)"/>
<path d="M0 0 C1.98 0 3.96 0 6 0 C8 2 8 2 8 8 C6.02 8.99 6.02 8.99 4 10 C3.67 9.01 3.34 8.02 3 7 C1.35 7.33 -0.3 7.66 -2 8 C-2 2 -2 2 0 0 Z " fill="#35363B" transform="translate(74,44)"/>
<path d="M0 0 C4.133 4.133 5.823 8.618 8 14 C7.67 15.32 7.34 16.64 7 18 C6.34 16.35 5.68 14.7 5 13 C4.34 13.66 3.68 14.32 3 15 C-1 6 -1 6 0 0 Z " fill="#CAC8C4" transform="translate(101,35)"/>
<path d="M0 0 C0.33 0.99 0.66 1.98 1 3 C-0.32 5.64 -1.64 8.28 -3 11 C-3.66 13.31 -4.32 15.62 -5 18 C-5.66 17.67 -6.32 17.34 -7 17 C-7 9 -7 9 -4 3 C-2.68 2.01 -1.36 1.02 0 0 Z " fill="#E1DFD9" transform="translate(27,37)"/>
<path d="M0 0 C5.61 0.33 11.22 0.66 17 1 C16.67 1.99 16.34 2.98 16 4 C5.625 4.25 5.625 4.25 0 2 C0 1.34 0 0.68 0 0 Z " fill="#FCFBF7" transform="translate(73,107)"/>
<path d="M0 0 C9 2 9 2 13 3 C12.67 3.99 12.34 4.98 12 6 C5 6 5 6 0 4 C-0.33 3.01 -0.66 2.02 -1 1 C-0.67 0.67 -0.34 0.34 0 0 Z " fill="#E5E3DD" transform="translate(21,103)"/>
<path d="M0 0 C0.33 0 0.66 0 1 0 C1.66 5.94 2.32 11.88 3 18 C1.35 18.33 -0.3 18.66 -2 19 C-1.67 17.02 -1.34 15.04 -1 13 C-1 10.917 -1 8.834 -1 6.688 C-1 1 -1 1 0 0 Z " fill="#FCFAF6" transform="translate(20,56)"/>
<path d="M0 0 C1.32 0.33 2.64 0.66 4 1 C-1 6 -1 6 -5 9 C-5.99 8.67 -6.98 8.34 -8 8 C-5 3 -5 3 0 0 Z " fill="#E9E4DB" transform="translate(43,20)"/>
<path d="M0 0 C1.32 0.33 2.64 0.66 4 1 C4.33 2.65 4.66 4.3 5 6 C4.67 6.33 4.34 6.66 4 7 C2.35 7 0.7 7 -1 7 C-1.33 5.35 -1.66 3.7 -2 2 C-1.34 1.34 -0.68 0.68 0 0 Z " fill="#FEAF04" transform="translate(88,49)"/>
<path d="M0 0 C1.32 0.33 2.64 0.66 4 1 C4.33 2.65 4.66 4.3 5 6 C4.67 6.33 4.34 6.66 4 7 C2.35 7 0.7 7 -1 7 C-1.33 5.35 -1.66 3.7 -2 2 C-1.34 1.34 -0.68 0.68 0 0 Z " fill="#FEAF04" transform="translate(37,49)"/>
<path d="M0 0 C0.66 1.32 1.32 2.64 2 4 C2.33 4.33 2.66 4.66 3 5 C3.041 9 3.042 13 3 17 C2.67 17 2.34 17 2 17 C1.67 13.7 1.34 10.4 1 7 C0.67 10.96 0.34 14.92 0 19 C-0.33 19 -0.66 19 -1 19 C-1.125 4.5 -1.125 4.5 0 0 Z " fill="#A1947F" transform="translate(19,50)"/>
<path d="M0 0 C3 3 3 3 4 7 C2.68 7.33 1.36 7.66 0 8 C-1 3 -1 3 0 0 Z " fill="#D6D3CD" transform="translate(101,35)"/>
<path d="M0 0 C2.31 0 4.62 0 7 0 C7 1.667 7 3.333 7 5 C2 3 2 3 0 0 Z " fill="#B9B7B3" transform="translate(14,101)"/>
<path d="M0 0 C1.32 0.33 2.64 0.66 4 1 C2.68 2.32 1.36 3.64 0 5 C-0.33 4.34 -0.66 3.68 -1 3 C-1.66 2.67 -2.32 2.34 -3 2 C-2.01 1.34 -1.02 0.68 0 0 Z " fill="#C9C8C6" transform="translate(43,20)"/>
</svg>
