<?xml version="1.0" encoding="UTF-8"?>
<!-- Generator: visioncortex VTracer 0.6.4 -->
<svg version="1.1" xmlns="http://www.w3.org/2000/svg" width="128" height="128">
<path d="M0 0 C3.033 -0.012 6.065 -0.024 9.189 -0.037 C12.103 -0.039 15.017 -0.041 18.02 -0.043 C20.688 -0.047 23.356 -0.051 26.105 -0.055 C40.835 0.45 48.704 3.704 59.188 14.188 C64.241 24.295 64.614 29.754 64.188 41.188 C58.683 53.572 53.121 60.014 40.188 65.188 C27.036 67.066 13.64 66.372 0.375 66.375 C-2.658 66.387 -5.69 66.399 -8.814 66.412 C-11.728 66.414 -14.642 66.416 -17.645 66.418 C-21.647 66.424 -21.647 66.424 -25.73 66.43 C-40.46 65.925 -48.329 62.671 -58.812 52.188 C-63.866 42.08 -64.239 36.621 -63.812 25.188 C-58.308 12.803 -52.746 6.361 -39.812 1.188 C-26.661 -0.691 -13.265 0.003 0 0 Z M-34.812 12.188 C-39.229 15.864 -39.229 15.864 -39.812 21.188 C-37.832 21.847 -35.852 22.508 -33.812 23.188 C-32.056 28.157 -30.394 33.16 -28.812 38.188 C-27.163 40.168 -25.513 42.148 -23.812 44.188 C-23.483 46.498 -23.153 48.808 -22.812 51.188 C-18.962 53.486 -18.962 53.486 -14.812 53.188 C-14.483 50.877 -14.153 48.567 -13.812 46.188 C-7.812 48.188 -7.812 48.188 -4.812 51.188 C-3.822 50.858 -2.833 50.528 -1.812 50.188 C-2.472 48.868 -3.133 47.547 -3.812 46.188 C-4.803 44.001 -5.792 41.815 -6.812 39.562 C-10.78 32.248 -14.831 27.866 -20.812 22.188 C-22.863 19.222 -24.88 16.231 -26.812 13.188 C-29.334 11.74 -29.334 11.74 -34.812 12.188 Z M22.188 12.188 C21.528 12.847 20.868 13.508 20.188 14.188 C20.188 15.837 20.188 17.487 20.188 19.188 C20.847 19.847 21.507 20.508 22.188 21.188 C23.838 21.188 25.487 21.188 27.188 21.188 C27.847 20.528 28.507 19.867 29.188 19.188 C29.188 17.538 29.188 15.888 29.188 14.188 C28.528 13.528 27.868 12.867 27.188 12.188 C25.537 12.188 23.888 12.188 22.188 12.188 Z M18.188 23.188 C17.198 24.672 17.198 24.672 16.188 26.188 C12.722 27.672 12.722 27.672 9.188 29.188 C9.188 31.168 9.188 33.148 9.188 35.188 C11.498 35.517 13.808 35.847 16.188 36.188 C16.847 37.507 17.507 38.828 18.188 40.188 C18.847 39.858 19.507 39.528 20.188 39.188 C19.528 37.537 18.868 35.888 18.188 34.188 C20.828 33.858 23.468 33.528 26.188 33.188 C26.517 32.528 26.847 31.867 27.188 31.188 C24.218 31.188 21.248 31.188 18.188 31.188 C18.517 29.538 18.847 27.888 19.188 26.188 C19.188 25.197 19.188 24.207 19.188 23.188 C18.858 23.188 18.528 23.188 18.188 23.188 Z M30.188 23.188 C30.029 26.24 30.029 26.24 31.188 29.188 C31.188 31.168 31.188 33.148 31.188 35.188 C31.517 35.517 31.847 35.847 32.188 36.188 C34.498 36.188 36.808 36.188 39.188 36.188 C39.517 35.858 39.847 35.528 40.188 35.188 C40.188 33.207 40.188 31.227 40.188 29.188 C37.889 26.591 37.889 26.591 32.188 25.188 C31.528 24.528 30.868 23.867 30.188 23.188 Z M23.188 42.188 C21.703 43.178 21.703 43.178 20.188 44.188 C20.188 46.167 20.188 48.148 20.188 50.188 C21.672 51.178 21.672 51.178 23.188 52.188 C27.818 51.742 27.818 51.742 29.188 50.188 C29.188 48.207 29.188 46.227 29.188 44.188 C27.207 43.528 25.228 42.868 23.188 42.188 Z M-29.812 51.188 C-27.833 52.178 -27.833 52.178 -25.812 53.188 C-25.153 52.528 -24.492 51.868 -23.812 51.188 C-25.793 51.188 -27.773 51.188 -29.812 51.188 Z " fill="#1A3837" transform="translate(63.8125,30.8125)"/>
<path d="M0 0 C0.33 0.66 0.66 1.32 1 2 C-1.31 2.66 -3.62 3.32 -6 4 C-6.33 4.99 -6.66 5.98 -7 7 C-7.66 5.35 -8.32 3.7 -9 2 C-8 1 -8 1 0 0 Z " fill="#132727" transform="translate(90,63)"/>
</svg>
