<?xml version="1.0" encoding="UTF-8"?>
<!-- Generator: visioncortex VTracer 0.6.4 -->
<svg version="1.1" xmlns="http://www.w3.org/2000/svg" width="128" height="128">
<path d="M0 0 C5.159 0.009 10.318 -0.02 15.477 -0.052 C18.74 -0.051 22.002 -0.051 25.364 -0.05 C29.842 -0.053 29.842 -0.053 34.41 -0.056 C45.395 0.642 51.393 3.077 60.309 9.446 C68.632 20.225 69.932 27.837 69.309 41.446 C64.731 51.747 60.992 57.84 51.309 63.446 C37.906 67.914 24.658 66.927 10.618 66.892 C5.459 66.884 0.3 66.912 -4.859 66.944 C-8.122 66.943 -11.384 66.943 -14.746 66.942 C-17.731 66.944 -20.716 66.946 -23.792 66.948 C-35.579 66.199 -41.232 63.541 -50.691 56.446 C-58.383 46.19 -59.275 38.208 -58.691 25.446 C-54.113 15.146 -50.374 9.052 -40.691 3.446 C-27.288 -1.022 -14.04 -0.035 0 0 Z M-31.691 13.446 C-35.091 17.146 -35.091 17.146 -34.691 21.446 C-31.721 21.941 -31.721 21.941 -28.691 22.446 C-27.928 25.004 -27.165 27.561 -26.378 30.196 C-24.3 38.082 -24.3 38.082 -20.691 42.446 C-20.031 42.446 -19.371 42.446 -18.691 42.446 C-18.361 44.756 -18.031 47.066 -17.691 49.446 C-16.701 49.446 -15.711 49.446 -14.691 49.446 C-14.691 48.456 -14.691 47.466 -14.691 46.446 C-14.031 46.446 -13.371 46.446 -12.691 46.446 C-12.361 49.086 -12.031 51.726 -11.691 54.446 C-10.701 53.786 -9.711 53.126 -8.691 52.446 C-8.691 50.466 -8.691 48.486 -8.691 46.446 C-2.691 49.446 -2.691 49.446 -0.691 51.446 C0.959 51.446 2.609 51.446 4.309 51.446 C-0.374 41.399 -4.903 33.347 -12.691 25.446 C-17.691 19.446 -17.691 19.446 -20.691 14.446 C-26.253 10.706 -26.253 10.706 -31.691 13.446 Z M31.122 17.634 C29.234 19.521 29.234 19.521 27.309 21.446 C24.339 24.416 21.297 27.322 18.122 30.071 C14.33 33.138 14.33 33.138 12.309 36.446 C11.372 45.342 11.372 45.342 16.309 50.446 C19.129 52.042 19.129 52.042 26.309 51.446 C33.976 46.279 33.976 46.279 37.309 41.446 C37.309 40.786 37.309 40.126 37.309 39.446 C38.959 38.786 40.609 38.126 42.309 37.446 C47.217 32.538 49.148 30.412 50.309 23.446 C47.831 17.372 47.831 17.372 43.309 14.446 C35.493 13.638 35.493 13.638 31.122 17.634 Z M-17.691 50.446 C-18.021 51.106 -18.351 51.766 -18.691 52.446 C-18.031 52.446 -17.371 52.446 -16.691 52.446 C-17.021 51.786 -17.351 51.126 -17.691 50.446 Z M-24.691 51.446 C-24.361 52.106 -24.031 52.766 -23.691 53.446 C-22.701 53.116 -21.711 52.786 -20.691 52.446 C-22.011 52.116 -23.331 51.786 -24.691 51.446 Z " fill="#1A3838" transform="translate(58.69091796875,30.553955078125)"/>
<path d="M0 0 C1.32 1.32 2.64 2.64 4 4 C3 11 3 11 -2 16 C-2.99 16 -3.98 16 -5 16 C-5.66 14.02 -6.32 12.04 -7 10 C-8.65 9.34 -10.3 8.68 -12 8 C-10.275 12.811 -10.275 12.811 -8 16 C-9 22 -9 22 -16 29 C-21 30 -21 30 -26 27 C-26.33 25.02 -26.66 23.04 -27 21 C-23.688 16.625 -23.688 16.625 -20 13 C-19.34 13 -18.68 13 -18 13 C-17.34 14.98 -16.68 16.96 -16 19 C-13.525 19.99 -13.525 19.99 -11 21 C-10.67 19.68 -10.34 18.36 -10 17 C-11.32 16.34 -12.64 15.68 -14 15 C-14.33 13.35 -14.66 11.7 -15 10 C-8.333 0 -8.333 0 0 0 Z " fill="#183332" transform="translate(101,49)"/>
<path d="M0 0 C0.33 0 0.66 0 1 0 C1.66 2.31 2.32 4.62 3 7 C3.99 8.485 3.99 8.485 5 10 C4.67 11.98 4.34 13.96 4 16 C3.34 16.33 2.68 16.66 2 17 C1.34 16.34 0.68 15.68 0 15 C0.66 15 1.32 15 2 15 C2.33 13.68 2.66 12.36 3 11 C1.68 10.34 0.36 9.68 -1 9 C-2 4 -2 4 0 0 Z " fill="#132726" transform="translate(88,55)"/>
<path d="M0 0 C0.66 0 1.32 0 2 0 C4 3 4 3 4 9 C0.653 8.407 -2.682 7.737 -6 7 C-6.33 6.34 -6.66 5.68 -7 5 C-4.525 5.495 -4.525 5.495 -2 6 C-1.34 4.02 -0.68 2.04 0 0 Z " fill="#122626" transform="translate(44,77)"/>
<path d="M0 0 C3.3 0.33 6.6 0.66 10 1 C10.33 1.99 10.66 2.98 11 4 C7.653 3.407 4.318 2.737 1 2 C0.67 1.34 0.34 0.68 0 0 Z " fill="#0B1414" transform="translate(37,82)"/>
<path d="M0 0 C0.33 0 0.66 0 1 0 C1.33 2.31 1.66 4.62 2 7 C1.34 7 0.68 7 0 7 C-0.33 7.66 -0.66 8.32 -1 9 C-2 4 -2 4 0 0 Z " fill="#0E1E1D" transform="translate(88,55)"/>
</svg>
