<?xml version="1.0" encoding="UTF-8"?>
<!-- Generator: visioncortex VTracer 0.6.4 -->
<svg version="1.1" xmlns="http://www.w3.org/2000/svg" width="128" height="128">
<path d="M0 0 C5.28 0 10.56 0 16 0 C16.495 7.425 16.495 7.425 17 15 C21.95 15.33 26.9 15.66 32 16 C32 26.56 32 37.12 32 48 C16.16 48 0.32 48 -16 48 C-16 42.72 -16 37.44 -16 32 C-11.05 31.67 -6.1 31.34 -1 31 C-1.021 28.855 -1.041 26.71 -1.062 24.5 C-1.002 16.294 -0.579 8.184 0 0 Z " fill="#B09B60" transform="translate(56,40)"/>
<path d="M0 0 C5 -0.042 10 -0.041 15 0 C16 1 16 1 16.062 8.562 C16.042 11.017 16.021 13.471 16 16 C20.95 16 25.9 16 31 16 C31 21.28 31 26.56 31 32 C25.72 32 20.44 32 15 32 C14.67 27.05 14.34 22.1 14 17 C7.07 16.505 7.07 16.505 0 16 C0 10.72 0 5.44 0 0 Z " fill="#B9A05D" transform="translate(57,56)"/>
<path d="M0 0 C0.33 0 0.66 0 1 0 C1.33 4.95 1.66 9.9 2 15 C6.95 15.33 11.9 15.66 17 16 C17 21.28 17 26.56 17 32 C12.05 32 7.1 32 2 32 C1.856 29.546 1.711 27.091 1.562 24.562 C1.876 17.659 1.876 17.659 0 16 C-0.041 10.667 -0.042 5.333 0 0 Z " fill="#978E41" transform="translate(71,40)"/>
<path d="M0 0 C5.28 0 10.56 0 16 0 C16 4.95 16 9.9 16 15 C10.72 15 5.44 15 0 15 C0 10.05 0 5.1 0 0 Z " fill="#7A7228" transform="translate(56,73)"/>
<path d="M0 0 C5.28 0 10.56 0 16 0 C16 4.95 16 9.9 16 15 C10.72 15 5.44 15 0 15 C0 10.05 0 5.1 0 0 Z " fill="#C6C3A1" transform="translate(40,73)"/>
<path d="M0 0 C4.95 0 9.9 0 15 0 C15 5.28 15 10.56 15 16 C10.05 16 5.1 16 0 16 C0 10.72 0 5.44 0 0 Z " fill="#C6C39C" transform="translate(57,56)"/>
<path d="M0 0 C0.33 0 0.66 0 1 0 C1 4.95 1 9.9 1 15 C5.95 15 10.9 15 16 15 C16 15.33 16 15.66 16 16 C11.05 16 6.1 16 1 16 C1 20.95 1 25.9 1 31 C0.67 31 0.34 31 0 31 C-0.836 20.505 -0.908 10.491 0 0 Z " fill="#A99954" transform="translate(72,57)"/>
</svg>
