<?xml version="1.0" encoding="UTF-8"?>
<!-- Generator: visioncortex VTracer 0.6.4 -->
<svg version="1.1" xmlns="http://www.w3.org/2000/svg" width="128" height="128">
<path d="M0 0 C2.31 0 4.62 0 7 0 C12.31 5.31 13.719 8.989 16 16 C17.65 15.67 19.3 15.34 21 15 C34.121 14.649 34.121 14.649 40 17 C40.392 15.474 40.784 13.947 41.188 12.375 C43 7 43 7 48 1 C51.465 0.505 51.465 0.505 55 0 C62.335 6.287 63.555 8.17 64.625 17.375 C64.927 21.908 65 26.457 65 31 C66.98 33.31 68.96 35.62 71 38 C73.935 46.804 75.34 53.031 72.312 62 C70.708 68.111 71.94 71.127 74 77 C74 84 74 84 72.438 88.875 C70.494 94.571 70.494 94.571 72 103 C72.338 114.493 72.338 114.493 70 118 C68.35 118 66.7 118 65 118 C62.339 115.339 62.409 104.451 62 101 C61.505 97.04 61.505 97.04 61 93 C61.99 91.02 62.98 89.04 64 87 C64.959 79.329 64.506 76.037 62 69 C61.67 68.67 61.34 68.34 61 68 C61 63 61 63 64 59 C66.329 52.012 64.53 47.747 62 41 C55.962 34.962 52.727 34.97 44 34 C42.02 31.36 40.04 28.72 38 26 C32.728 23.364 28.845 23.675 23 24 C16.545 26.607 16.545 26.607 13 33 C8.013 34.383 3.013 35.716 -2 37 C-7.373 41.627 -7.373 41.627 -9 48 C-9.46 55.197 -9.46 55.197 -6 62 C-5 67 -5 67 -8 74 C-8.638 83.295 -7.903 87.218 -4 96 C-4.99 98.64 -5.98 101.28 -7 104 C-7.353 107.998 -7.689 111.998 -8 116 C-8.99 116.99 -8.99 116.99 -10 118 C-15 117 -15 117 -16 116 C-16.224 108.675 -16.026 103.092 -14 96 C-14.99 93.69 -15.98 91.38 -17 89 C-17.34 80.355 -17.104 73.416 -15 65 C-15.99 62.03 -16.98 59.06 -18 56 C-18 44.533 -17.087 39.087 -9 31 C-8.575 25.006 -8.245 19.004 -8 13 C-5 5 -5 5 0 0 Z M3 8 C-0.069 15.161 -0.257 19.361 0 27 C6.4 26.8 6.4 26.8 8 25 C8.369 17.526 8.369 17.526 5 9 C4.34 8.67 3.68 8.34 3 8 Z M52 8 C49.033 14.922 48.728 18.659 49 26 C51.31 26.33 53.62 26.66 56 27 C56.572 17.017 56.572 17.017 53 8 C52.67 8 52.34 8 52 8 Z " fill="#DFDFDF" transform="translate(36,5)"/>
<path d="M0 0 C8 4 8 4 12 9 C13 12 13 12 13 19 C10 24 10 24 5 28 C-5.22 30.271 -10.671 30.664 -20 26 C-25 20 -25 20 -25 11 C-17.963 0.444 -12.004 -0.594 0 0 Z M-17 10 C-17.66 10.66 -18.32 11.32 -19 12 C-19 13.98 -19 15.96 -19 18 C-15.049 22.599 -15.049 22.599 -8 24 C0.672 23.669 0.672 23.669 6 20 C6.33 17.69 6.66 15.38 7 13 C2.898 7.007 2.898 7.007 -1 6 C-10.815 5.075 -10.815 5.075 -17 10 Z " fill="#CFCFCF" transform="translate(70,54)"/>
<path d="M0 0 C1.98 0 3.96 0 6 0 C8 2 8 2 8 8 C7.34 8.66 6.68 9.32 6 10 C3.69 9.67 1.38 9.34 -1 9 C-2 3 -2 3 0 0 Z " fill="#D0D0D0" transform="translate(84,55)"/>
<path d="M0 0 C2.31 0.33 4.62 0.66 7 1 C7.33 2.98 7.66 4.96 8 7 C7.01 7.99 6.02 8.98 5 10 C3.35 10 1.7 10 0 10 C-0.66 9.34 -1.32 8.68 -2 8 C-2 2 -2 2 0 0 Z " fill="#D1D1D1" transform="translate(38,55)"/>
<path d="M0 0 C0.66 1.32 1.32 2.64 2 4 C1.34 4.66 0.68 5.32 0 6 C-0.33 7.32 -0.66 8.64 -1 10 C-2.65 9.67 -4.3 9.34 -6 9 C-8 4 -8 4 -8 1 C-6 0 -6 0 0 0 Z " fill="#BBBBBB" transform="translate(67,64)"/>
</svg>
