<?xml version="1.0" encoding="UTF-8"?>
<!-- Generator: visioncortex VTracer 0.6.4 -->
<svg version="1.1" xmlns="http://www.w3.org/2000/svg" width="128" height="128">
<path d="M0 0 C7.003 4.284 13.358 8.645 18.312 15.25 C18.312 15.91 18.312 16.57 18.312 17.25 C18.972 17.25 19.632 17.25 20.312 17.25 C28.462 30.832 32.882 41.312 32.812 57.25 C32.828 60.777 32.828 60.777 32.844 64.375 C32.055 74.579 28.868 82.139 24.312 91.25 C23.653 91.25 22.993 91.25 22.312 91.25 C21.653 93.23 20.993 95.21 20.312 97.25 C19.653 97.25 18.993 97.25 18.312 97.25 C18.312 97.91 18.312 98.57 18.312 99.25 C17.653 99.25 16.993 99.25 16.312 99.25 C15.323 101.23 15.323 101.23 14.312 103.25 C12.993 104.57 11.672 105.89 10.312 107.25 C9.653 107.25 8.993 107.25 8.312 107.25 C8.312 107.91 8.312 108.57 8.312 109.25 C-10.138 120.32 -24.341 122.67 -45.688 121.25 C-59.43 117.707 -73.005 110.827 -81.688 99.25 C-81.688 98.59 -81.688 97.93 -81.688 97.25 C-82.347 97.25 -83.007 97.25 -83.688 97.25 C-95.076 78.459 -99.286 60.173 -94.355 38.355 C-90.695 27.15 -84.917 18.592 -76.688 10.25 C-75.512 9.054 -74.336 7.857 -73.125 6.625 C-51.573 -9.766 -24.098 -11.652 0 0 Z " fill="#4E318D" transform="translate(95.6875,6.75)"/>
<path d="M0 0 C4.74 3.865 7.372 6.793 10.062 12.312 C11.328 24.855 8.774 33.481 1.125 43.438 C-4.792 49.135 -11.198 53.632 -17.938 58.312 C-19.588 59.963 -21.237 61.612 -22.938 63.312 C-21.271 67.646 -21.271 67.646 -16.938 69.312 C-6.427 69.312 0.372 65 8.062 58.312 C10.043 55.672 12.022 53.032 14.062 50.312 C15.713 50.642 17.362 50.972 19.062 51.312 C16.97 61.774 11.513 68.862 4.062 76.312 C-4.969 81.957 -9.453 84.004 -19.938 83.312 C-27.842 79.36 -31.446 76.799 -35.938 69.312 C-36.928 70.302 -36.928 70.302 -37.938 71.312 C-40.413 72.302 -40.413 72.302 -42.938 73.312 C-42.608 74.632 -42.278 75.953 -41.938 77.312 C-42.267 78.632 -42.597 79.953 -42.938 81.312 C-52.119 79.476 -56.635 73.736 -61.938 66.312 C-65.585 55.369 -64.598 47.798 -59.938 37.312 C-57.957 34.672 -55.977 32.032 -53.938 29.312 C-54.597 29.312 -55.258 29.312 -55.938 29.312 C-56.267 27.333 -56.597 25.352 -56.938 23.312 C-59.413 25.787 -59.413 25.787 -61.938 28.312 C-65.938 26.312 -65.938 26.312 -67.938 22.312 C-62.786 10.589 -54.093 2.319 -42.938 -3.688 C-27.74 -8.699 -14.106 -7.678 0 0 Z " fill="#533C9A" transform="translate(87.9375,25.6875)"/>
<path d="M0 0 C4.74 3.865 7.372 6.793 10.062 12.312 C11.328 24.855 8.774 33.481 1.125 43.438 C-4.792 49.135 -11.198 53.632 -17.938 58.312 C-19.588 59.963 -21.237 61.612 -22.938 63.312 C-21.271 67.646 -21.271 67.646 -16.938 69.312 C-6.427 69.312 0.372 65 8.062 58.312 C10.043 55.672 12.022 53.032 14.062 50.312 C15.713 50.642 17.362 50.972 19.062 51.312 C16.97 61.774 11.513 68.862 4.062 76.312 C-4.969 81.957 -9.453 84.004 -19.938 83.312 C-27.842 79.36 -31.446 76.799 -35.938 69.312 C-36.536 61.187 -36.554 58.238 -31.938 51.312 C-27.533 46.515 -23.121 42.706 -17.875 38.812 C-7.993 31.414 -7.993 31.414 -3.938 20.312 C-10.356 11.465 -10.356 11.465 -19.938 7.312 C-33.916 6.647 -43.372 9.552 -54.938 17.312 C-57.248 19.623 -59.558 21.933 -61.938 24.312 C-63.587 23.983 -65.237 23.653 -66.938 23.312 C-64.809 12.67 -56.987 5.12 -48.25 -0.938 C-32.197 -9.247 -15.802 -8.601 0 0 Z " fill="#B0AAD3" transform="translate(87.9375,25.6875)"/>
<path d="M0 0 C4.74 3.865 7.372 6.793 10.062 12.312 C11.074 22.333 9.686 29.381 5.062 38.312 C3.743 39.303 2.422 40.292 1.062 41.312 C0.403 40.653 -0.257 39.993 -0.938 39.312 C-0.642 35.643 -0.308 31.976 0.062 28.312 C-0.267 27.322 -0.597 26.333 -0.938 25.312 C-1.597 25.312 -2.257 25.312 -2.938 25.312 C-3.597 23.002 -4.257 20.692 -4.938 18.312 C-11.263 10.75 -11.263 10.75 -19.938 7.312 C-33.916 6.647 -43.372 9.552 -54.938 17.312 C-57.248 19.623 -59.558 21.933 -61.938 24.312 C-63.587 23.983 -65.237 23.653 -66.938 23.312 C-64.809 12.67 -56.987 5.12 -48.25 -0.938 C-32.197 -9.247 -15.802 -8.601 0 0 Z " fill="#E4E1F0" transform="translate(87.9375,25.6875)"/>
<path d="M0 0 C0.99 0.66 1.98 1.32 3 2 C3 3.98 3 5.96 3 8 C-2 13 -2 13 -8.438 18.25 C-14.399 23.473 -18.482 27.963 -22 35 C-22.625 44.794 -20.985 51.11 -17 60 C-17.33 61.32 -17.66 62.64 -18 64 C-27.182 62.164 -31.697 56.424 -37 49 C-40.648 38.056 -39.66 30.485 -35 20 C-26.319 7.068 -15.684 0 0 0 Z " fill="#CECAE3" transform="translate(63,43)"/>
<path d="M0 0 C3 1 3 1 5 5 C4.34 7.97 3.68 10.94 3 14 C3.66 14.33 4.32 14.66 5 15 C5.33 15.99 5.66 16.98 6 18 C-0.366 23.911 -6.804 29.138 -14 34 C-15.32 34.99 -16.64 35.98 -18 37 C-18 34.333 -18 31.667 -18 29 C-18.99 29.33 -19.98 29.66 -21 30 C-20.01 26.535 -20.01 26.535 -19 23 C-18.34 23 -17.68 23 -17 23 C-17 21.02 -17 19.04 -17 17 C-13.75 14.233 -10.405 11.574 -7 9 C-3.113 4.757 -3.113 4.757 0 0 Z " fill="#BCB7D9" transform="translate(84,50)"/>
<path d="M0 0 C0.66 0.33 1.32 0.66 2 1 C1.67 2.32 1.34 3.64 1 5 C0.34 5 -0.32 5 -1 5 C-1.33 6.98 -1.66 8.96 -2 11 C-1.34 11 -0.68 11 0 11 C1.547 17.189 -0.822 20.703 -4 26 C-4.118 29.665 -4.132 33.336 -4 37 C-9 35 -9 35 -14 27 C-14.753 18.799 -14.651 15.976 -10 9 C-2.667 1.333 -2.667 1.333 0 0 Z " fill="#EEECF5" transform="translate(66,68)"/>
<path d="M0 0 C0.66 0 1.32 0 2 0 C2 10.32 -1.413 17.826 -6 27 C-6.66 27 -7.32 27 -8 27 C-8.66 28.98 -9.32 30.96 -10 33 C-10.66 33 -11.32 33 -12 33 C-12 33.66 -12 34.32 -12 35 C-12.66 35 -13.32 35 -14 35 C-14.66 36.32 -15.32 37.64 -16 39 C-17.32 40.32 -18.64 41.64 -20 43 C-20.66 43 -21.32 43 -22 43 C-22 43.66 -22 44.32 -22 45 C-35.319 52.991 -45.324 57.682 -61 57 C-54.509 52.132 -48.933 52.914 -41 53 C-41 52.34 -41 51.68 -41 51 C-30.375 46 -30.375 46 -27 46 C-27 45.01 -27 44.02 -27 43 C-19.114 36.371 -19.114 36.371 -15 35 C-14.34 33.68 -13.68 32.36 -13 31 C-12.01 30.01 -11.02 29.02 -10 28 C-10 27.01 -10 26.02 -10 25 C-9.34 24.67 -8.68 24.34 -8 24 C-7.34 21.69 -6.68 19.38 -6 17 C-6.66 16.01 -7.32 15.02 -8 14 C-6.02 14 -4.04 14 -2 14 C-2.041 12.247 -2.083 10.494 -2.125 8.688 C-2 3 -2 3 0 0 Z " fill="#181339" transform="translate(126,71)"/>
<path d="M0 0 C4.875 1.25 4.875 1.25 10 3 C10.66 4.32 11.32 5.64 12 7 C10.391 7.804 8.782 8.609 7.125 9.438 C0.818 12.813 0.818 12.813 -4.375 17.938 C-5.901 19.278 -7.428 20.619 -9 22 C-10.65 21.67 -12.3 21.34 -14 21 C-12.157 11.784 -6.557 6.557 0 0 Z " fill="#C3BBDE" transform="translate(35,28)"/>
<path d="M0 0 C1.65 0.33 3.3 0.66 5 1 C3.017 10.914 -1.982 17.867 -9 25 C-9.66 25 -10.32 25 -11 25 C-11 22 -11 22 -9 20 C-10.32 19.01 -11.64 18.02 -13 17 C-13 16.01 -13 15.02 -13 14 C-10.342 11.657 -7.674 9.325 -5 7 C-3.35 4.69 -1.7 2.38 0 0 Z " fill="#E1DEEF" transform="translate(102,76)"/>
<path d="M0 0 C-1 4 -1 4 -5 8 C-4.67 10.31 -4.34 12.62 -4 15 C-7.465 16.485 -7.465 16.485 -11 18 C-11.33 16.02 -11.66 14.04 -12 12 C-13.65 13.65 -15.3 15.3 -17 17 C-21 15 -21 15 -23 11 C-20.03 11.495 -20.03 11.495 -17 12 C-14.69 9.69 -12.38 7.38 -10 5 C-2 0 -2 0 0 0 Z " fill="#65369F" transform="translate(43,37)"/>
<path d="M0 0 C4.875 1.25 4.875 1.25 10 3 C10.66 4.32 11.32 5.64 12 7 C8.701 8.734 5.366 10.399 2 12 C1.34 11.67 0.68 11.34 0 11 C0.33 10.34 0.66 9.68 1 9 C-1.64 8.67 -4.28 8.34 -7 8 C-1 1 -1 1 0 0 Z " fill="#D0C8E7" transform="translate(35,28)"/>
<path d="M0 0 C3 1 3 1 5 5 C4.34 7.97 3.68 10.94 3 14 C3.66 14.33 4.32 14.66 5 15 C5.33 15.99 5.66 16.98 6 18 C3.03 20.64 0.06 23.28 -3 26 C-3.66 25.34 -4.32 24.68 -5 24 C-3.68 23.34 -2.36 22.68 -1 22 C0.186 13.855 0.186 13.855 0 5 C-1.65 6.98 -3.3 8.96 -5 11 C-5.66 10.34 -6.32 9.68 -7 9 C-5.02 6.69 -3.04 4.38 -1 2 C-0.67 1.34 -0.34 0.68 0 0 Z " fill="#A09AC7" transform="translate(84,50)"/>
<path d="M0 0 C0 0.99 0 1.98 0 3 C-0.66 3 -1.32 3 -2 3 C-2 6.3 -2 9.6 -2 13 C-0.68 13 0.64 13 2 13 C2 13.66 2 14.32 2 15 C1.01 15.495 1.01 15.495 0 16 C-0.33 18.31 -0.66 20.62 -1 23 C-5.675 18.325 -5.989 14.216 -6.312 7.75 C-6.209 5.853 -6.106 3.955 -6 2 C-3 0 -3 0 0 0 Z M2 10 C2.66 10.66 3.32 11.32 4 12 C3.01 12.495 3.01 12.495 2 13 C2 12.01 2 11.02 2 10 Z " fill="#F4F3F7" transform="translate(30,72)"/>
<path d="M0 0 C0.66 0.33 1.32 0.66 2 1 C1.67 2.32 1.34 3.64 1 5 C0.34 5 -0.32 5 -1 5 C-1.33 6.98 -1.66 8.96 -2 11 C-1.34 11 -0.68 11 0 11 C1 15 1 15 -1 21 C-1.99 21 -2.98 21 -4 21 C-4.33 20.01 -4.66 19.02 -5 18 C-4.34 18 -3.68 18 -3 18 C-3.66 17.01 -4.32 16.02 -5 15 C-6 8 -6 8 -3 2 C-2.01 1.34 -1.02 0.68 0 0 Z " fill="#DEDBED" transform="translate(66,68)"/>
<path d="M0 0 C0 0.66 0 1.32 0 2 C-2.475 3.485 -2.475 3.485 -5 5 C-5.99 5.99 -6.98 6.98 -8 8 C-10.475 9.485 -10.475 9.485 -13 11 C-13.99 12.485 -13.99 12.485 -15 14 C-15.66 14 -16.32 14 -17 14 C-14.744 7.231 -12.538 5.279 -7 1 C-3 0 -3 0 0 0 Z " fill="#752EA2" transform="translate(34,9)"/>
<path d="M0 0 C4 2 4 2 9 7 C9 7.66 9 8.32 9 9 C10.32 9.33 11.64 9.66 13 10 C15.31 11.65 17.62 13.3 20 15 C20 15.99 20 16.98 20 18 C12.587 15.035 6.79 10.387 2 4 C2 3.34 2 2.68 2 2 C1.34 2 0.68 2 0 2 C0 1.34 0 0.68 0 0 Z " fill="#2D2554" transform="translate(12,102)"/>
<path d="M0 0 C0.99 0 1.98 0 3 0 C3.99 1.32 4.98 2.64 6 4 C5.01 5.65 4.02 7.3 3 9 C1.35 9.33 -0.3 9.66 -2 10 C-3 6 -3 6 0 0 Z " fill="#BAAFD9" transform="translate(24,40)"/>
<path d="M0 0 C1.485 0.99 1.485 0.99 3 2 C3.99 1.67 4.98 1.34 6 1 C6.99 1.33 7.98 1.66 9 2 C10 5 11 8 12 11 C7 9 7 9 0 3 C0 2.01 0 1.02 0 0 Z " fill="#DDDAED" transform="translate(29,94)"/>
<path d="M0 0 C0.66 0.99 1.32 1.98 2 3 C-1.342 9.685 -7.315 15.658 -14 19 C-11.439 13.878 -7.805 10.266 -4 6 C-2.68 4.02 -1.36 2.04 0 0 Z " fill="#352B6A" transform="translate(104,86)"/>
<path d="M0 0 C-4.561 4.561 -5.883 3.999 -12.688 4.062 C-14.771 4.042 -16.854 4.021 -19 4 C-12.745 -0.691 -7.644 -0.091 0 0 Z " fill="#1E173F" transform="translate(84,124)"/>
<path d="M0 0 C0 3 0 3 -5 9 C-5 10.32 -5 11.64 -5 13 C-10 14 -10 14 -12 13 C-12 12.01 -12 11.02 -12 10 C-9.049 7.605 -6.045 5.274 -3 3 C-2.01 2.01 -1.02 1.02 0 0 Z " fill="#45398A" transform="translate(90,67)"/>
<path d="M0 0 C6 1 6 1 7 2 C7 3.98 7 5.96 7 8 C2 13 2 13 -5 18 C-3 13 -3 13 4 9 C4.33 7.02 4.66 5.04 5 3 C4.34 3 3.68 3 3 3 C3 2.34 3 1.68 3 1 C2.01 0.67 1.02 0.34 0 0 Z " fill="#9A8DCA" transform="translate(59,43)"/>
<path d="M0 0 C-2.475 1.485 -2.475 1.485 -5 3 C-5.66 4.32 -6.32 5.64 -7 7 C-7.66 7 -8.32 7 -9 7 C-9.33 6.34 -9.66 5.68 -10 5 C-10.99 5 -11.98 5 -13 5 C-13 4.34 -13 3.68 -13 3 C-4 -1 -4 -1 0 0 Z " fill="#782EA8" transform="translate(49,4)"/>
<path d="M0 0 C0.66 0 1.32 0 2 0 C2 7 2 7 -1 13 C-1.33 13 -1.66 13 -2 13 C-2 3 -2 3 0 0 Z " fill="#211A49" transform="translate(126,71)"/>
<path d="M0 0 C1.65 0.33 3.3 0.66 5 1 C4 6 4 6 1 10 C0.01 8.35 -0.98 6.7 -2 5 C-1.34 3.35 -0.68 1.7 0 0 Z M0 4 C0.66 4.66 1.32 5.32 2 6 C2 5.34 2 4.68 2 4 C1.34 4 0.68 4 0 4 Z " fill="#EFEEF5" transform="translate(102,76)"/>
<path d="M0 0 C0.99 0.99 1.98 1.98 3 3 C2.34 3.66 1.68 4.32 1 5 C1 8.3 1 11.6 1 15 C0.01 14.67 -0.98 14.34 -2 14 C-2 4 -2 4 0 0 Z " fill="#9E97C5" transform="translate(63,90)"/>
<path d="M0 0 C0.66 0.33 1.32 0.66 2 1 C0.02 3.97 0.02 3.97 -2 7 C-2.66 8.65 -3.32 10.3 -4 12 C-5.485 12.99 -5.485 12.99 -7 14 C-6 8 -6 8 0 0 Z " fill="#EDE4F5" transform="translate(32,58)"/>
<path d="M0 0 C-0.33 0.66 -0.66 1.32 -1 2 C-1.99 2.33 -2.98 2.66 -4 3 C-4.66 3.66 -5.32 4.32 -6 5 C-8.31 5.33 -10.62 5.66 -13 6 C-13.33 5.34 -13.66 4.68 -14 4 C-5 0 -5 0 0 0 Z " fill="#B2A4D5" transform="translate(58,43)"/>
<path d="M0 0 C7.16 1.193 14.024 3.007 21 5 C21 5.33 21 5.66 21 6 C13.01 6 7.415 3.825 0 1 C0 0.67 0 0.34 0 0 Z " fill="#1D183D" transform="translate(36,122)"/>
<path d="M0 0 C0 2.64 0 5.28 0 8 C-1.32 7.67 -2.64 7.34 -4 7 C-4.66 5.68 -5.32 4.36 -6 3 C-1 0 -1 0 0 0 Z " fill="#45398C" transform="translate(70,86)"/>
<path d="M0 0 C0.66 0.33 1.32 0.66 2 1 C1.67 2.65 1.34 4.3 1 6 C0.961 9.666 0.956 13.334 1 17 C0.01 16.67 -0.98 16.34 -2 16 C-2.25 5.625 -2.25 5.625 0 0 Z " fill="#E7E4F6" transform="translate(61,88)"/>
<path d="M0 0 C1.65 0.33 3.3 0.66 5 1 C0 6 0 6 -3 8 C-4.32 7.67 -5.64 7.34 -7 7 C-5.02 6.34 -3.04 5.68 -1 5 C-0.67 3.35 -0.34 1.7 0 0 Z " fill="#40357D" transform="translate(87,86)"/>
<path d="M0 0 C0.66 0 1.32 0 2 0 C2 1.32 2 2.64 2 4 C2.66 4 3.32 4 4 4 C4 4.66 4 5.32 4 6 C1.69 6.66 -0.62 7.32 -3 8 C-2.67 6.02 -2.34 4.04 -2 2 C-1.34 2 -0.68 2 0 2 C0 1.34 0 0.68 0 0 Z " fill="#772DA6" transform="translate(7,36)"/>
<path d="M0 0 C0.99 0.33 1.98 0.66 3 1 C2.67 1.66 2.34 2.32 2 3 C1.01 3.33 0.02 3.66 -1 4 C-1.33 4.99 -1.66 5.98 -2 7 C-3.65 6.67 -5.3 6.34 -7 6 C-2 1 -2 1 0 0 Z " fill="#DDD6F0" transform="translate(43,23)"/>
<path d="M0 0 C0 3.3 0 6.6 0 10 C-0.99 9.67 -1.98 9.34 -3 9 C-3 6.36 -3 3.72 -3 1 C-1 0 -1 0 0 0 Z " fill="#DEDCEB" transform="translate(39,80)"/>
<path d="M0 0 C0.99 1.32 1.98 2.64 3 4 C2.34 6.97 1.68 9.94 1 13 C1.66 13.33 2.32 13.66 3 14 C2.01 14.33 1.02 14.66 0 15 C0 10.05 0 5.1 0 0 Z " fill="#C5BFE1" transform="translate(86,51)"/>
<path d="M0 0 C1.65 0 3.3 0 5 0 C5.33 0.66 5.66 1.32 6 2 C5.67 2.66 5.34 3.32 5 4 C6.65 3.67 8.3 3.34 10 3 C10 3.66 10 4.32 10 5 C7.69 5 5.38 5 3 5 C3 4.01 3 3.02 3 2 C1.68 1.67 0.36 1.34 -1 1 C-0.67 0.67 -0.34 0.34 0 0 Z " fill="#5C37A0" transform="translate(82,4)"/>
<path d="M0 0 C2 2 2 2 4 7 C3.67 7.99 3.34 8.98 3 10 C1.35 8.68 -0.3 7.36 -2 6 C-1.34 4.02 -0.68 2.04 0 0 Z " fill="#2A2254" transform="translate(122,36)"/>
<path d="M0 0 C-3 2 -3 2 -6 2 C-6 2.66 -6 3.32 -6 4 C-8.31 4 -10.62 4 -13 4 C-8.16 0.37 -6.023 0 0 0 Z " fill="#2E2364" transform="translate(78,124)"/>
<path d="M0 0 C-1.485 1.485 -1.485 1.485 -3 3 C-5.97 3 -8.94 3 -12 3 C-11.67 2.34 -11.34 1.68 -11 1 C-5 0 -5 0 0 0 Z " fill="#682D95" transform="translate(62,0)"/>
<path d="M0 0 C0.99 0.66 1.98 1.32 3 2 C-0.465 4.97 -0.465 4.97 -4 8 C-4 6.68 -4 5.36 -4 4 C-2.68 3.67 -1.36 3.34 0 3 C0 2.01 0 1.02 0 0 Z " fill="#CAC4E8" transform="translate(70,79)"/>
<path d="M0 0 C2.475 0.99 2.475 0.99 5 2 C3.68 3.65 2.36 5.3 1 7 C0.34 7 -0.32 7 -1 7 C-0.67 4.69 -0.34 2.38 0 0 Z " fill="#B2ACD9" transform="translate(85,65)"/>
<path d="M0 0 C0.66 0.33 1.32 0.66 2 1 C-0.31 3.31 -2.62 5.62 -5 8 C-5.99 7.67 -6.98 7.34 -8 7 C-5.36 4.69 -2.72 2.38 0 0 Z " fill="#D7CAEC" transform="translate(40,50)"/>
<path d="M0 0 C0.66 0.33 1.32 0.66 2 1 C-0.81 5.215 -4.549 6.775 -9 9 C-3 2 -3 2 0 0 Z " fill="#2E1341" transform="translate(27,10)"/>
<path d="M0 0 C0.99 0.99 1.98 1.98 3 3 C2.34 4.32 1.68 5.64 1 7 C-0.32 6.34 -1.64 5.68 -3 5 C-1 1 -1 1 0 0 Z " fill="#D3CEE9" transform="translate(91,88)"/>
<path d="M0 0 C1.32 0.33 2.64 0.66 4 1 C3.01 1.33 2.02 1.66 1 2 C-0.65 3.98 -2.3 5.96 -4 8 C-4.33 7.01 -4.66 6.02 -5 5 C-3.35 3.35 -1.7 1.7 0 0 Z " fill="#3C3374" transform="translate(102,74)"/>
<path d="M0 0 C3 1 3 1 5 5 C4.34 5.66 3.68 6.32 3 7 C1.68 5.68 0.36 4.36 -1 3 C-0.67 2.01 -0.34 1.02 0 0 Z " fill="#533E9A" transform="translate(24,91)"/>
<path d="M0 0 C0.99 0.33 1.98 0.66 3 1 C0.03 3.475 0.03 3.475 -3 6 C-3.66 6.66 -4.32 7.32 -5 8 C-5.33 6.68 -5.66 5.36 -6 4 C-4.35 3.01 -2.7 2.02 -1 1 C-0.67 0.67 -0.34 0.34 0 0 Z " fill="#BAB1DC" transform="translate(51,61)"/>
<path d="M0 0 C1.65 0.33 3.3 0.66 5 1 C2 3 2 3 -4 5 C-4.33 4.01 -4.66 3.02 -5 2 C-3.35 2 -1.7 2 0 2 C0 1.34 0 0.68 0 0 Z " fill="#6E36A0" transform="translate(46,19)"/>
<path d="M0 0 C0.66 0 1.32 0 2 0 C1.67 1.65 1.34 3.3 1 5 C-0.65 4.67 -2.3 4.34 -4 4 C-2.68 2.68 -1.36 1.36 0 0 Z " fill="#C9C3E6" transform="translate(71,64)"/>
<path d="M0 0 C0.33 0.66 0.66 1.32 1 2 C-0.65 3.98 -2.3 5.96 -4 8 C-4.66 7.34 -5.32 6.68 -6 6 C-4.02 4.02 -2.04 2.04 0 0 Z " fill="#ABA2D9" transform="translate(83,53)"/>
<path d="M0 0 C1.32 0 2.64 0 4 0 C3.34 1.65 2.68 3.3 2 5 C1.34 4.67 0.68 4.34 0 4 C-0.66 4.66 -1.32 5.32 -2 6 C-1 1 -1 1 0 0 Z " fill="#762DA2" transform="translate(13,25)"/>
<path d="M0 0 C0.33 0.99 0.66 1.98 1 3 C0.01 4.98 -0.98 6.96 -2 9 C-2.33 9 -2.66 9 -3 9 C-3 7.02 -3 5.04 -3 3 C-2.01 2.01 -1.02 1.02 0 0 Z " fill="#13102A" transform="translate(125,82)"/>
<path d="M0 0 C0.66 0.33 1.32 0.66 2 1 C1.67 2.32 1.34 3.64 1 5 C-0.65 4.67 -2.3 4.34 -4 4 C-2.68 2.68 -1.36 1.36 0 0 Z " fill="#D6D1EC" transform="translate(66,68)"/>
<path d="M0 0 C0.33 0.99 0.66 1.98 1 3 C1.99 3.33 2.98 3.66 4 4 C4 4.66 4 5.32 4 6 C2.35 5.67 0.7 5.34 -1 5 C-0.67 3.35 -0.34 1.7 0 0 Z " fill="#B19FD4" transform="translate(22,44)"/>
<path d="M0 0 C0.33 0.66 0.66 1.32 1 2 C0.34 3.32 -0.32 4.64 -1 6 C-2.32 6.33 -3.64 6.66 -5 7 C-3 3 -3 3 0 0 Z " fill="#3A1852" transform="translate(17,19)"/>
</svg>
