<?xml version="1.0" encoding="UTF-8"?>
<!-- Generator: visioncortex VTracer 0.6.4 -->
<svg version="1.1" xmlns="http://www.w3.org/2000/svg" width="128" height="128">
<path d="M0 0 C14.215 7.619 28.107 15.812 42 24 C43.745 24.748 45.49 25.496 47.289 26.267 C52 30 52 30 53.135 36.74 C53.083 39.473 53.031 42.207 52.977 45.023 C52.944 47.982 52.912 50.94 52.879 53.988 C52.753 58.635 52.753 58.635 52.625 63.375 C52.58 66.496 52.535 69.617 52.488 72.832 C52.37 80.557 52.206 88.277 52 96 C50.146 97.055 48.291 98.11 46.38 99.197 C31.904 107.447 17.527 115.821 3.289 124.477 C-2 127 -2 127 -8 125 C-11.615 122.994 -15.194 120.922 -18.75 118.812 C-31.775 111.107 -44.885 103.551 -58 96 C-58.699 85.295 -59.124 74.596 -59.5 63.875 C-59.701 60.844 -59.902 57.814 -60.109 54.691 C-60.342 45.879 -60.246 38.533 -58 30 C-50.928 22.921 -43.215 19.64 -34 16 C-31.384 14.489 -28.769 12.978 -26.074 11.422 C-21.762 8.943 -17.449 6.463 -13.137 3.984 C-4.671 -0.934 -4.671 -0.934 0 0 Z " fill="#478ECA" transform="translate(67,1)"/>
<path d="M0 0 C14.215 7.619 28.107 15.812 42 24 C43.745 24.748 45.49 25.496 47.289 26.267 C52 30 52 30 53.135 36.74 C53.083 39.473 53.031 42.207 52.977 45.023 C52.944 47.982 52.912 50.94 52.879 53.988 C52.753 58.635 52.753 58.635 52.625 63.375 C52.58 66.496 52.535 69.617 52.488 72.832 C52.37 80.557 52.206 88.277 52 96 C50.146 97.055 48.291 98.11 46.38 99.197 C31.904 107.447 17.527 115.821 3.289 124.477 C-2 127 -2 127 -8 125 C-11.615 122.994 -15.194 120.922 -18.75 118.812 C-31.775 111.107 -44.885 103.551 -58 96 C-58.699 85.295 -59.124 74.596 -59.5 63.875 C-59.701 60.844 -59.902 57.814 -60.109 54.691 C-60.342 45.879 -60.246 38.533 -58 30 C-50.928 22.921 -43.215 19.64 -34 16 C-31.384 14.489 -28.769 12.978 -26.074 11.422 C-21.762 8.943 -17.449 6.463 -13.137 3.984 C-4.671 -0.934 -4.671 -0.934 0 0 Z M-14.039 10.023 C-22.271 14.962 -30.625 19.688 -38.961 24.449 C-40.954 25.621 -42.947 26.793 -45 28 C-46.58 28.797 -48.16 29.593 -49.787 30.414 C-54.563 33.746 -54.563 33.746 -55.276 39.847 C-55.455 47.485 -55.572 55.11 -55.562 62.75 C-55.656 65.405 -55.749 68.061 -55.846 70.797 C-55.877 78.21 -55.67 84.775 -54 92 C-46.969 98.807 -46.969 98.807 -38 102 C-35.94 103.191 -33.88 104.382 -31.758 105.609 C-28.97 107.164 -28.97 107.164 -26.125 108.75 C-20.531 111.874 -14.995 115.003 -9.555 118.391 C-5.296 121.331 -5.296 121.331 -1 121 C-1 120.34 -1 119.68 -1 119 C1.97 118.01 1.97 118.01 5 117 C9.335 114.336 13.668 111.669 18 109 C22.667 106.667 27.333 104.333 32 102 C36.346 99.354 40.683 96.693 45 94 C45.99 93.67 46.98 93.34 48 93 C48.465 83.377 48.749 73.756 49 64.125 C49.134 61.395 49.268 58.665 49.406 55.852 C49.555 48.268 49.486 41.441 48 34 C41.135 27.187 41.135 27.187 32 24 C29.533 22.569 27.065 21.138 24.523 19.664 C22.164 18.331 19.805 16.998 17.375 15.625 C10.775 11.894 4.308 8.205 -2 4 C-6.457 4 -10.316 7.755 -14.039 10.023 Z " fill="#316A98" transform="translate(67,1)"/>
<path d="M0 0 C1.32 0.33 2.64 0.66 4 1 C3 8 3 8 -1 15 C1.475 15.495 1.475 15.495 4 16 C3.38 20.34 2.721 24.675 2 29 C2.66 29 3.32 29 4 29 C4.66 27.35 5.32 25.7 6 24 C7.98 19.545 7.98 19.545 10 15 C11.32 14.67 12.64 14.34 14 14 C13.34 16.31 12.68 18.62 12 21 C12 22.98 12 24.96 12 27 C16.356 20.11 16.356 20.11 18 12 C20.475 12.495 20.475 12.495 23 13 C26.465 12.505 26.465 12.505 30 12 C30 15.96 30 19.92 30 24 C33.562 19.641 33.562 19.641 36 12 C36.66 11.34 37.32 10.68 38 10 C38.99 10 39.98 10 41 10 C40.01 12.97 39.02 15.94 38 19 C37.67 20.98 37.34 22.96 37 25 C41.61 20.39 43.451 15.948 46 10 C47.32 10.33 48.64 10.66 50 11 C48.68 15.62 47.36 20.24 46 25 C48.64 23.02 51.28 21.04 54 19 C54.99 19 55.98 19 57 19 C55.067 28.666 47.234 34.799 40 41 C31.116 43.961 23.268 44.933 14 46 C1.889 48.422 -4.386 51.848 -12 62 C-14.31 60.02 -16.62 58.04 -19 56 C-24.347 52.704 -27.749 51.042 -34 50 C-23.496 42.122 -8.03 41.929 4.688 41.625 C25.329 41.404 25.329 41.404 44 34 C46.719 31.048 49.395 28.054 52 25 C47.684 26.895 47.684 26.895 44 31 C42.35 32.65 40.7 34.3 39 36 C33 36 33 36 31 35 C32 31 32 31 34 29 C36.31 28.67 38.62 28.34 41 28 C41 27.01 41 26.02 41 25 C39.68 25.99 38.36 26.98 37 28 C35.515 27.505 35.515 27.505 34 27 C34 26.01 34 25.02 34 24 C33.34 24 32.68 24 32 24 C31.34 25.32 30.68 26.64 30 28 C28.02 28.99 28.02 28.99 26 30 C25 29 25 29 24.875 23.688 C25 18 25 18 26 14 C21.2 18.8 20.548 22.5 19 29 C17.35 29.33 15.7 29.66 14 30 C13.01 30.66 12.02 31.32 11 32 C9.68 31.67 8.36 31.34 7 31 C6.505 29.515 6.505 29.515 6 28 C4.68 29.65 3.36 31.3 2 33 C0.68 33 -0.64 33 -2 33 C-2 23 -2 23 0 18 C-0.99 18.33 -1.98 18.66 -3 19 C-7.142 27.307 -7.142 27.307 -8 34 C-9.65 34 -11.3 34 -13 34 C-7.6 7.6 -7.6 7.6 0 0 Z " fill="#E3EEF5" transform="translate(53,34)"/>
<path d="M0 0 C2.916 0.009 5.832 0.018 8.836 0.027 C11.076 0.039 13.317 0.051 15.625 0.062 C15.625 0.722 15.625 1.382 15.625 2.062 C12.696 2.619 9.767 3.176 6.75 3.75 C-4.979 6.244 -11.408 8.768 -19.375 18.062 C-20.035 18.722 -20.695 19.382 -21.375 20.062 C-22.695 18.412 -24.015 16.763 -25.375 15.062 C-31.252 11.509 -35.573 9.196 -42.375 8.062 C-30.822 -0.602 -13.805 -0.055 0 0 Z " fill="#EAF2F8" transform="translate(61.375,75.9375)"/>
<path d="M0 0 C-1.933 9.666 -9.766 15.799 -17 22 C-26 25 -26 25 -33 25 C-33 24.34 -33 23.68 -33 23 C-34.65 23 -36.3 23 -38 23 C-38 22.67 -38 22.34 -38 22 C-33.247 21.349 -28.495 20.698 -23.742 20.047 C-15.008 18.119 -10.584 12.547 -5 6 C-9.316 7.895 -9.316 7.895 -13 12 C-14.65 13.65 -16.3 15.3 -18 17 C-24 17 -24 17 -26 16 C-25 12 -25 12 -23 10 C-19.535 9.505 -19.535 9.505 -16 9 C-15.34 7.68 -14.68 6.36 -14 5 C-13.34 5 -12.68 5 -12 5 C-12 5.66 -12 6.32 -12 7 C-10.577 5.845 -9.154 4.69 -7.688 3.5 C-3 0 -3 0 0 0 Z " fill="#DCEAF3" transform="translate(110,53)"/>
<path d="M0 0 C2.97 0.33 5.94 0.66 9 1 C9.33 2.65 9.66 4.3 10 6 C9.01 6.66 8.02 7.32 7 8 C6.34 6.35 5.68 4.7 5 3 C3.68 3 2.36 3 1 3 C0.3 10.733 0.3 10.733 7 18 C7 20.64 7 23.28 7 26 C2 30 2 30 -7 31 C-7.99 30.01 -8.98 29.02 -10 28 C-9.67 26.35 -9.34 24.7 -9 23 C-8.34 22.67 -7.68 22.34 -7 22 C-6.01 23.98 -5.02 25.96 -4 28 C-2.35 28.33 -0.7 28.66 1 29 C3.013 20.421 3.013 20.421 -4 13 C-4.33 10.69 -4.66 8.38 -5 6 C-3.35 4.02 -1.7 2.04 0 0 Z " fill="#E2EDF5" transform="translate(33,38)"/>
<path d="M0 0 C1.32 0.33 2.64 0.66 4 1 C3.021 7.855 1.904 11.399 -2 17 C-4.31 17.33 -6.62 17.66 -9 18 C-7.105 10.99 -5.303 5.303 0 0 Z " fill="#D3E4F0" transform="translate(53,34)"/>
<path d="M0 0 C0.99 0 1.98 0 3 0 C1 9 1 9 -3 12 C-9 12 -9 12 -11 11 C-10 7 -10 7 -8 5 C-4.535 4.505 -4.535 4.505 -1 4 C-0.67 2.68 -0.34 1.36 0 0 Z " fill="#DDEBF3" transform="translate(95,58)"/>
<path d="M0 0 C0.66 0.66 1.32 1.32 2 2 C-18.02 15 -18.02 15 -22 15 C-22 14.34 -22 13.68 -22 13 C-15.055 7.99 -7.656 3.828 0 0 Z " fill="#78ACD4" transform="translate(86,106)"/>
<path d="M0 0 C1.32 0.66 2.64 1.32 4 2 C3.34 5.63 2.68 9.26 2 13 C0.35 13.33 -1.3 13.66 -3 14 C-4 12 -4 12 -2.062 5.875 C-1.382 3.936 -0.701 1.998 0 0 Z " fill="#DBE9F2" transform="translate(70,50)"/>
<path d="M0 0 C1.32 0.33 2.64 0.66 4 1 C3 8 3 8 -1 14 C-1.33 13.34 -1.66 12.68 -2 12 C-1.01 9.03 -0.02 6.06 1 3 C-0.32 5.97 -1.64 8.94 -3 12 C-3.99 11.34 -4.98 10.68 -6 10 C-4 4 -4 4 0 0 Z " fill="#DBE9F3" transform="translate(53,34)"/>
<path d="M0 0 C2 3 2 3 4 6 C5.65 6.33 7.3 6.66 9 7 C9.33 6.01 9.66 5.02 10 4 C10.66 4.33 11.32 4.66 12 5 C12 5.66 12 6.32 12 7 C7 9 7 9 1 9 C0.01 8.01 -0.98 7.02 -2 6 C-1 1 -1 1 0 0 Z " fill="#DEEBF3" transform="translate(25,60)"/>
<path d="M0 0 C0.66 1.32 1.32 2.64 2 4 C2.99 4.99 3.98 5.98 5 7 C5 8.65 5 10.3 5 12 C3.68 12 2.36 12 1 12 C0.01 10.35 -0.98 8.7 -2 7 C-1.34 4.69 -0.68 2.38 0 0 Z " fill="#E9F1F7" transform="translate(31,43)"/>
<path d="M0 0 C4.29 0 8.58 0 13 0 C12.01 0.495 12.01 0.495 11 1 C11.66 2.65 12.32 4.3 13 6 C11.02 6.66 9.04 7.32 7 8 C6.01 7.34 5.02 6.68 4 6 C4.33 4.68 4.66 3.36 5 2 C3.35 1.67 1.7 1.34 0 1 C0 0.67 0 0.34 0 0 Z " fill="#D8E7F2" transform="translate(45,76)"/>
<path d="M0 0 C1.32 0.33 2.64 0.66 4 1 C2.68 4.96 1.36 8.92 0 13 C-0.33 12.34 -0.66 11.68 -1 11 C-1.66 10.67 -2.32 10.34 -3 10 C-1 1 -1 1 0 0 Z " fill="#E3EEF5" transform="translate(99,44)"/>
<path d="M0 0 C-0.33 1.65 -0.66 3.3 -1 5 C-2.65 5.33 -4.3 5.66 -6 6 C-8.31 7.32 -10.62 8.64 -13 10 C-13 9.01 -13 8.02 -13 7 C-11.35 6.01 -9.7 5.02 -8 4 C-3 0 -3 0 0 0 Z " fill="#D6E6F1" transform="translate(110,53)"/>
<path d="M0 0 C2 3 2 3 2 13 C1.34 13 0.68 13 0 13 C-0.33 11.68 -0.66 10.36 -1 9 C-1.66 9 -2.32 9 -3 9 C-2.67 6.36 -2.34 3.72 -2 1 C-1.34 0.67 -0.68 0.34 0 0 Z " fill="#D0E2EF" transform="translate(81,47)"/>
<path d="M0 0 C0.66 0.66 1.32 1.32 2 2 C1.67 3.98 1.34 5.96 1 8 C0.34 8 -0.32 8 -1 8 C-1.66 8.99 -2.32 9.98 -3 11 C-3.33 10.67 -3.66 10.34 -4 10 C-3 3 -3 3 0 0 Z " fill="#D6E6F1" transform="translate(32,39)"/>
<path d="M0 0 C3.3 0 6.6 0 10 0 C9.67 0.66 9.34 1.32 9 2 C8.01 2 7.02 2 6 2 C5.67 2.99 5.34 3.98 5 5 C3.68 5.33 2.36 5.66 1 6 C0.67 4.02 0.34 2.04 0 0 Z " fill="#F2F7FB" transform="translate(45,77)"/>
<path d="M0 0 C0.99 0 1.98 0 3 0 C1 6 1 6 -1 8 C-1.99 8 -2.98 8 -4 8 C-2 2 -2 2 0 0 Z " fill="#DBE9F2" transform="translate(91,44)"/>
<path d="M0 0 C1 3 1 3 -1.438 8.188 C-2.283 9.776 -3.129 11.364 -4 13 C-5 10 -5 10 -1 1 C-0.67 0.67 -0.34 0.34 0 0 Z " fill="#649FD0" transform="translate(54,36)"/>
<path d="M0 0 C2 4 2 4 3 9 C1.35 9 -0.3 9 -2 9 C-1.34 6.03 -0.68 3.06 0 0 Z " fill="#C8DDED" transform="translate(42,59)"/>
<path d="M0 0 C1.65 0 3.3 0 5 0 C4.34 1.32 3.68 2.64 3 4 C1.68 4 0.36 4 -1 4 C-0.67 2.68 -0.34 1.36 0 0 Z " fill="#5596CD" transform="translate(88,64)"/>
<path d="M0 0 C0.33 0.66 0.66 1.32 1 2 C2.32 2 3.64 2 5 2 C4.67 3.32 4.34 4.64 4 6 C2.35 5.67 0.7 5.34 -1 5 C-0.67 3.35 -0.34 1.7 0 0 Z " fill="#CDE0EE" transform="translate(67,58)"/>
<path d="M0 0 C1.32 1.65 2.64 3.3 4 5 C3.67 5.66 3.34 6.32 3 7 C1.35 7 -0.3 7 -2 7 C-2.33 6.34 -2.66 5.68 -3 5 C-2.34 4.67 -1.68 4.34 -1 4 C-0.67 2.68 -0.34 1.36 0 0 Z " fill="#D9E8F1" transform="translate(36,51)"/>
<path d="M0 0 C0.99 0 1.98 0 3 0 C2.34 2.64 1.68 5.28 1 8 C0.01 7.34 -0.98 6.68 -2 6 C-1.34 4.02 -0.68 2.04 0 0 Z " fill="#E6F0F6" transform="translate(49,38)"/>
<path d="M0 0 C0.99 0 1.98 0 3 0 C2.67 2.31 2.34 4.62 2 7 C1.34 7 0.68 7 0 7 C0 6.34 0 5.68 0 5 C-0.99 4.67 -1.98 4.34 -3 4 C-2.34 4 -1.68 4 -1 4 C-0.67 2.68 -0.34 1.36 0 0 Z " fill="#EBF3F8" transform="translate(95,58)"/>
<path d="M0 0 C-0.33 2.97 -0.66 5.94 -1 9 C-1.33 9 -1.66 9 -2 9 C-2 7.35 -2 5.7 -2 4 C-2.66 4 -3.32 4 -4 4 C-4 3.01 -4 2.02 -4 1 C-2 0 -2 0 0 0 Z " fill="#3E88C8" transform="translate(51,57)"/>
<path d="M0 0 C0.66 0.33 1.32 0.66 2 1 C2 1.66 2 2.32 2 3 C-3 5 -3 5 -9 5 C-5 3 -5 3 -1 3 C-0.67 2.01 -0.34 1.02 0 0 Z " fill="#BBD5E8" transform="translate(35,64)"/>
<path d="M0 0 C0.99 0 1.98 0 3 0 C2.67 2.31 2.34 4.62 2 7 C1.67 6.34 1.34 5.68 1 5 C0.34 4.67 -0.32 4.34 -1 4 C-0.67 2.68 -0.34 1.36 0 0 Z " fill="#ECF4F8" transform="translate(97,50)"/>
<path d="M0 0 C0 0.66 0 1.32 0 2 C-4 5 -4 5 -7 5 C-6.67 4.01 -6.34 3.02 -6 2 C-2 0 -2 0 0 0 Z " fill="#29567B" transform="translate(42,13)"/>
</svg>
