<?xml version="1.0" encoding="UTF-8"?>
<!-- Generator: visioncortex VTracer 0.6.4 -->
<svg version="1.1" xmlns="http://www.w3.org/2000/svg" width="128" height="128">
<path d="M0 0 C9.192 6.948 14.716 14.581 17 26 C17 40.027 14.145 48.753 4.25 58.812 C-4.436 65.327 -12.305 67 -23 67 C-35.241 64.28 -42.323 59.927 -50 50 C-55.308 38.057 -56.735 28.468 -52 16 C-46.069 5.655 -39.896 0.843 -29 -4 C-18.339 -6.665 -9.6 -5.058 0 0 Z " fill="#B936ED" transform="translate(83,33)"/>
<path d="M0 0 C1.98 0.33 3.96 0.66 6 1 C5.67 2.65 5.34 4.3 5 6 C5.99 6.66 6.98 7.32 8 8 C8 7.01 8 6.02 8 5 C8.99 5.33 9.98 5.66 11 6 C11.66 7.65 12.32 9.3 13 11 C13.99 11 14.98 11 16 11 C16.309 12.939 16.619 14.877 16.938 16.875 C17.6 22.44 17.6 22.44 19 25 C18.805 33.579 17.48 39.641 13 47 C12.01 47.33 11.02 47.66 10 48 C9.67 49.32 9.34 50.64 9 52 C1.672 58.343 -3.126 61 -13 61 C-12 59 -12 59 -5 56 C-0.209 51.209 -1.655 41.988 -1.438 35.688 C-1.354 33.319 -1.27 30.951 -1.184 28.512 C-1.123 26.693 -1.062 24.874 -1 23 C-3.64 23 -6.28 23 -9 23 C-8.942 24.686 -8.884 26.372 -8.824 28.109 C-8.779 30.301 -8.734 32.492 -8.688 34.75 C-8.629 36.931 -8.571 39.112 -8.512 41.359 C-8.673 43.221 -8.834 45.082 -9 47 C-14 51 -14 51 -19 51 C-22.758 44.736 -22.304 40.94 -22.188 33.688 C-22.16 31.505 -22.133 29.323 -22.105 27.074 C-22.071 25.4 -22.036 23.725 -22 22 C-24.97 21.67 -27.94 21.34 -31 21 C-31.33 19.68 -31.66 18.36 -32 17 C-30.618 16.237 -29.236 15.474 -27.812 14.688 C-24.512 12.844 -21.242 10.945 -18 9 C-12 10 -12 10 -4 15 C-1.525 15.495 -1.525 15.495 1 16 C1.201 7.927 1.201 7.927 0 0 Z " fill="#BD32F4" transform="translate(80,36)"/>
<path d="M0 0 C2.64 0 5.28 0 8 0 C8.037 1.698 8.075 3.395 8.113 5.145 C8.212 8.445 8.212 8.445 8.312 11.812 C8.371 14.005 8.429 16.198 8.488 18.457 C8.409 24.048 8.409 24.048 12 27 C18.633 26.767 18.633 26.767 21 24 C21.307 19.965 21.497 15.92 21.625 11.875 C21.7 9.666 21.775 7.456 21.852 5.18 C21.901 3.47 21.95 1.761 22 0 C24.64 0 27.28 0 30 0 C30.081 4.229 30.139 8.458 30.188 12.688 C30.222 15.043 30.257 17.398 30.293 19.824 C30 26 30 26 27 31 C20.889 35.583 16.604 35.418 9 35 C3 31 3 31 0 26 C-0.21 21.567 -0.253 17.125 -0.188 12.688 C-0.16 10.319 -0.133 7.951 -0.105 5.512 C-0.071 3.693 -0.036 1.874 0 0 Z " fill="#FCF7FC" transform="translate(49,59)"/>
<path d="M0 0 C3.63 0 7.26 0 11 0 C11 7.92 11 15.84 11 24 C10.34 24.33 9.68 24.66 9 25 C9 17.08 9 9.16 9 1 C6.36 1 3.72 1 1 1 C1.058 2.686 1.116 4.372 1.176 6.109 C1.221 8.301 1.266 10.492 1.312 12.75 C1.371 14.931 1.429 17.112 1.488 19.359 C1.327 21.221 1.166 23.082 1 25 C-4 29 -4 29 -9 29 C-13.776 21.04 -12.178 13.182 -12 4 C-10.68 3.67 -9.36 3.34 -8 3 C-7.67 2.34 -7.34 1.68 -7 1 C-6.01 1 -5.02 1 -4 1 C-3.67 1.99 -3.34 2.98 -3 4 C-2.34 4 -1.68 4 -1 4 C-0.67 2.68 -0.34 1.36 0 0 Z " fill="#B839E9" transform="translate(70,58)"/>
<path d="M0 0 C9.412 7.529 9.412 7.529 12 14 C11.34 14 10.68 14 10 14 C9.01 12.35 8.02 10.7 7 9 C6.34 8.67 5.68 8.34 5 8 C5 8.99 5 9.98 5 11 C3.68 10.34 2.36 9.68 1 9 C1.33 7.68 1.66 6.36 2 5 C-0.475 4.01 -0.475 4.01 -3 3 C-3 3.99 -3 4.98 -3 6 C-2.34 6.33 -1.68 6.66 -1 7 C-1.33 10.96 -1.66 14.92 -2 19 C-9 18 -9 18 -17 13 C-20.96 13.495 -20.96 13.495 -25 14 C-22 11 -22 11 -18 10 C-13.277 12.565 -8.605 15.228 -4 18 C-4 15.03 -4 12.06 -4 9 C-5.65 8.34 -7.3 7.68 -9 7 C-11.197 5.639 -11.197 5.639 -13.438 4.25 C-18.141 1.266 -18.141 1.266 -24 4 C-25.98 4.99 -27.96 5.98 -30 7 C-29.67 5.02 -29.34 3.04 -29 1 C-27.68 0.67 -26.36 0.34 -25 0 C-25 0.66 -25 1.32 -25 2 C-24.01 1.34 -23.02 0.68 -22 0 C-19 0 -16 0 -13 0 C-12.67 -0.66 -12.34 -1.32 -12 -2 C-23.045 -2.146 -23.045 -2.146 -34 -1 C-25.242 -9.758 -9.32 -4.911 0 0 Z " fill="#BE34F3" transform="translate(83,33)"/>
<path d="M0 0 C6.176 2.059 10.775 4.116 16 8 C16 10.97 16 13.94 16 17 C11 15 11 15 6.562 12.25 C1.859 9.266 1.859 9.266 -4 12 C-7.96 14.475 -7.96 14.475 -12 17 C-12.66 17 -13.32 17 -14 17 C-14 14.03 -14 11.06 -14 8 C-7.375 3.875 -7.375 3.875 0 0 Z " fill="#FBF3FB" transform="translate(63,34)"/>
<path d="M0 0 C5.231 5.231 4 13.257 4 20 C1.507 31.218 -3.82 39.115 -13 46 C-23.093 50.566 -30.821 51.863 -42 50 C-42 49.67 -42 49.34 -42 49 C-37.545 48.505 -37.545 48.505 -33 48 C-34.588 47.402 -36.176 46.804 -37.812 46.188 C-43 44 -43 44 -46 41 C-45.67 40.34 -45.34 39.68 -45 39 C-42.525 40.98 -42.525 40.98 -40 43 C-35.979 45.011 -31.369 44.19 -27 44 C-21.393 41.351 -21.393 41.351 -18 39 C-20 43 -20 43 -24 46 C-25.98 46.495 -25.98 46.495 -28 47 C-18.905 45.989 -13.464 44.464 -7 38 C-6.67 37.01 -6.34 36.02 -6 35 C-4.68 33.68 -3.36 32.36 -2 31 C2.04 21.573 2.825 14.887 0 5 C0 3.35 0 1.7 0 0 Z " fill="#A245C7" transform="translate(96,49)"/>
<path d="M0 0 C9.412 7.529 9.412 7.529 12 14 C11.34 14 10.68 14 10 14 C9.01 12.35 8.02 10.7 7 9 C6.34 8.67 5.68 8.34 5 8 C5 8.99 5 9.98 5 11 C3.68 10.34 2.36 9.68 1 9 C1.33 7.68 1.66 6.36 2 5 C-10.112 -2.57 -19.919 -3.347 -34 -1 C-25.242 -9.758 -9.32 -4.911 0 0 Z " fill="#A84BCD" transform="translate(83,33)"/>
<path d="M0 0 C2.64 0 5.28 0 8 0 C8 7.26 8 14.52 8 22 C7.34 22 6.68 22 6 22 C5.67 15.73 5.34 9.46 5 3 C4.34 3 3.68 3 3 3 C2.67 11.58 2.34 20.16 2 29 C-1.308 24.039 -0.182 18.659 -0.125 12.812 C-0.107 10.426 -0.089 8.04 -0.07 5.582 C-0.047 3.74 -0.024 1.898 0 0 Z " fill="#F9DBFE" transform="translate(49,59)"/>
<path d="M0 0 C2.64 0 5.28 0 8 0 C8.054 4.271 8.093 8.542 8.125 12.812 C8.148 15.191 8.171 17.569 8.195 20.02 C8 26 8 26 6 29 C6 20.75 6 12.5 6 4 C5.01 3.67 4.02 3.34 3 3 C2.67 8.94 2.34 14.88 2 21 C1.34 21.33 0.68 21.66 0 22 C0 14.74 0 7.48 0 0 Z " fill="#FADBFE" transform="translate(71,59)"/>
<path d="M0 0 C3.96 2.475 3.96 2.475 8 5 C16.274 5.735 21.008 4.661 28 0 C26 4 26 4 22 7 C20.68 7.33 19.36 7.66 18 8 C20.475 8.495 20.475 8.495 23 9 C23 9.66 23 10.32 23 11 C16.513 12.622 10.522 12.087 4 11 C4 10.67 4 10.34 4 10 C8.455 9.505 8.455 9.505 13 9 C11.412 8.402 9.824 7.804 8.188 7.188 C3 5 3 5 0 2 C0 1.34 0 0.68 0 0 Z " fill="#AD46D5" transform="translate(50,88)"/>
<path d="M0 0 C1.32 0.33 2.64 0.66 4 1 C3.67 4.96 3.34 8.92 3 13 C-4 12 -4 12 -12 7 C-14.64 7.33 -17.28 7.66 -20 8 C-17 5 -17 5 -13 4 C-8.277 6.565 -3.605 9.228 1 12 C1 9.03 1 6.06 1 3 C0.01 2.67 -0.98 2.34 -2 2 C-1.34 1.34 -0.68 0.68 0 0 Z " fill="#AD50D3" transform="translate(78,39)"/>
<path d="M0 0 C0.66 0.66 1.32 1.32 2 2 C0 4 0 4 -3 5 C-3.33 4.67 -3.66 4.34 -4 4 C-9.578 3.684 -9.578 3.684 -13 5 C-13 4.34 -13 3.68 -13 3 C-13.66 3 -14.32 3 -15 3 C-15 2.34 -15 1.68 -15 1 C-10.573 -1.213 -4.81 -0.139 0 0 Z " fill="#BE33F5" transform="translate(71,30)"/>
<path d="M0 0 C3 1 3 1 9 9 C12.833 12.5 12.833 12.5 18 12 C17.67 12.99 17.34 13.98 17 15 C18.32 15.66 19.64 16.32 21 17 C20.34 17.33 19.68 17.66 19 18 C11.208 13.999 2.906 8.718 0 0 Z " fill="#A242C9" transform="translate(32,80)"/>
<path d="M0 0 C0.99 0.33 1.98 0.66 3 1 C2.01 1.495 2.01 1.495 1 2 C0.67 4.97 0.34 7.94 0 11 C2.31 9.68 4.62 8.36 7 7 C7.66 7.33 8.32 7.66 9 8 C6.69 9.65 4.38 11.3 2 13 C0.68 12.67 -0.64 12.34 -2 12 C-2 8.37 -2 4.74 -2 1 C-1.34 0.67 -0.68 0.34 0 0 Z " fill="#AD4AD8" transform="translate(49,40)"/>
<path d="M0 0 C0 0.66 0 1.32 0 2 C0.99 1.34 1.98 0.68 3 0 C4.98 0 6.96 0 9 0 C10.32 1.32 11.64 2.64 13 4 C10.36 3.34 7.72 2.68 5 2 C-0.435 4.216 -0.435 4.216 -5 7 C-4.67 5.02 -4.34 3.04 -4 1 C-2 0 -2 0 0 0 Z " fill="#B343DE" transform="translate(58,33)"/>
<path d="M0 0 C0.66 0.33 1.32 0.66 2 1 C0.556 2.072 -0.888 3.145 -2.375 4.25 C-7.135 7.582 -7.135 7.582 -9 12 C-7.02 12.495 -7.02 12.495 -5 13 C-6.65 13.66 -8.3 14.32 -10 15 C-10 12.03 -10 9.06 -10 6 C-5.125 2.375 -5.125 2.375 0 0 Z " fill="#FADEFE" transform="translate(59,36)"/>
<path d="M0 0 C1.98 0.99 3.96 1.98 6 3 C6 5.97 6 8.94 6 12 C1 10 1 10 -1 8 C0.32 7.34 1.64 6.68 3 6 C2.01 5.01 1.02 4.02 0 3 C0 2.01 0 1.02 0 0 Z " fill="#FBE4FE" transform="translate(73,39)"/>
<path d="M0 0 C5 1 5 1 10 7 C10 7.66 10 8.32 10 9 C9.34 9 8.68 9 8 9 C7.01 7.35 6.02 5.7 5 4 C4.34 3.67 3.68 3.34 3 3 C3 3.99 3 4.98 3 6 C1.68 5.34 0.36 4.68 -1 4 C-0.67 2.68 -0.34 1.36 0 0 Z " fill="#AD39DA" transform="translate(85,38)"/>
<path d="M0 0 C0.99 0 1.98 0 3 0 C3 0.66 3 1.32 3 2 C3.66 2 4.32 2 5 2 C5 3.98 5 5.96 5 8 C2.525 7.01 2.525 7.01 0 6 C-0.33 4.35 -0.66 2.7 -1 1 C-0.67 0.67 -0.34 0.34 0 0 Z " fill="#B638EB" transform="translate(71,32)"/>
<path d="M0 0 C-0.66 0 -1.32 0 -2 0 C-2 0.99 -2 1.98 -2 3 C-4.31 2.67 -6.62 2.34 -9 2 C-9.66 3.32 -10.32 4.64 -11 6 C-11.99 5.34 -12.98 4.68 -14 4 C-13.01 3.67 -12.02 3.34 -11 3 C-10.67 2.34 -10.34 1.68 -10 1 C-3 -1 -3 -1 0 0 Z " fill="#B133E5" transform="translate(58,31)"/>
<path d="M0 0 C-0.33 3.96 -0.66 7.92 -1 12 C-1.33 12 -1.66 12 -2 12 C-2.33 9.03 -2.66 6.06 -3 3 C-3.99 2.01 -4.98 1.02 -6 0 C-4 -1 -4 -1 0 0 Z " fill="#B139DE" transform="translate(82,40)"/>
<path d="M0 0 C2.31 0 4.62 0 7 0 C7.99 0.99 8.98 1.98 10 3 C6.7 2.67 3.4 2.34 0 2 C0 1.34 0 0.68 0 0 Z " fill="#BF33F6" transform="translate(55,95)"/>
</svg>
