<?xml version="1.0" encoding="UTF-8"?>
<!-- Generator: visioncortex VTracer 0.6.4 -->
<svg version="1.1" xmlns="http://www.w3.org/2000/svg" width="128" height="128">
<path d="M0 0 C4.416 -0.004 4.416 -0.004 8.922 -0.008 C13.477 0.004 13.477 0.004 18.125 0.016 C21.162 0.008 24.199 0 27.328 -0.008 C30.272 -0.005 33.217 -0.003 36.25 0 C40.245 0.003 40.245 0.003 44.32 0.007 C65.805 0.719 65.805 0.719 74.125 6.266 C86.446 21.667 82.38 47.505 80.855 65.996 C79.497 75.793 77.697 79.775 70.125 86.266 C53.582 90.992 36.058 89.45 19 89.453 C15.888 89.465 12.776 89.478 9.57 89.49 C6.554 89.492 3.538 89.494 0.43 89.496 C-2.314 89.5 -5.057 89.504 -7.883 89.509 C-29.077 88.864 -29.077 88.864 -38.875 83.266 C-50.683 65.554 -46.809 36.183 -43.875 16.266 C-40.826 8.134 -39.407 6.032 -31.875 2.266 C-21.187 0.633 -10.803 0.009 0 0 Z " fill="#F60000" transform="translate(45.875,18.734375)"/>
<path d="M0 0 C7.886 3.943 15.264 7.823 22.75 12.375 C24.498 13.435 26.246 14.494 28.047 15.586 C29.351 16.383 30.656 17.179 32 18 C27.082 22.918 20.901 25.767 14.875 29.188 C11.035 31.374 11.035 31.374 7.117 33.605 C1 37 1 37 0 37 C0 24.79 0 12.58 0 0 Z " fill="#FEFBFA" transform="translate(52,45)"/>
</svg>
