<?xml version="1.0" encoding="UTF-8"?>
<!-- Generator: visioncortex VTracer 0.6.4 -->
<svg version="1.1" xmlns="http://www.w3.org/2000/svg" width="128" height="128">
<path d="M0 0 C0.495 1.98 0.495 1.98 1 4 C2.98 3.67 4.96 3.34 7 3 C17 3 17 3 23 4 C23.66 2.35 24.32 0.7 25 -1 C39.368 1.211 39.368 1.211 46 5 C57.123 21.684 62.896 40.907 60 61 C55.75 65.5 55.75 65.5 50 68 C47.896 68.969 45.793 69.939 43.625 70.938 C38 73 38 73 34 73 C29 64.125 29 64.125 29 63 C26.958 63.495 26.958 63.495 24.875 64 C14.645 65.741 5.077 65.443 -5 63 C-5.33 64.32 -5.66 65.64 -6 67 C-7.32 68.98 -8.64 70.96 -10 73 C-20.048 71.565 -28.097 67.323 -36 61 C-37.198 41.297 -33.356 26.504 -24 9 C-23.34 7.68 -22.68 6.36 -22 5 C-6.462 -1.615 -6.462 -1.615 0 0 Z M-6 31 C-11.37 35.445 -11.37 35.445 -12 41 C-9.833 46.833 -9.833 46.833 -7 48 C-4.69 48 -2.38 48 0 48 C4.729 43.156 4.729 43.156 4 36 C1.118 31.175 1.118 31.175 -6 31 Z M21 35 C19.553 37.522 19.553 37.522 20 43 C21.65 44.65 23.3 46.3 25 48 C27.31 48 29.62 48 32 48 C35.733 44.867 35.733 44.867 36 38 C33.499 33.024 33.499 33.024 30 31 C25.453 30.584 25.453 30.584 21 35 Z " fill="#535DCE" transform="translate(52,28)"/>
<path d="M0 0 C2.31 0.33 4.62 0.66 7 1 C7 1.33 7 1.66 7 2 C5.02 2 3.04 2 1 2 C1 2.66 1 3.32 1 4 C0.01 4.33 -0.98 4.66 -2 5 C-1.34 3.35 -0.68 1.7 0 0 Z " fill="#393E78" transform="translate(77,27)"/>
</svg>
