<?xml version="1.0" encoding="UTF-8"?>
<!-- Generator: visioncortex VTracer 0.6.4 -->
<svg version="1.1" xmlns="http://www.w3.org/2000/svg" width="128" height="128">
<path d="M0 0 C11.41 8.21 19.379 18.797 22.125 32.688 C22.998 50.387 20.2 63.359 8.5 76.875 C-4.425 88.139 -16.954 91.658 -33.875 90.688 C-49.314 87.005 -60.25 79.917 -69.25 66.75 C-76.465 52.835 -77.016 39.735 -72.875 24.688 C-67.489 11.381 -57.764 1.819 -44.688 -4.125 C-29.157 -9.97 -14.33 -8.08 0 0 Z " fill="#00135E" transform="translate(91.875,21.3125)"/>
<path d="M0 0 C11.21 7.716 18.648 16.945 23 30 C23.739 45.633 21.645 56.291 11 68 C-0.617 76.923 -11.546 79.607 -26 79 C-32.712 77.042 -37.154 74.897 -43 71 C-41.515 70.505 -41.515 70.505 -40 70 C-39.34 70.33 -38.68 70.66 -38 71 C-28.007 71.673 -22.024 71.19 -14 65 C-8.401 56.601 -8 54.54 -8 44 C-10.545 35.875 -10.545 35.875 -16 30 C-25.788 25.375 -25.788 25.375 -36 25 C-44.362 28.263 -46.322 30.43 -52 38 C-54.593 44.482 -54.129 50.076 -54 57 C-56 56 -56 56 -58.125 51.375 C-61.982 38.261 -60.517 26.948 -54.438 14.938 C-41.372 -3.829 -20.679 -10.564 0 0 Z " fill="#5F8EE3" transform="translate(90,20)"/>
<path d="M0 0 C2.475 0.495 2.475 0.495 5 1 C14.08 1.305 14.08 1.305 23 0 C20 3 20 3 12 4 C12 4.66 12 5.32 12 6 C13.65 6.33 15.3 6.66 17 7 C10.603 8.599 6.571 5.055 1 2 C0.67 1.34 0.34 0.68 0 0 Z " fill="#3766B8" transform="translate(47,90)"/>
<path d="M0 0 C0 0.33 0 0.66 0 1 C-3.743 1.65 -3.743 1.65 -7.562 2.312 C-15.927 3.684 -15.927 3.684 -23 7 C-22.67 5.68 -22.34 4.36 -22 3 C-14.097 -0.387 -8.504 -0.226 0 0 Z " fill="#05134E" transform="translate(73,14)"/>
<path d="M0 0 C0.33 0 0.66 0 1 0 C1.33 4.62 1.66 9.24 2 14 C1.34 13.67 0.68 13.34 0 13 C-1.064 9.686 -2.066 6.353 -3 3 C-2.01 3.495 -2.01 3.495 -1 4 C-0.67 2.68 -0.34 1.36 0 0 Z " fill="#3465B7" transform="translate(34,63)"/>
<path d="M0 0 C0.33 0 0.66 0 1 0 C1 5.94 1 11.88 1 18 C0.01 18 -0.98 18 -2 18 C-1.34 12.06 -0.68 6.12 0 0 Z " fill="#152455" transform="translate(113,54)"/>
<path d="M0 0 C0.66 0 1.32 0 2 0 C0 4 0 4 -6 9 C-4 4 -4 4 0 0 Z " fill="#081C69" transform="translate(44,49)"/>
<path d="M0 0 C0.99 0.33 1.98 0.66 3 1 C3 1.66 3 2.32 3 3 C4.65 3.33 6.3 3.66 8 4 C4 5 4 5 -1 3 C-0.67 2.01 -0.34 1.02 0 0 Z " fill="#325FB1" transform="translate(56,93)"/>
</svg>
