<?xml version="1.0" encoding="UTF-8"?>
<!-- Generator: visioncortex VTracer 0.6.4 -->
<svg version="1.1" xmlns="http://www.w3.org/2000/svg" width="128" height="128">
<path d="M0 0 C5.94 0 11.88 0 18 0 C19 1 19 1 19.062 9.562 C19.042 12.347 19.021 15.131 19 18 C24.61 18 30.22 18 36 18 C36 23.94 36 29.88 36 36 C41.61 36 47.22 36 53 36 C53 30.06 53 24.12 53 18 C58.94 18 64.88 18 71 18 C71 12.06 71 6.12 71 0 C77 -0.042 83 -0.041 89 0 C90 1 90 1 90.114 7.539 C90.106 11.93 90.106 11.93 90.098 16.41 C90.093 21.143 90.093 21.143 90.088 25.971 C90.08 29.335 90.071 32.699 90.062 36.062 C90.057 39.43 90.053 42.798 90.049 46.166 C90.037 54.444 90.02 62.722 90 71 C95.61 71 101.22 71 107 71 C107 77.27 107 83.54 107 90 C89.18 90 71.36 90 53 90 C53 84.06 53 78.12 53 72 C47.39 72 41.78 72 36 72 C36 77.94 36 83.88 36 90 C18.18 90 0.36 90 -18 90 C-18 83.73 -18 77.46 -18 71 C-12.06 71 -6.12 71 0 71 C0 47.57 0 24.14 0 0 Z M19 55 C19 60.28 19 65.56 19 71 C24.28 71 29.56 71 35 71 C35 65.72 35 60.44 35 55 C29.72 55 24.44 55 19 55 Z M54 55 C54 60.28 54 65.56 54 71 C59.61 71 65.22 71 71 71 C71 65.72 71 60.44 71 55 C65.39 55 59.78 55 54 55 Z " fill="#F37E04" transform="translate(19,19)"/>
<path d="M0 0 C0.33 0 0.66 0 1 0 C1 23.1 1 46.2 1 70 C6.61 70 12.22 70 18 70 C18 76.27 18 82.54 18 89 C0.18 89 -17.64 89 -36 89 C-36 77.12 -36 65.24 -36 53 C-29.73 53 -23.46 53 -17 53 C-17 58.94 -17 64.88 -17 71 C-11.39 71 -5.78 71 0 71 C0 47.57 0 24.14 0 0 Z M-35 54 C-35 59.28 -35 64.56 -35 70 C-29.39 70 -23.78 70 -18 70 C-18 64.72 -18 59.44 -18 54 C-23.61 54 -29.22 54 -35 54 Z " fill="#C10700" transform="translate(108,20)"/>
<path d="M0 0 C5.94 0 11.88 0 18 0 C18 11.88 18 23.76 18 36 C0.18 36 -17.64 36 -36 36 C-36 29.73 -36 23.46 -36 17 C-23.941 16.904 -12.035 17.236 0 18 C0 12.06 0 6.12 0 0 Z M1 1 C1 6.28 1 11.56 1 17 C6.28 17 11.56 17 17 17 C17 11.72 17 6.44 17 1 C11.72 1 6.44 1 1 1 Z " fill="#C70400" transform="translate(37,73)"/>
<path d="M0 0 C5.61 0 11.22 0 17 0 C17 11.55 17 23.1 17 35 C5.45 35 -6.1 35 -18 35 C-18 29.39 -18 23.78 -18 18 C-12.06 18 -6.12 18 0 18 C0 12.06 0 6.12 0 0 Z " fill="#FEAF00" transform="translate(91,20)"/>
<path d="M0 0 C5.61 0 11.22 0 17 0 C17 5.94 17 11.88 17 18 C22.61 18 28.22 18 34 18 C34 23.61 34 29.22 34 35 C22.78 35 11.56 35 0 35 C0 23.45 0 11.9 0 0 Z " fill="#FEAF00" transform="translate(20,20)"/>
<path d="M0 0 C5.94 0 11.88 0 18 0 C18 0.33 18 0.66 18 1 C12.39 1 6.78 1 1 1 C1 18.49 1 35.98 1 54 C6.61 54 12.22 54 18 54 C18 59.94 18 65.88 18 72 C12.06 72 6.12 72 0 72 C0 48.24 0 24.48 0 0 Z " fill="#E4520B" transform="translate(19,19)"/>
<path d="M0 0 C5.61 0 11.22 0 17 0 C17 5.94 17 11.88 17 18 C11.39 18 5.78 18 0 18 C0 12.06 0 6.12 0 0 Z " fill="#F94F0E" transform="translate(91,73)"/>
<path d="M0 0 C5.61 0 11.22 0 17 0 C17 5.94 17 11.88 17 18 C11.39 18 5.78 18 0 18 C0 12.06 0 6.12 0 0 Z " fill="#F64F0E" transform="translate(55,73)"/>
<path d="M0 0 C5.61 0 11.22 0 17 0 C17 5.94 17 11.88 17 18 C11.39 18 5.78 18 0 18 C0 12.06 0 6.12 0 0 Z " fill="#FDD600" transform="translate(20,20)"/>
<path d="M0 0 C5.61 0 11.22 0 17 0 C17 5.61 17 11.22 17 17 C11.39 17 5.78 17 0 17 C0 11.39 0 5.78 0 0 Z " fill="#FED800" transform="translate(91,20)"/>
</svg>
