<?xml version="1.0" encoding="UTF-8"?>
<!-- Generator: visioncortex VTracer 0.6.4 -->
<svg version="1.1" xmlns="http://www.w3.org/2000/svg" width="128" height="128">
<path d="M0 0 C5.938 0.438 5.938 0.438 8.938 3.438 C9.433 7.398 9.433 7.398 9.938 11.438 C11.71 15.869 13.803 20.169 15.938 24.438 C17.023 40.443 13.078 49.269 2.938 61.438 C-11.132 72.036 -26.269 77.847 -44.062 76.438 C-55.845 73.519 -64.614 69.223 -72.062 59.438 C-75.062 51.438 -75.062 51.438 -75.062 45.438 C-71.062 39.438 -71.062 39.438 -65.062 36.438 C-59.98 36.652 -59.98 36.652 -54.25 37.375 C-42.837 38.805 -36.092 37.706 -26.062 31.438 C-22.812 27.104 -22.812 27.104 -20.062 22.438 C-15.062 15.438 -15.062 15.438 -12.062 13.438 C-11.403 10.468 -10.743 7.498 -10.062 4.438 C-6.062 0.438 -6.062 0.438 0 0 Z " fill="#F6C935" transform="translate(89.0625,25.5625)"/>
<path d="M0 0 C5.938 0.438 5.938 0.438 8.938 3.438 C9.433 7.398 9.433 7.398 9.938 11.438 C11.71 15.869 13.803 20.169 15.938 24.438 C17.023 40.443 13.078 49.269 2.938 61.438 C-11.132 72.036 -26.269 77.847 -44.062 76.438 C-55.845 73.519 -64.614 69.223 -72.062 59.438 C-75.062 51.438 -75.062 51.438 -75.062 45.438 C-71.062 39.438 -71.062 39.438 -65.062 36.438 C-59.98 36.652 -59.98 36.652 -54.25 37.375 C-42.837 38.805 -36.092 37.706 -26.062 31.438 C-22.812 27.104 -22.812 27.104 -20.062 22.438 C-15.062 15.438 -15.062 15.438 -12.062 13.438 C-11.403 10.468 -10.743 7.498 -10.062 4.438 C-6.062 0.438 -6.062 0.438 0 0 Z M-4.062 5.438 C-6.4 9.806 -6.4 9.806 -8.062 16.438 C-10.373 18.748 -12.683 21.058 -15.062 23.438 C-16.053 25.108 -17.042 26.779 -18.062 28.5 C-23.603 37.619 -30.099 40.847 -40.062 43.438 C-46.38 43.777 -51.782 43.335 -58.062 42.438 C-61.032 42.438 -64.002 42.438 -67.062 42.438 C-67.722 43.097 -68.382 43.757 -69.062 44.438 C-69.062 53.807 -68.728 55.579 -63.062 62.438 C-51.773 71.061 -40.937 71.397 -27.062 70.438 C-13.251 66.958 -5.039 61.414 4.938 51.438 C10.074 42.057 11.442 36.224 10.938 25.438 C9.618 23.457 8.297 21.477 6.938 19.438 C4.563 14.689 4.352 10.691 3.938 5.438 C1.297 5.438 -1.343 5.438 -4.062 5.438 Z " fill="#D5D5D5" transform="translate(89.0625,25.5625)"/>
<path d="M0 0 C0.33 0 0.66 0 1 0 C1.25 17.125 1.25 17.125 -1 25 C-1.99 25.99 -2.98 26.98 -4 28 C-5.072 29.423 -6.145 30.846 -7.25 32.312 C-14.641 41.551 -19.466 44.718 -31 46 C-39.629 46.218 -47.629 46.249 -56 44 C-56.66 43.34 -57.32 42.68 -58 42 C-58 40.68 -58 39.36 -58 38 C-56.577 38.023 -55.154 38.046 -53.688 38.07 C-51.811 38.088 -49.934 38.106 -48 38.125 C-46.144 38.148 -44.288 38.171 -42.375 38.195 C-33.734 37.881 -27.181 35.616 -20 31 C-14.088 24.453 -14.088 24.453 -10.438 18.312 C-7 13 -7 13 -2 9 C-1.34 6.03 -0.68 3.06 0 0 Z " fill="#F4DB91" transform="translate(86,33)"/>
<path d="M0 0 C2.64 0 5.28 0 8 0 C8.248 2.042 8.495 4.084 8.75 6.188 C9.471 13.148 9.471 13.148 14 18 C16.981 23.962 15.26 32.062 13.562 38.188 C7.123 50.28 -2.425 57.596 -14.812 62.938 C-28.631 66.419 -39.904 66.821 -53 61 C-60 56 -60 56 -65 48 C-65 39 -65 39 -63 37 C-54 37 -54 37 -47 38 C-36.591 38.627 -28.217 37.012 -19.625 30.875 C-15.601 26.574 -12.978 22.068 -10 17 C-6.535 13.535 -6.535 13.535 -3 10 C-2.34 7.03 -1.68 4.06 -1 1 C-0.67 0.67 -0.34 0.34 0 0 Z M1 2 C0.34 4.97 -0.32 7.94 -1 11 C-2.98 12.65 -4.96 14.3 -7 16 C-9.227 19.465 -9.227 19.465 -11.5 23 C-16.935 31.454 -21.008 34.504 -30 39 C-37.506 40.251 -44.642 39.772 -52.227 39.449 C-53.802 39.631 -55.377 39.813 -57 40 C-60.912 45.298 -60.912 45.298 -62 49 C-56.159 56.789 -52.351 60.662 -43 63 C-25.067 63.677 -12.819 61.843 2 51 C8.997 43.337 12.569 36.223 13.625 25.875 C13.415 19.13 13.415 19.13 7 12 C6.125 6.5 6.125 6.5 6 2 C4.35 2 2.7 2 1 2 Z " fill="#524F44" transform="translate(85,31)"/>
<path d="M0 0 C0.99 0.33 1.98 0.66 3 1 C3.861 15.496 0.312 22.136 -9 33 C-19.277 40.774 -29.87 47 -43 47 C-43.66 45.68 -44.32 44.36 -45 43 C-42.9 42.364 -42.9 42.364 -40.758 41.715 C-26.147 37.105 -15.585 32.394 -6 20 C-2.856 13.463 -1.223 7.135 0 0 Z " fill="#D9D9D9" transform="translate(101,54)"/>
<path d="M0 0 C0.66 0.66 1.32 1.32 2 2 C2.99 1.34 3.98 0.68 5 0 C7.461 2.461 7.245 6.603 8 10 C13.188 17.781 18.175 21.058 27 24 C32.662 24.399 38.33 24.738 44 25 C43.01 25.495 43.01 25.495 42 26 C42.66 27.65 43.32 29.3 44 31 C30.561 31.591 21.414 29.134 10 22 C4.572 16.572 2.786 13.429 0 6 C0 4.02 0 2.04 0 0 Z " fill="#CDCDCD" transform="translate(14,71)"/>
<path d="M0 0 C0.33 0 0.66 0 1 0 C1.248 1.877 1.495 3.754 1.75 5.688 C2.537 12.209 2.537 12.209 7 17 C9.981 22.962 8.26 31.062 6.562 37.188 C0.078 49.365 -9.516 56.719 -22.062 61.938 C-30.674 64.175 -38.14 64.366 -47 64 C-47 63.67 -47 63.34 -47 63 C-44.298 62.773 -41.596 62.546 -38.812 62.312 C-25.695 60.558 -15.703 56.796 -5 49 C2.614 38.849 6.242 31.831 5 19 C3.35 16.69 1.7 14.38 0 12 C-0.312 5.563 -0.312 5.563 0 0 Z " fill="#454236" transform="translate(92,32)"/>
<path d="M0 0 C1.65 0 3.3 0 5 0 C5.33 1.65 5.66 3.3 6 5 C4.68 6.65 3.36 8.3 2 10 C5.027 17.568 8.971 19.984 16 24 C22.56 25.64 29.267 25.62 36 26 C36 26.33 36 26.66 36 27 C21.898 28.332 14.748 27.392 3 19 C-2 11 -2 11 -2 2 C-1.34 1.34 -0.68 0.68 0 0 Z " fill="#403F39" transform="translate(22,68)"/>
<path d="M0 0 C2 3 2 3 2 10 C4.475 13.96 4.475 13.96 7 18 C8.911 23.733 8.051 30.015 8 36 C7.67 36 7.34 36 7 36 C6.814 33.556 6.814 33.556 6.625 31.062 C6.419 29.392 6.213 27.721 6 26 C5.34 25.67 4.68 25.34 4 25 C4 26.98 4 28.96 4 31 C3.67 31 3.34 31 3 31 C2.67 28.03 2.34 25.06 2 22 C0.68 20.02 -0.64 18.04 -2 16 C-2.33 15.01 -2.66 14.02 -3 13 C-2.67 12.34 -2.34 11.68 -2 11 C-1.34 11 -0.68 11 0 11 C0 7.37 0 3.74 0 0 Z " fill="#BCBCBB" transform="translate(97,29)"/>
<path d="M0 0 C1.918 0.062 3.836 0.124 5.812 0.188 C3.812 3.188 3.812 3.188 -3.188 5.188 C-4.178 6.177 -5.168 7.168 -6.188 8.188 C-8.168 9.177 -8.168 9.177 -10.188 10.188 C-8.77 0.266 -8.77 0.266 0 0 Z " fill="#D2D2D2" transform="translate(25.1875,63.8125)"/>
<path d="M0 0 C5.797 0.607 11.355 1.125 17.188 1.125 C11.77 3.834 7.169 3.255 1.188 3.125 C0.858 4.115 0.528 5.105 0.188 6.125 C-3.443 5.795 -7.073 5.465 -10.812 5.125 C-10.812 4.795 -10.812 4.465 -10.812 4.125 C-8.832 3.465 -6.852 2.805 -4.812 2.125 C-7.782 1.795 -10.753 1.465 -13.812 1.125 C-9.223 -1.935 -5.397 -0.577 0 0 Z " fill="#A1A1A0" transform="translate(34.8125,62.875)"/>
<path d="M0 0 C2.97 0.495 2.97 0.495 6 1 C14.17 1.14 21.867 0.904 30 0 C29.67 0.66 29.34 1.32 29 2 C19.443 4.731 9.383 5.753 0 2 C0 1.34 0 0.68 0 0 Z " fill="#514A31" transform="translate(34,77)"/>
<path d="M0 0 C0.99 0.33 1.98 0.66 3 1 C3 5.62 3 10.24 3 15 C1.02 15.33 -0.96 15.66 -3 16 C-2.691 14.474 -2.381 12.948 -2.062 11.375 C-1.315 7.595 -0.634 3.801 0 0 Z " fill="#E2E1E1" transform="translate(101,54)"/>
<path d="M0 0 C2.64 0 5.28 0 8 0 C7.67 3.96 7.34 7.92 7 12 C6.67 12 6.34 12 6 12 C6 8.7 6 5.4 6 2 C4.35 2 2.7 2 1 2 C0.67 4.97 0.34 7.94 0 11 C-1.32 11.99 -2.64 12.98 -4 14 C-4 8.853 -2.266 4.533 0 0 Z " fill="#5B5336" transform="translate(85,31)"/>
<path d="M0 0 C0.33 0.99 0.66 1.98 1 3 C-1.31 3.66 -3.62 4.32 -6 5 C-8.475 6.485 -8.475 6.485 -11 8 C-11 6.35 -11 4.7 -11 3 C-7 0 -7 0 0 0 Z " fill="#F9F9F9" transform="translate(91,27)"/>
<path d="M0 0 C0.33 0.99 0.66 1.98 1 3 C-2.52 9.009 -5.568 12.473 -11 17 C-11.66 17 -12.32 17 -13 17 C-11 13 -11 13 -6 9 C-3.938 6.043 -1.927 3.047 0 0 Z " fill="#4F4830" transform="translate(83,58)"/>
<path d="M0 0 C0.99 0.33 1.98 0.66 3 1 C1 7 1 7 -2 11 C-4 8 -4 8 -5 6 C-3 2 -3 2 0 0 Z " fill="#CFCFCF" transform="translate(100,68)"/>
<path d="M0 0 C4.455 0.99 4.455 0.99 9 2 C14.33 2.389 19.663 2.731 25 3 C25 3.33 25 3.66 25 4 C9 5.375 9 5.375 0 2 C0 1.34 0 0.68 0 0 Z " fill="#685F40" transform="translate(33,91)"/>
<path d="M0 0 C4.785 1.595 6.267 5.901 9 10 C11.475 11.98 11.475 11.98 14 14 C13.01 14.495 13.01 14.495 12 15 C5 10 5 10 0 2 C0 1.34 0 0.68 0 0 Z " fill="#4F4B3C" transform="translate(20,77)"/>
<path d="M0 0 C0.66 0 1.32 0 2 0 C1 6 1 6 -2 9 C-3.32 8.34 -4.64 7.68 -6 7 C-4.02 4.69 -2.04 2.38 0 0 Z " fill="#D3D3D3" transform="translate(94,78)"/>
<path d="M0 0 C6.93 0.495 6.93 0.495 14 1 C13.67 1.99 13.34 2.98 13 4 C9.04 4 5.08 4 1 4 C0.67 2.68 0.34 1.36 0 0 Z " fill="#FCFCFB" transform="translate(34,65)"/>
<path d="M0 0 C1.65 0.33 3.3 0.66 5 1 C4.67 1.99 4.34 2.98 4 4 C-0.611 5.537 -5.177 5.057 -10 5 C-9.01 4.01 -8.02 3.02 -7 2 C-4.69 2 -2.38 2 0 2 C0 1.34 0 0.68 0 0 Z " fill="#E4E3E2" transform="translate(48,65)"/>
<path d="M0 0 C1.32 0 2.64 0 4 0 C4 3.3 4 6.6 4 10 C3.67 8.68 3.34 7.36 3 6 C2.34 6 1.68 6 1 6 C1 8.31 1 10.62 1 13 C0.67 13 0.34 13 0 13 C0 8.71 0 4.42 0 0 Z " fill="#F9CD41" transform="translate(87,33)"/>
<path d="M0 0 C3.3 0 6.6 0 10 0 C8 3 8 3 0 5 C0 3.35 0 1.7 0 0 Z " fill="#FBFBFB" transform="translate(21,64)"/>
<path d="M0 0 C0.99 1.32 1.98 2.64 3 4 C1.68 5.32 0.36 6.64 -1 8 C-1.33 8.66 -1.66 9.32 -2 10 C-2.66 8.35 -3.32 6.7 -4 5 C-2.68 3.35 -1.36 1.7 0 0 Z " fill="#EFC745" transform="translate(27,73)"/>
<path d="M0 0 C0.99 0.33 1.98 0.66 3 1 C3 2.98 3 4.96 3 7 C1.02 7.99 1.02 7.99 -1 9 C-0.67 6.03 -0.34 3.06 0 0 Z " fill="#FAFAFA" transform="translate(101,54)"/>
<path d="M0 0 C0.66 1.32 1.32 2.64 2 4 C1.01 6.31 0.02 8.62 -1 11 C-1.66 10.67 -2.32 10.34 -3 10 C-2.01 6.7 -1.02 3.4 0 0 Z " fill="#58513E" transform="translate(97,63)"/>
<path d="M0 0 C0.66 0.99 1.32 1.98 2 3 C1.67 4.65 1.34 6.3 1 8 C-0.485 8.99 -0.485 8.99 -2 10 C-2 7 -2 7 0 0 Z " fill="#5D5A4E" transform="translate(83,35)"/>
</svg>
