<?xml version="1.0" encoding="UTF-8"?>
<!-- Generator: visioncortex VTracer 0.6.4 -->
<svg version="1.1" xmlns="http://www.w3.org/2000/svg" width="128" height="128">
<path d="M0 0 C7 0 7 0 16 4 C21.885 11.062 24.665 16.317 25.5 25.5 C24.681 34.508 22.396 39.604 16 46 C9.969 48.01 3.307 47.647 -3 48 C-2.938 50.413 -2.876 52.826 -2.812 55.312 C-3 63 -3 63 -6 66 C-16.328 71.091 -25.722 70.503 -37 70 C-45 67 -45 67 -49 61 C-52.005 51.986 -50.645 40.51 -48.312 31.438 C-46 27 -46 27 -41 24 C-33.835 22.567 -26.801 23.089 -19.516 23.258 C-13.294 23.217 -13.294 23.217 -5 20 C-1.62 13.24 -0.914 7.456 0 0 Z M-17 52 C-17.99 52.99 -18.98 53.98 -20 55 C-19.67 56.98 -19.34 58.96 -19 61 C-16.69 61.33 -14.38 61.66 -12 62 C-11.34 61.34 -10.68 60.68 -10 60 C-10 58.02 -10 56.04 -10 54 C-12.954 51.63 -12.954 51.63 -17 52 Z " fill="#134954" transform="translate(90,33)"/>
<path d="M0 0 C6.454 6.454 6.944 10.352 7.25 19.375 C6.954 28.406 6.053 34.421 1 42 C-6.805 45.903 -16.617 44.426 -25.211 44.559 C-32.101 44.565 -32.101 44.565 -38 48 C-41.864 54.441 -42.66 60.659 -44 68 C-54.625 66.819 -57.247 65.103 -64 57 C-67.561 48.691 -68.739 42.652 -66.938 33.75 C-65 29 -65 29 -59 22 C-52.969 19.99 -46.307 20.353 -40 20 C-40.062 17.422 -40.124 14.844 -40.188 12.188 C-40 4 -40 4 -37 1 C-23.604 -3.465 -13.611 -4.537 0 0 Z M-34 6 C-34 8.31 -34 10.62 -34 13 C-33.67 13.33 -33.34 13.66 -33 14 C-30.69 14 -28.38 14 -26 14 C-25.34 12.02 -24.68 10.04 -24 8 C-27.152 3.273 -29.081 3.54 -34 6 Z " fill="#134954" transform="translate(81,11)"/>
<path d="M0 0 C4.29 0 8.58 0 13 0 C13.33 1.32 13.66 2.64 14 4 C14.99 2.68 15.98 1.36 17 0 C17.99 0 18.98 0 20 0 C19.34 1.32 18.68 2.64 18 4 C17.63 8.046 17.63 8.046 20 11 C20 11.99 20 12.98 20 14 C16 12 16 12 15 10 C14.34 11.32 13.68 12.64 13 14 C12.01 13.67 11.02 13.34 10 13 C10 9.7 10 6.4 10 3 C9.01 3 8.02 3 7 3 C7 6.63 7 10.26 7 14 C6.01 14 5.02 14 4 14 C4 10.37 4 6.74 4 3 C2.68 3 1.36 3 0 3 C0 2.01 0 1.02 0 0 Z " fill="#184141" transform="translate(62,110)"/>
<path d="M0 0 C1.32 0.33 2.64 0.66 4 1 C4.99 2.65 5.98 4.3 7 6 C7.33 4.02 7.66 2.04 8 0 C8.99 0.33 9.98 0.66 11 1 C11 4.96 11 8.92 11 13 C9.68 13 8.36 13 7 13 C6.01 11.35 5.02 9.7 4 8 C3.34 9.98 2.68 11.96 2 14 C1.34 14 0.68 14 0 14 C0 9.38 0 4.76 0 0 Z " fill="#1E5453" transform="translate(44,110)"/>
<path d="M0 0 C0.99 0 1.98 0 3 0 C2.34 1.32 1.68 2.64 1 4 C0.63 8.046 0.63 8.046 3 11 C3 11.99 3 12.98 3 14 C-1 12 -1 12 -2 10 C-2.66 11.32 -3.32 12.64 -4 14 C-4.66 14 -5.32 14 -6 14 C-6 9.71 -6 5.42 -6 1 C-5.01 1.33 -4.02 1.66 -3 2 C-3 2.66 -3 3.32 -3 4 C-2.01 2.68 -1.02 1.36 0 0 Z " fill="#246564" transform="translate(79,110)"/>
<path d="M0 0 C0.99 0 1.98 0 3 0 C3 3.63 3 7.26 3 11 C4.65 11 6.3 11 8 11 C8 11.99 8 12.98 8 14 C5.36 14 2.72 14 0 14 C0 9.38 0 4.76 0 0 Z " fill="#1C4F4E" transform="translate(56,110)"/>
<path d="M0 0 C0.99 0.33 1.98 0.66 3 1 C3 4.96 3 8.92 3 13 C1.68 13 0.36 13 -1 13 C-2.522 8.433 -1.018 4.613 0 0 Z " fill="#1B4B4B" transform="translate(52,110)"/>
<path d="M0 0 C4 5 4 5 5 9 C1 7 1 7 -2 2 C-1.34 2 -0.68 2 0 2 C0 1.34 0 0.68 0 0 Z " fill="#1D5251" transform="translate(77,115)"/>
</svg>
