<?xml version="1.0" encoding="UTF-8"?>
<!-- Generator: visioncortex VTracer 0.6.4 -->
<svg version="1.1" xmlns="http://www.w3.org/2000/svg" width="128" height="128">
<path d="M0 0 C26.07 0 52.14 0 79 0 C79 28.38 79 56.76 79 86 C52.93 86 26.86 86 0 86 C0 82.37 0 78.74 0 75 C-1.361 74.979 -2.722 74.959 -4.125 74.938 C-19.393 72.501 -29.921 63.492 -38.875 51.438 C-43 45 -43 45 -47 37 C-43.893 27.679 -28.22 21.252 -20 17 C-13.36 14.739 -6.801 12.7 0 11 C0 7.37 0 3.74 0 0 Z M-28.75 32 C-29.822 33.32 -30.895 34.64 -32 36 C-30.374 45.758 -24.921 53.079 -18 60 C-11.288 64.647 -7.189 66.18 1 68 C1 66.02 1 64.04 1 62 C-0.794 61.381 -2.589 60.763 -4.438 60.125 C-14.187 55.482 -18.782 49.842 -23 40 C-22 36 -22 36 -18.25 33 C-12.331 29.617 -6.559 27.795 0 26 C0.33 23.69 0.66 21.38 1 19 C-10.277 19 -20.425 24.99 -28.75 32 Z M-11 37 C-11.66 37.99 -12.32 38.98 -13 40 C-9.792 46.321 -7.607 49.327 -2 54 C-1.34 54 -0.68 54 0 54 C0.33 47.07 0.66 40.14 1 33 C-3.894 32.702 -3.894 32.702 -11 37 Z " fill="#78B903" transform="translate(47,21)"/>
<path d="M0 0 C12.927 0.949 21.793 7.617 30.812 16.5 C26.912 26.252 18.812 31.635 9.812 36.5 C4.917 38.132 -0.07 37.555 -5.188 37.5 C-5.188 39.48 -5.188 41.46 -5.188 43.5 C-15.347 41.807 -21.001 36.26 -27.188 28.5 C-30.188 21.5 -30.188 21.5 -29.188 17.5 C-22.206 11.973 -15.47 7.5 -6.188 7.5 C-6.188 5.52 -6.188 3.54 -6.188 1.5 C-5.188 0.5 -5.188 0.5 0 0 Z M-17.188 18.5 C-17.847 19.49 -18.508 20.48 -19.188 21.5 C-15.98 27.821 -13.795 30.827 -8.188 35.5 C-7.528 35.5 -6.867 35.5 -6.188 35.5 C-5.858 28.57 -5.528 21.64 -5.188 14.5 C-10.082 14.202 -10.082 14.202 -17.188 18.5 Z " fill="#75B406" transform="translate(53.1875,39.5)"/>
<path d="M0 0 C26.07 0 52.14 0 79 0 C79 28.38 79 56.76 79 86 C52.93 86 26.86 86 0 86 C0 82.37 0 78.74 0 75 C-1.361 74.979 -2.722 74.959 -4.125 74.938 C-19.393 72.501 -29.921 63.492 -38.875 51.438 C-43 45 -43 45 -47 37 C-43.893 27.679 -28.22 21.252 -20 17 C-5.729 12 -5.729 12 1 12 C1 14.31 1 16.62 1 19 C-1.434 19.701 -3.867 20.403 -6.375 21.125 C-16.966 24.655 -23.138 28.138 -31 36 C-29.383 45.705 -24.343 51.6 -18 59 C-11.596 63.325 -6.461 65.513 1 68 C1 73.61 1 79.22 1 85 C26.41 85 51.82 85 78 85 C78 57.28 78 29.56 78 1 C52.59 1 27.18 1 1 1 C1 4.3 1 7.6 1 11 C0.67 11 0.34 11 0 11 C0 7.37 0 3.74 0 0 Z " fill="#5F9105" transform="translate(47,21)"/>
<path d="M0 0 C18.418 0 32.283 6.886 46 19 C46.99 19.99 47.98 20.98 49 22 C46.736 31.058 37.307 36.782 30.062 41.938 C19.847 47.814 11.818 50.622 0 50 C0 48.02 0 46.04 0 44 C2.661 43.907 2.661 43.907 5.375 43.812 C17.043 42.382 23.696 37.076 32 29 C32.99 27.68 33.98 26.36 35 25 C30.303 15.606 21.436 11.669 12 8 C5.474 7.042 5.474 7.042 0 7 C0 4.69 0 2.38 0 0 Z " fill="#F4F7EE" transform="translate(48,33)"/>
<path d="M0 0 C5.539 1.385 10.038 4.223 15 7 C10.854 15.292 -0.79 18.481 -9 22 C-24.784 26.59 -37.55 29.261 -54 29 C-54 27.02 -54 25.04 -54 23 C-51.958 22.918 -49.916 22.835 -47.812 22.75 C-29.704 21.012 -12.974 12.974 0 0 Z " fill="#F7F8F3" transform="translate(102,67)"/>
<path d="M0 0 C2.31 0 4.62 0 7 0 C7 0.33 7 0.66 7 1 C5.02 1 3.04 1 1 1 C0.67 5.29 0.34 9.58 0 14 C-2.97 14.99 -5.94 15.98 -9 17 C-10.32 18.32 -11.64 19.64 -13 21 C-9.499 27.802 -6.438 31.708 0 36 C0 38.31 0 40.62 0 43 C-10.16 41.307 -15.813 35.76 -22 28 C-25 21 -25 21 -24 17 C-17.019 11.473 -10.282 7 -1 7 C-1 5.02 -1 3.04 -1 1 C-0.67 0.67 -0.34 0.34 0 0 Z " fill="#669C04" transform="translate(48,40)"/>
<path d="M0 0 C11.254 0 16.405 1.837 25 9 C23 13 23 13 15 19 C12 16 12 16 8 10 C5.36 9.01 2.72 8.02 0 7 C0 4.69 0 2.38 0 0 Z " fill="#F6F8F1" transform="translate(48,47)"/>
<path d="M0 0 C1.32 0.33 2.64 0.66 4 1 C2 3 2 3 -3 5 C-4.98 5.99 -4.98 5.99 -7 7 C-3 2 -3 2 0 0 Z " fill="#517907" transform="translate(10,48)"/>
</svg>
