<?xml version="1.0" encoding="UTF-8"?>
<!-- Generator: visioncortex VTracer 0.6.4 -->
<svg version="1.1" xmlns="http://www.w3.org/2000/svg" width="128" height="128">
<path d="M0 0 C12.809 7.196 18.94 15.259 23.562 29.125 C26.285 40.014 24.574 49.861 20.562 60.125 C17.848 66.554 17.848 66.554 20.562 75.125 C22.213 77.435 23.862 79.745 25.562 82.125 C25.562 82.785 25.562 83.445 25.562 84.125 C26.222 84.125 26.882 84.125 27.562 84.125 C27.562 84.785 27.562 85.445 27.562 86.125 C28.222 86.125 28.882 86.125 29.562 86.125 C29.562 86.785 29.562 87.445 29.562 88.125 C31.542 89.115 31.542 89.115 33.562 90.125 C35.047 91.115 35.047 91.115 36.562 92.125 C36.562 92.785 36.562 93.445 36.562 94.125 C38.542 95.115 38.542 95.115 40.562 96.125 C42.543 97.445 44.522 98.765 46.562 100.125 C45.562 105.125 45.562 105.125 44.562 106.125 C32.001 106.729 24.937 104.535 14.562 97.125 C14.562 102.235 16.279 107.557 18.562 112.125 C18.562 115.095 18.562 118.065 18.562 121.125 C17.903 121.785 17.243 122.445 16.562 123.125 C7.562 122.125 7.562 122.125 4.562 120.125 C4.562 119.465 4.562 118.805 4.562 118.125 C3.903 118.125 3.243 118.125 2.562 118.125 C0.543 115.138 -1.457 112.138 -3.438 109.125 C-4.097 108.795 -4.757 108.465 -5.438 108.125 C-7.108 105.127 -8.774 102.127 -10.438 99.125 C-13.237 95.811 -13.237 95.811 -17.438 95.125 C-17.438 95.785 -17.438 96.445 -17.438 97.125 C-18.097 97.125 -18.758 97.125 -19.438 97.125 C-19.664 98.631 -19.891 100.136 -20.125 101.688 C-23.998 120.686 -23.998 120.686 -29.438 126.125 C-32.407 126.125 -35.377 126.125 -38.438 126.125 C-43.726 120.837 -42.721 114.556 -43 107.375 C-43.084 105.276 -43.168 103.178 -43.254 101.016 C-43.314 99.402 -43.375 97.788 -43.438 96.125 C-48.744 97.452 -51.392 100.536 -55.438 104.125 C-56.097 104.125 -56.758 104.125 -57.438 104.125 C-57.438 104.785 -57.438 105.445 -57.438 106.125 C-69.255 114.928 -69.255 114.928 -76.438 116.125 C-77.097 115.465 -77.757 114.805 -78.438 114.125 C-77.402 106.88 -75.625 103.917 -71.438 98.125 C-75.892 98.62 -75.892 98.62 -80.438 99.125 C-80.767 97.805 -81.097 96.485 -81.438 95.125 C-78.305 91.209 -74.981 87.668 -71.438 84.125 C-70.778 84.125 -70.118 84.125 -69.438 84.125 C-69.438 83.465 -69.438 82.805 -69.438 82.125 C-68.778 82.125 -68.118 82.125 -67.438 82.125 C-67.438 81.465 -67.438 80.805 -67.438 80.125 C-65.787 78.475 -64.138 76.825 -62.438 75.125 C-59.364 70.515 -60.148 66.569 -60.438 61.125 C-61.922 56.67 -61.922 56.67 -63.438 52.125 C-65.573 37.173 -64.223 24.558 -55.438 12.125 C-40.845 -4.089 -20.323 -5.124 0 0 Z M-45.438 14.125 C-45.767 15.445 -46.097 16.765 -46.438 18.125 C-47.428 18.455 -48.418 18.785 -49.438 19.125 C-56.063 32.375 -56.836 41.144 -52.875 55.25 C-50.103 65.344 -50.327 70.534 -54.438 80.125 C-55.696 81.466 -56.954 82.806 -58.25 84.188 C-59.828 86.137 -59.828 86.137 -61.438 88.125 C-60.778 90.105 -60.117 92.085 -59.438 94.125 C-58.778 94.125 -58.117 94.125 -57.438 94.125 C-57.438 93.465 -57.438 92.805 -57.438 92.125 C-56.778 92.125 -56.117 92.125 -55.438 92.125 C-55.438 91.465 -55.438 90.805 -55.438 90.125 C-50.438 88.125 -50.438 88.125 -42.438 87.125 C-38.438 89.125 -38.438 89.125 -35.438 94.125 C-34.034 99.741 -33.841 105.361 -33.438 111.125 C-30.011 107.698 -29.673 102.72 -28.438 98.125 C-25.438 91.125 -25.438 91.125 -20.438 87.125 C-11.438 87.125 -11.438 87.125 -5.438 91.125 C-4.778 91.125 -4.118 91.125 -3.438 91.125 C-3.438 92.115 -3.438 93.105 -3.438 94.125 C-2.778 94.125 -2.118 94.125 -1.438 94.125 C-0.778 95.775 -0.118 97.425 0.562 99.125 C1.882 101.105 3.203 103.085 4.562 105.125 C5.972 102.771 5.972 102.771 4.938 98.312 C4.562 93.125 4.562 93.125 7.562 88.125 C10.562 87.125 13.562 86.125 16.562 85.125 C15.903 84.135 15.243 83.145 14.562 82.125 C13.903 82.125 13.243 82.125 12.562 82.125 C12.233 80.475 11.903 78.825 11.562 77.125 C10.903 75.145 10.243 73.165 9.562 71.125 C9.562 62.703 11.434 57.833 14.562 50.125 C16.582 40.028 15.641 31.184 10.938 22 C4.254 12.346 -1.949 8.713 -13.438 6.125 C-26.259 5.284 -34.771 7.014 -45.438 14.125 Z M5.562 105.125 C6.562 107.125 6.562 107.125 6.562 107.125 Z " fill="#0749AE" transform="translate(81.4375,1.875)"/>
<path d="M0 0 C9.214 1.843 15.364 8.786 21 16 C27.341 30.796 27.838 44.061 22 59 C19.285 65.429 19.285 65.429 22 74 C23.65 76.31 25.3 78.62 27 81 C27 81.66 27 82.32 27 83 C27.66 83 28.32 83 29 83 C29 83.66 29 84.32 29 85 C28.01 85 27.02 85 26 85 C25.67 84.01 25.34 83.02 25 82 C23.02 82.495 23.02 82.495 21 83 C21.686 87.2 21.686 87.2 25 90 C24.67 90.66 24.34 91.32 24 92 C21.69 90.35 19.38 88.7 17 87 C15.02 86.67 13.04 86.34 11 86 C12.98 85.01 12.98 85.01 15 84 C15.495 83.505 15.495 83.505 16 83 C16 82.34 16 81.68 16 81 C15.34 81 14.68 81 14 81 C8.985 68.463 9.972 61.386 15 49 C17.027 38.864 16.077 30.009 11.312 20.812 C7.868 15.368 7.868 15.368 1 10 C1 9.67 1 9.34 1 9 C2.98 8.67 4.96 8.34 7 8 C6.67 6.35 6.34 4.7 6 3 C4.02 2.34 2.04 1.68 0 1 C0 0.67 0 0.34 0 0 Z " fill="#0757CE" transform="translate(80,3)"/>
<path d="M0 0 C1.32 0.33 2.64 0.66 4 1 C4 1.99 4 2.98 4 4 C5.65 4 7.3 4 9 4 C9 4.66 9 5.32 9 6 C10.32 6.66 11.64 7.32 13 8 C13.99 8.66 14.98 9.32 16 10 C16 10.66 16 11.32 16 12 C17.32 12.66 18.64 13.32 20 14 C21.98 15.32 23.96 16.64 26 18 C25 23 25 23 24 24 C14.494 24.457 9.924 23.966 1 20 C-0.32 18.35 -1.64 16.7 -3 15 C-2.67 13.68 -2.34 12.36 -2 11 C-2.66 11 -3.32 11 -4 11 C-4 11.66 -4 12.32 -4 13 C-5.65 13 -7.3 13 -9 13 C-9.33 15.64 -9.66 18.28 -10 21 C-9.01 21.33 -8.02 21.66 -7 22 C-7 23.65 -7 25.3 -7 27 C-6.34 27 -5.68 27 -5 27 C-3 32 -3 32 -3 38 C-3.495 38.495 -3.495 38.495 -4 39 C-6.64 39 -9.28 39 -12 39 C-13 34 -13 34 -13 32 C-13.33 32.66 -13.66 33.32 -14 34 C-15.32 33.67 -16.64 33.34 -18 33 C-18.33 31.68 -18.66 30.36 -19 29 C-18.34 28.34 -17.68 27.68 -17 27 C-15.68 27.33 -14.36 27.66 -13 28 C-13 27.01 -13 26.02 -13 25 C-13 24.34 -13 23.68 -13 23 C-13.66 23 -14.32 23 -15 23 C-17 16 -17 16 -16 8 C-15.01 7.01 -14.02 6.02 -13 5 C-5 5 -5 5 2 10 C0.68 8.35 -0.64 6.7 -2 5 C-1 1 -1 1 0 0 Z " fill="#0457D3" transform="translate(102,84)"/>
<path d="M0 0 C0.99 0.33 1.98 0.66 3 1 C3 2.32 3 3.64 3 5 C2.34 5 1.68 5 1 5 C0.67 7.64 0.34 10.28 0 13 C-3.562 17.5 -3.562 17.5 -7 21 C-6.34 21 -5.68 21 -5 21 C-5 23.64 -5 26.28 -5 29 C-3.02 28.67 -1.04 28.34 1 28 C2 32 2 32 -1 37 C-12.665 45.777 -12.665 45.777 -20 47 C-20.66 46.34 -21.32 45.68 -22 45 C-20.965 37.755 -19.188 34.792 -15 29 C-17.97 29.33 -20.94 29.66 -24 30 C-24.33 28.68 -24.66 27.36 -25 26 C-21.867 22.084 -18.543 18.543 -15 15 C-13.35 15 -11.7 15 -10 15 C-10 14.01 -10 13.02 -10 12 C-8.35 10.35 -6.7 8.7 -5 7 C-4.01 5.68 -3.02 4.36 -2 3 C-1.34 3 -0.68 3 0 3 C0 2.01 0 1.02 0 0 Z " fill="#0658D4" transform="translate(25,71)"/>
<path d="M0 0 C3.96 2.475 3.96 2.475 8 5 C8 5.99 8 6.98 8 8 C8.66 8 9.32 8 10 8 C12.333 11.667 14.667 15.333 17 19 C17.66 19 18.32 19 19 19 C19.66 20.32 20.32 21.64 21 23 C20.505 24.485 20.505 24.485 20 26 C19.34 25.34 18.68 24.68 18 24 C16.68 24.33 15.36 24.66 14 25 C14.495 26.98 14.495 26.98 15 29 C15.99 29.33 16.98 29.66 18 30 C18.495 28.515 18.495 28.515 19 27 C20 30 20 30 20 34 C22.64 34 25.28 34 28 34 C27.505 28.555 27.505 28.555 27 23 C26.34 23 25.68 23 25 23 C24.67 21.35 24.34 19.7 24 18 C23.34 17.67 22.68 17.34 22 17 C22 14.36 22 11.72 22 9 C25 8 25 8 28 9 C28 8.34 28 7.68 28 7 C28.66 7 29.32 7 30 7 C30.495 9.475 30.495 9.475 31 12 C31.495 12.99 31.495 12.99 32 14 C30.68 13.34 29.36 12.68 28 12 C27.01 11.67 26.02 11.34 25 11 C27.089 18.657 27.089 18.657 30 26 C30 28.97 30 31.94 30 35 C29.34 35.66 28.68 36.32 28 37 C19 36 19 36 16 34 C16 33.34 16 32.68 16 32 C15.34 32 14.68 32 14 32 C11.981 29.013 9.981 26.013 8 23 C7.34 22.67 6.68 22.34 6 22 C4.33 19.002 2.663 16.002 1 13 C-1.8 9.686 -1.8 9.686 -6 9 C-6 9.66 -6 10.32 -6 11 C-6.66 11 -7.32 11 -8 11 C-8.227 12.506 -8.454 14.011 -8.688 15.562 C-10.198 22.973 -12.417 29.896 -15 37 C-15.99 37.495 -15.99 37.495 -17 38 C-16.505 36.494 -16.01 34.989 -15.5 33.438 C-13.879 27.561 -13.512 22.953 -15 17 C-14.01 17.33 -13.02 17.66 -12 18 C-11.67 15.36 -11.34 12.72 -11 10 C-11.66 10 -12.32 10 -13 10 C-16.346 13.863 -16.346 13.863 -17 19 C-17.66 19 -18.32 19 -19 19 C-17.127 5.888 -13.889 0 0 0 Z " fill="#0844A5" transform="translate(70,88)"/>
<path d="M0 0 C2 4 2 4 0 11 C-0.33 10.34 -0.66 9.68 -1 9 C-1.66 9 -2.32 9 -3 9 C-2.34 10.32 -1.68 11.64 -1 13 C-1 20.649 -2.9 25.103 -6 32 C-8.64 31.67 -11.28 31.34 -14 31 C-14.66 30.01 -15.32 29.02 -16 28 C-16.33 28 -16.66 28 -17 28 C-17 20.74 -17 13.48 -17 6 C-16.01 6.495 -16.01 6.495 -15 7 C-14.67 6.34 -14.34 5.68 -14 5 C-13.34 5 -12.68 5 -12 5 C-11.67 10.94 -11.34 16.88 -11 23 C-7.297 18.752 -7.297 18.752 -7 11 C-6.34 11 -5.68 11 -5 11 C-5 9.35 -5 7.7 -5 6 C-3.35 4.02 -1.7 2.04 0 0 Z " fill="#0458D3" transform="translate(58,96)"/>
<path d="M0 0 C1 4 1 4 0 9 C0.99 8.67 1.98 8.34 3 8 C3 8.66 3 9.32 3 10 C3.66 10 4.32 10 5 10 C5 12.64 5 15.28 5 18 C7.485 25.887 7.485 25.887 12 31 C12 31.66 12 32.32 12 33 C12.66 33 13.32 33 14 33 C14 33.66 14 34.32 14 35 C13.01 35 12.02 35 11 35 C10.505 33.515 10.505 33.515 10 32 C8.02 32.495 8.02 32.495 6 33 C6.686 37.2 6.686 37.2 10 40 C9.67 40.66 9.34 41.32 9 42 C6.69 40.35 4.38 38.7 2 37 C0.02 36.67 -1.96 36.34 -4 36 C-2.68 35.34 -1.36 34.68 0 34 C0.495 33.505 0.495 33.505 1 33 C1 32.34 1 31.68 1 31 C0.34 31 -0.32 31 -1 31 C-4.799 21.503 -6.299 15.377 -2.5 5.5 C-1.675 3.685 -0.85 1.87 0 0 Z " fill="#072E6F" transform="translate(95,53)"/>
<path d="M0 0 C2.31 1.98 4.62 3.96 7 6 C8.32 6.99 9.64 7.98 11 9 C13.995 15.988 14.378 19.569 14.312 27 C14.309 28.898 14.305 30.795 14.301 32.75 C14 38 14 38 12 45 C11.34 44.67 10.68 44.34 10 44 C9.598 39.885 9.598 39.885 9.188 35.688 C7.821 24.537 5.175 17.262 -1 8 C-0.67 5.36 -0.34 2.72 0 0 Z " fill="#0459D6" transform="translate(90,10)"/>
<path d="M0 0 C0 0.66 0 1.32 0 2 C1.98 2.66 3.96 3.32 6 4 C6.66 5.98 7.32 7.96 8 10 C1 10 1 10 -7 7 C-7.33 6.34 -7.66 5.68 -8 5 C-9.698 5.035 -11.395 5.07 -13.145 5.105 C-16.445 5.146 -16.445 5.146 -19.812 5.188 C-22.005 5.222 -24.198 5.257 -26.457 5.293 C-32 5 -32 5 -35 2 C-34.67 1.34 -34.34 0.68 -34 0 C-22.616 -2.53 -11.214 -3.738 0 0 Z " fill="#0558D6" transform="translate(80,2)"/>
<path d="M0 0 C0.66 0.33 1.32 0.66 2 1 C-0.197 3.135 -0.197 3.135 -2.438 5.312 C-7.023 9.343 -7.023 9.343 -8 13 C-4.04 12.34 -0.08 11.68 4 11 C3.67 12.65 3.34 14.3 3 16 C3.66 16.33 4.32 16.66 5 17 C5.33 16.34 5.66 15.68 6 15 C6 16.32 6 17.64 6 19 C6.66 17.68 7.32 16.36 8 15 C8.66 15 9.32 15 10 15 C10 16.98 10 18.96 10 21 C11.32 20.67 12.64 20.34 14 20 C14 20.66 14 21.32 14 22 C2.182 30.803 2.182 30.803 -5 32 C-5.66 31.34 -6.32 30.68 -7 30 C-5.965 22.755 -4.188 19.792 0 14 C-4.455 14.495 -4.455 14.495 -9 15 C-9.33 13.68 -9.66 12.36 -10 11 C-6.867 7.084 -3.543 3.543 0 0 Z " fill="#053682" transform="translate(10,86)"/>
<path d="M0 0 C0.66 0 1.32 0 2 0 C2.33 1.32 2.66 2.64 3 4 C1.68 4.33 0.36 4.66 -1 5 C-1.33 7.64 -1.66 10.28 -2 13 C-1.01 13.33 -0.02 13.66 1 14 C1 15.65 1 17.3 1 19 C1.66 19 2.32 19 3 19 C5 24 5 24 5 30 C4.67 30.33 4.34 30.66 4 31 C1.36 31 -1.28 31 -4 31 C-5 26 -5 26 -5 24 C-5.33 24.66 -5.66 25.32 -6 26 C-7.32 25.67 -8.64 25.34 -10 25 C-10.33 23.68 -10.66 22.36 -11 21 C-10.34 20.34 -9.68 19.68 -9 19 C-7.68 19.33 -6.36 19.66 -5 20 C-4.842 16.42 -4.842 16.42 -7 11 C-7 7.7 -7 4.4 -7 1 C-6.34 1 -5.68 1 -5 1 C-4.34 1.99 -3.68 2.98 -3 4 C-2.01 2.68 -1.02 1.36 0 0 Z " fill="#0658D5" transform="translate(94,92)"/>
<path d="M0 0 C0.33 0.66 0.66 1.32 1 2 C-0.32 4.97 -1.64 7.94 -3 11 C-4.866 20.332 -4.043 26.846 -1.438 36.125 C1.335 46.219 1.11 51.409 -3 61 C-5.555 64.42 -8.211 67.768 -11 71 C-11.66 71 -12.32 71 -13 71 C-11 67 -11 67 -7 63 C-7 61.35 -7 59.7 -7 58 C-6.34 57.01 -5.68 56.02 -5 55 C-4.34 55 -3.68 55 -3 55 C-3 53.68 -3 52.36 -3 51 C-3.66 51 -4.32 51 -5 51 C-7.227 53.722 -7.227 53.722 -9.5 56.5 C-11.727 59.222 -11.727 59.222 -14 62 C-14.66 62 -15.32 62 -16 62 C-16 62.99 -16 63.98 -16 65 C-16.99 65 -17.98 65 -19 65 C-19 64.34 -19 63.68 -19 63 C-18.34 63 -17.68 63 -17 63 C-17 62.34 -17 61.68 -17 61 C-14.525 58.525 -14.525 58.525 -12 56 C-8.113 50.169 -9.898 42.614 -11 36 C-9 38 -9 38 -8 43 C-7.34 43 -6.68 43 -6 43 C-5.67 44.65 -5.34 46.3 -5 48 C-2.596 45.596 -3.375 41.379 -3 38 C-4.485 34.535 -4.485 34.535 -6 31 C-6.979 9.305 -6.979 9.305 0 0 Z " fill="#052864" transform="translate(31,21)"/>
<path d="M0 0 C0.66 0 1.32 0 2 0 C2.33 1.65 2.66 3.3 3 5 C3.33 5.66 3.66 6.32 4 7 C2.68 6.34 1.36 5.68 0 5 C-0.99 4.67 -1.98 4.34 -3 4 C-0.911 11.657 -0.911 11.657 2 19 C2 21.97 2 24.94 2 28 C1.34 28.66 0.68 29.32 0 30 C-9 29 -9 29 -12 27 C-12 26.34 -12 25.68 -12 25 C-12.66 25 -13.32 25 -14 25 C-16.019 22.013 -18.019 19.013 -20 16 C-20.66 15.67 -21.32 15.34 -22 15 C-23.98 11.535 -23.98 11.535 -26 8 C-25.67 7.34 -25.34 6.68 -25 6 C-18 14.75 -18 14.75 -18 17 C-17.01 17 -16.02 17 -15 17 C-13.267 12.924 -13.267 12.924 -18 5 C-18.66 3.68 -19.32 2.36 -20 1 C-19.34 1 -18.68 1 -18 1 C-15.667 4.667 -13.333 8.333 -11 12 C-10.34 12 -9.68 12 -9 12 C-8.34 13.32 -7.68 14.64 -7 16 C-7.33 16.99 -7.66 17.98 -8 19 C-8.66 18.34 -9.32 17.68 -10 17 C-11.32 17.33 -12.64 17.66 -14 18 C-13.67 19.32 -13.34 20.64 -13 22 C-12.01 22.33 -11.02 22.66 -10 23 C-9.67 22.01 -9.34 21.02 -9 20 C-8 23 -8 23 -8 27 C-5.36 27 -2.72 27 0 27 C-0.33 23.37 -0.66 19.74 -1 16 C-1.66 16 -2.32 16 -3 16 C-3.33 14.35 -3.66 12.7 -4 11 C-4.66 10.67 -5.32 10.34 -6 10 C-6 7.36 -6 4.72 -6 2 C-3 1 -3 1 0 2 C0 1.34 0 0.68 0 0 Z " fill="#042151" transform="translate(98,95)"/>
<path d="M0 0 C4.767 4.767 4.226 10.508 5 17 C5.66 16.01 6.32 15.02 7 14 C7 22 7 22 4 27 C3.34 26.67 2.68 26.34 2 26 C2 20.06 2 14.12 2 8 C1.34 8 0.68 8 0 8 C-0.33 8.99 -0.66 9.98 -1 11 C-1.33 11 -1.66 11 -2 11 C-2 17.27 -2 23.54 -2 30 C-1.34 30.33 -0.68 30.66 0 31 C0 31.99 0 32.98 0 34 C0.99 34.33 1.98 34.66 3 35 C1.02 34.67 -0.96 34.34 -3 34 C-5.098 27.705 -5.402 22.734 -5.625 16.125 C-5.737 13.004 -5.737 13.004 -5.852 9.82 C-5.901 8.23 -5.95 6.639 -6 5 C-10.108 5.873 -10.108 5.873 -14 8 C-14 5.69 -14 3.38 -14 1 C-11.36 1.33 -8.72 1.66 -6 2 C-5.67 2.99 -5.34 3.98 -5 5 C-2.03 5.495 -2.03 5.495 1 6 C0.67 4.02 0.34 2.04 0 0 Z " fill="#0944A2" transform="translate(44,93)"/>
<path d="M0 0 C4.488 4.488 4.705 14.011 6 20 C6.66 21.98 7.32 23.96 8 26 C7.67 28.31 7.34 30.62 7 33 C6.01 33.66 5.02 34.32 4 35 C4 33.02 4 31.04 4 29 C3.34 29 2.68 29 2 29 C-2.306 18.774 -3.546 10.639 0 0 Z " fill="#0458D4" transform="translate(21,35)"/>
<path d="M0 0 C0 0.33 0 0.66 0 1 C-4.455 1.495 -4.455 1.495 -9 2 C-9 2.99 -9 3.98 -9 5 C-0.29 6.244 8.211 6.061 17 6 C17.495 7.485 17.495 7.485 18 9 C19.98 9.33 21.96 9.66 24 10 C24.66 10.66 25.32 11.32 26 12 C21.545 11.01 21.545 11.01 17 10 C6.547 7.909 -2.907 8.727 -13 12 C-12.01 10.68 -11.02 9.36 -10 8 C-10.33 7.67 -10.66 7.34 -11 7 C-20.573 7.115 -20.573 7.115 -27 15 C-27.33 15.99 -27.66 16.98 -28 18 C-28.99 18.33 -29.98 18.66 -31 19 C-27.588 10.47 -21.855 6.488 -14 2 C-7 0 -7 0 0 0 Z " fill="#05255C" transform="translate(55,0)"/>
<path d="M0 0 C0.66 0 1.32 0 2 0 C2.33 6.6 2.66 13.2 3 20 C5.331 19.041 5.331 19.041 7 16 C7 22 7 22 6 27 C4.02 26.67 2.04 26.34 0 26 C-0.66 25.01 -1.32 24.02 -2 23 C-2.33 23 -2.66 23 -3 23 C-3 15.74 -3 8.48 -3 1 C-2.01 1.495 -2.01 1.495 -1 2 C-0.67 1.34 -0.34 0.68 0 0 Z " fill="#035AD9" transform="translate(44,101)"/>
<path d="M0 0 C7.731 1.546 12.522 6.522 18 12 C17.67 12.66 17.34 13.32 17 14 C15.02 12.02 13.04 10.04 11 8 C9.797 16.42 11.538 18.089 16 25 C18.637 32.91 19.037 40.851 17 49 C16.34 48.67 15.68 48.34 15 48 C15.33 46.68 15.66 45.36 16 44 C16 32.716 14.345 25.218 8 16 C5.69 14.02 3.38 12.04 1 10 C1 9.67 1 9.34 1 9 C2.98 8.67 4.96 8.34 7 8 C6.67 6.35 6.34 4.7 6 3 C4.02 2.34 2.04 1.68 0 1 C0 0.67 0 0.34 0 0 Z " fill="#032155" transform="translate(80,3)"/>
<path d="M0 0 C0.99 0 1.98 0 3 0 C3.33 0.66 3.66 1.32 4 2 C4.66 1.34 5.32 0.68 6 0 C6 3.96 6 7.92 6 12 C6.66 12.33 7.32 12.66 8 13 C9 19 9 19 8 21 C7.34 21 6.68 21 6 21 C6 20.34 6 19.68 6 19 C5.01 19 4.02 19 3 19 C0.239 11.639 -0.286 7.622 0 0 Z " fill="#0559D6" transform="translate(92,64)"/>
<path d="M0 0 C2.31 1.98 4.62 3.96 7 6 C8.32 6.99 9.64 7.98 11 9 C14 16 14 16 14 21 C13.67 19.68 13.34 18.36 13 17 C11.68 16.34 10.36 15.68 9 15 C9 14.01 9 13.02 9 12 C5 13.5 5 13.5 4 16 C-1 8 -1 8 0 0 Z " fill="#0A53C3" transform="translate(90,10)"/>
<path d="M0 0 C5 2 5 2 9 8 C9.33 9.98 9.66 11.96 10 14 C10.66 14.33 11.32 14.66 12 15 C11.01 15 10.02 15 9 15 C9 15.66 9 16.32 9 17 C8.01 17 7.02 17 6 17 C2.215 11.954 0 6.397 0 0 Z " fill="#0559D9" transform="translate(74,95)"/>
<path d="M0 0 C0.66 0 1.32 0 2 0 C1 9 1 9 -1 11 C-1.99 11 -2.98 11 -4 11 C-4 11.99 -4 12.98 -4 14 C-6.475 15.485 -6.475 15.485 -9 17 C-9.33 15.35 -9.66 13.7 -10 12 C-9.34 11.01 -8.68 10.02 -8 9 C-7.34 9 -6.68 9 -6 9 C-5.67 7.68 -5.34 6.36 -5 5 C-3.35 3.35 -1.7 1.7 0 0 Z " fill="#0659D5" transform="translate(33,9)"/>
<path d="M0 0 C0 0.33 0 0.66 0 1 C-2.64 1.33 -5.28 1.66 -8 2 C-8 1.34 -8 0.68 -8 0 C-10.64 0.66 -13.28 1.32 -16 2 C-18.64 2 -21.28 2 -24 2 C-24 1.67 -24 1.34 -24 1 C-27.3 1 -30.6 1 -34 1 C-25.112 -4.925 -9.603 -3.201 0 0 Z " fill="#0657CE" transform="translate(80,2)"/>
<path d="M0 0 C0.66 0 1.32 0 2 0 C4.333 3.667 6.667 7.333 9 11 C9.66 11 10.32 11 11 11 C11.66 12.32 12.32 13.64 13 15 C12.67 15.99 12.34 16.98 12 18 C11.34 17.34 10.68 16.68 10 16 C8.68 16.33 7.36 16.66 6 17 C5.67 17.66 5.34 18.32 5 19 C-1.273 15.863 -2.355 13.378 -6 7 C-5.67 6.34 -5.34 5.68 -5 5 C2 13.75 2 13.75 2 16 C2.99 16 3.98 16 5 16 C6.733 11.924 6.733 11.924 2 4 C1.34 2.68 0.68 1.36 0 0 Z " fill="#052257" transform="translate(78,96)"/>
<path d="M0 0 C2.31 0 4.62 0 7 0 C12 5 12 5 13 10 C11.68 10 10.36 10 9 10 C9 9.34 9 8.68 9 8 C8.01 8 7.02 8 6 8 C5.67 7.34 5.34 6.68 5 6 C2.69 5.34 0.38 4.68 -2 4 C-1 2 -1 2 0 1 C0 0.67 0 0.34 0 0 Z " fill="#0359DC" transform="translate(33,90)"/>
<path d="M0 0 C2.64 0 5.28 0 8 0 C8.99 0.99 9.98 1.98 11 3 C8.69 3.66 6.38 4.32 4 5 C3.01 5.99 2.02 6.98 1 8 C0.67 6.68 0.34 5.36 0 4 C-0.66 4 -1.32 4 -2 4 C-1.67 8.62 -1.34 13.24 -1 18 C-4.399 14.601 -3.833 10.618 -4 6 C-1 1 -1 1 0 0 Z " fill="#063D92" transform="translate(89,89)"/>
<path d="M0 0 C1.65 0.99 3.3 1.98 5 3 C4.67 3.99 4.34 4.98 4 6 C-0.667 6 -5.333 6 -10 6 C-9.67 4.35 -9.34 2.7 -9 1 C-7 0 -7 0 0 0 Z " fill="#0758D1" transform="translate(69,89)"/>
<path d="M0 0 C0.99 0 1.98 0 3 0 C5.5 2.5 5.5 2.5 8 5 C8 6.32 8 7.64 8 9 C7.34 9 6.68 9 6 9 C6 8.34 6 7.68 6 7 C2.37 7.33 -1.26 7.66 -5 8 C-4 4 -4 4 0 0 Z " fill="#0855CE" transform="translate(7,91)"/>
<path d="M0 0 C4.106 8.211 2.463 17.303 0.125 25.875 C-2 31 -2 31 -4 32 C-2.125 19.25 -2.125 19.25 -1 17 C-0.631 11.336 -0.296 5.669 0 0 Z " fill="#06214F" transform="translate(104,31)"/>
<path d="M0 0 C0.33 0.99 0.66 1.98 1 3 C2.65 2.67 4.3 2.34 6 2 C6 3.32 6 4.64 6 6 C5.67 6.33 5.34 6.66 5 7 C-4 7 -4 7 -7 5 C-6.34 5 -5.68 5 -5 5 C-5 4.01 -5 3.02 -5 2 C-3.35 1.34 -1.7 0.68 0 0 Z " fill="#0A58CF" transform="translate(120,100)"/>
<path d="M0 0 C2.64 0.33 5.28 0.66 8 1 C10.916 9.747 10.12 17.79 10 27 C9.67 27 9.34 27 9 27 C8.67 19.41 8.34 11.82 8 4 C3.892 4.873 3.892 4.873 0 7 C0 4.69 0 2.38 0 0 Z " fill="#052663" transform="translate(30,94)"/>
<path d="M0 0 C1 2 1 2 1 6 C0.01 6.99 -0.98 7.98 -2 9 C-3.404 14.615 -3.092 19.968 -3.062 25.75 C-3.053 28.034 -3.044 30.318 -3.035 32.672 C-3.024 34.43 -3.012 36.188 -3 38 C-8.116 30.326 -6.344 19.787 -4.688 11.188 C-3 5 -3 5 0 0 Z " fill="#041940" transform="translate(23,19)"/>
<path d="M0 0 C0.66 0 1.32 0 2 0 C2.33 1.65 2.66 3.3 3 5 C3.33 5.66 3.66 6.32 4 7 C2.68 6.34 1.36 5.68 0 5 C-0.99 4.67 -1.98 4.34 -3 4 C-2.34 6.31 -1.68 8.62 -1 11 C-1 12.65 -1 14.3 -1 16 C-1.66 16 -2.32 16 -3 16 C-3.33 14.35 -3.66 12.7 -4 11 C-4.66 10.67 -5.32 10.34 -6 10 C-6 7.36 -6 4.72 -6 2 C-3 1 -3 1 0 2 C0 1.34 0 0.68 0 0 Z " fill="#07357D" transform="translate(98,95)"/>
<path d="M0 0 C1.32 0.33 2.64 0.66 4 1 C4 1.99 4 2.98 4 4 C4.99 4 5.98 4 7 4 C6.67 5.65 6.34 7.3 6 9 C5.01 9.33 4.02 9.66 3 10 C1.35 8.35 -0.3 6.7 -2 5 C-1 1 -1 1 0 0 Z " fill="#0559D7" transform="translate(102,84)"/>
<path d="M0 0 C1 4 1 4 0 9 C0.99 8.67 1.98 8.34 3 8 C3 8.66 3 9.32 3 10 C3.66 10 4.32 10 5 10 C5 13.96 5 17.92 5 22 C3 20 3 20 2 13 C1.01 13.495 1.01 13.495 0 14 C0 13.01 0 12.02 0 11 C-0.99 11 -1.98 11 -3 11 C-2 4 -2 4 0 0 Z " fill="#042F74" transform="translate(95,53)"/>
<path d="M0 0 C4.344 0.59 8.679 1.259 13 2 C13.33 2.66 13.66 3.32 14 4 C16.97 4 19.94 4 23 4 C23.33 2.68 23.66 1.36 24 0 C24.66 0 25.32 0 26 0 C25 5 25 5 24 6 C14.494 6.457 9.924 5.966 1 2 C0.67 1.34 0.34 0.68 0 0 Z " fill="#052153" transform="translate(102,102)"/>
<path d="M0 0 C1.32 0.33 2.64 0.66 4 1 C2 7 2 7 0 9 C0 9.99 0 10.98 0 12 C-1.65 12 -3.3 12 -5 12 C-5 10.35 -5 8.7 -5 7 C-3.68 6.01 -2.36 5.02 -1 4 C-0.67 2.68 -0.34 1.36 0 0 Z " fill="#0559D8" transform="translate(10,104)"/>
<path d="M0 0 C6 5 6 5 7 10 C5.68 10.33 4.36 10.66 3 11 C2.67 10.01 2.34 9.02 2 8 C1.01 7.67 0.02 7.34 -1 7 C-0.67 4.69 -0.34 2.38 0 0 Z " fill="#0458DE" transform="translate(90,10)"/>
<path d="M0 0 C4 0 4 0 6 1 C1.25 16.5 1.25 16.5 -1 21 C-1.33 20.34 -1.66 19.68 -2 19 C-1.01 16.36 -0.02 13.72 1 11 C1.283 4.445 1.283 4.445 0 0 Z " fill="#032156" transform="translate(55,105)"/>
<path d="M0 0 C0.33 1.32 0.66 2.64 1 4 C-1.225 7.081 -3.567 10.08 -6 13 C-6.99 14.32 -7.98 15.64 -9 17 C-9.66 17 -10.32 17 -11 17 C-9 13 -9 13 -5 9 C-5 7.35 -5 5.7 -5 4 C-3 1 -3 1 0 0 Z " fill="#042864" transform="translate(29,75)"/>
<path d="M0 0 C0.66 0 1.32 0 2 0 C-0.75 9.5 -0.75 9.5 -3 14 C-3.66 14 -4.32 14 -5 14 C-5.33 12.35 -5.66 10.7 -6 9 C-5.34 9 -4.68 9 -4 9 C-3.67 7.35 -3.34 5.7 -3 4 C-2.01 4 -1.02 4 0 4 C0 2.68 0 1.36 0 0 Z " fill="#094FBC" transform="translate(55,114)"/>
<path d="M0 0 C0.33 0 0.66 0 1 0 C1.33 3.3 1.66 6.6 2 10 C2.66 9.01 3.32 8.02 4 7 C4 15 4 15 1 20 C0.67 20 0.34 20 0 20 C0 13.4 0 6.8 0 0 Z " fill="#02102F" transform="translate(47,100)"/>
<path d="M0 0 C0.99 0.33 1.98 0.66 3 1 C3 2.32 3 3.64 3 5 C2.34 5 1.68 5 1 5 C0.67 7.31 0.34 9.62 0 12 C-1.65 11.67 -3.3 11.34 -5 11 C-4.01 8.36 -3.02 5.72 -2 3 C-1.34 3 -0.68 3 0 3 C0 2.01 0 1.02 0 0 Z " fill="#0458DA" transform="translate(25,71)"/>
<path d="M0 0 C6.27 0 12.54 0 19 0 C19.33 0.99 19.66 1.98 20 3 C22.97 3.495 22.97 3.495 26 4 C26.66 4.66 27.32 5.32 28 6 C19 4 19 4 16 3 C16 2.34 16 1.68 16 1 C10.72 1 5.44 1 0 1 C0 0.67 0 0.34 0 0 Z " fill="#08367F" transform="translate(53,6)"/>
<path d="M0 0 C0.66 0.99 1.32 1.98 2 3 C0.68 3.99 -0.64 4.98 -2 6 C-6 4 -6 4 -8 1 C-6 0 -6 0 0 0 Z " fill="#0658D4" transform="translate(44,6)"/>
<path d="M0 0 C0.99 0.33 1.98 0.66 3 1 C3.66 2.98 4.32 4.96 5 7 C3.68 6.01 2.36 5.02 1 4 C-0.32 3.67 -1.64 3.34 -3 3 C-3 3.66 -3 4.32 -3 5 C-3.66 5 -4.32 5 -5 5 C-5.33 6.65 -5.66 8.3 -6 10 C-6.33 9.01 -6.66 8.02 -7 7 C-4 2 -4 2 0 0 Z " fill="#032059" transform="translate(67,94)"/>
<path d="M0 0 C0.66 0.33 1.32 0.66 2 1 C0.68 2.32 -0.64 3.64 -2 5 C-3.112 8.97 -4.124 12.971 -5 17 C-5.66 17 -6.32 17 -7 17 C-6.013 10.09 -5.048 5.048 0 0 Z " fill="#051C46" transform="translate(58,90)"/>
<path d="M0 0 C1.98 2.31 3.96 4.62 6 7 C5.67 7.66 5.34 8.32 5 9 C2.69 7.35 0.38 5.7 -2 4 C-4.97 3.505 -4.97 3.505 -8 3 C-2 0 -2 0 0 0 Z " fill="#031031" transform="translate(99,86)"/>
<path d="M0 0 C0.33 0 0.66 0 1 0 C1.33 6.27 1.66 12.54 2 19 C1.67 18.01 1.34 17.02 1 16 C0.34 16 -0.32 16 -1 16 C-0.67 10.72 -0.34 5.44 0 0 Z " fill="#0B56C0" transform="translate(98,36)"/>
<path d="M0 0 C8 0 8 0 14 2 C14 2.33 14 2.66 14 3 C11.36 3.33 8.72 3.66 6 4 C6 3.34 6 2.68 6 2 C3.03 1.505 3.03 1.505 0 1 C0 0.67 0 0.34 0 0 Z " fill="#073175" transform="translate(66,0)"/>
<path d="M0 0 C3 2 3 2 6 9 C6 10.65 6 12.3 6 14 C5.67 12.68 5.34 11.36 5 10 C3.68 9.34 2.36 8.68 1 8 C1 6.35 1 4.7 1 3 C0.67 2.01 0.34 1.02 0 0 Z " fill="#052051" transform="translate(98,17)"/>
<path d="M0 0 C0 1.65 0 3.3 0 5 C-0.99 4.67 -1.98 4.34 -3 4 C-3.33 4.66 -3.66 5.32 -4 6 C-5.32 5.67 -6.64 5.34 -8 5 C-7.34 5 -6.68 5 -6 5 C-6 4.01 -6 3.02 -6 2 C-1 0 -1 0 0 0 Z " fill="#025AD9" transform="translate(121,100)"/>
<path d="M0 0 C4 4 4 4 6 9 C5.01 9.33 4.02 9.66 3 10 C1 5 1 5 0 0 Z " fill="#0856C2" transform="translate(77,96)"/>
<path d="M0 0 C4 2 4 2 8 6 C6.35 6.33 4.7 6.66 3 7 C3 6.01 3 5.02 3 4 C2.34 4 1.68 4 1 4 C0.67 2.68 0.34 1.36 0 0 Z " fill="#05367C" transform="translate(118,96)"/>
<path d="M0 0 C5 5 5 5 5 7 C5.66 7 6.32 7 7 7 C7 7.66 7 8.32 7 9 C6.01 9 5.02 9 4 9 C3.67 8.01 3.34 7.02 3 6 C2.01 5.67 1.02 5.34 0 5 C0 3.35 0 1.7 0 0 Z " fill="#07265E" transform="translate(102,79)"/>
<path d="M0 0 C0.66 0.33 1.32 0.66 2 1 C1.01 3.64 0.02 6.28 -1 9 C-1.99 9.33 -2.98 9.66 -4 10 C-2 3 -2 3 0 0 Z " fill="#073B87" transform="translate(10,100)"/>
<path d="M0 0 C0.66 0 1.32 0 2 0 C1 6 1 6 -2 9 C-2 2 -2 2 0 0 Z " fill="#043683" transform="translate(35,12)"/>
<path d="M0 0 C5 3 5 3 7 10 C6.34 9.67 5.68 9.34 5 9 C5 8.01 5 7.02 5 6 C4.01 5.67 3.02 5.34 2 5 C2 4.01 2 3.02 2 2 C1.34 2 0.68 2 0 2 C0 1.34 0 0.68 0 0 Z " fill="#0E54C3" transform="translate(39,90)"/>
<path d="M0 0 C0.66 0 1.32 0 2 0 C2 0.66 2 1.32 2 2 C3.32 2.66 4.64 3.32 6 4 C6.99 4.66 7.98 5.32 9 6 C9 6.66 9 7.32 9 8 C5 6 5 6 0 3 C0 2.01 0 1.02 0 0 Z " fill="#041942" transform="translate(109,88)"/>
<path d="M0 0 C0.66 0 1.32 0 2 0 C2.33 2.31 2.66 4.62 3 7 C2.01 7.495 2.01 7.495 1 8 C1 7.01 1 6.02 1 5 C0.34 5 -0.32 5 -1 5 C-0.67 3.35 -0.34 1.7 0 0 Z " fill="#0357E0" transform="translate(90,100)"/>
<path d="M0 0 C1.98 1.65 3.96 3.3 6 5 C5.67 5.66 5.34 6.32 5 7 C4.34 7 3.68 7 3 7 C2.67 6.34 2.34 5.68 2 5 C1.01 4.34 0.02 3.68 -1 3 C-0.67 2.01 -0.34 1.02 0 0 Z " fill="#0959CB" transform="translate(90,10)"/>
<path d="M0 0 C0.99 0.33 1.98 0.66 3 1 C2.67 2.32 2.34 3.64 2 5 C0.68 5 -0.64 5 -2 5 C-2 3.68 -2 2.36 -2 1 C-1.34 0.67 -0.68 0.34 0 0 Z " fill="#0359DB" transform="translate(96,58)"/>
<path d="M0 0 C1.98 0.99 1.98 0.99 4 2 C4 2.99 4 3.98 4 5 C4.99 5.33 5.98 5.66 7 6 C4.03 5.505 4.03 5.505 1 5 C0.67 3.35 0.34 1.7 0 0 Z " fill="#062A65" transform="translate(40,122)"/>
<path d="M0 0 C0.66 0.33 1.32 0.66 2 1 C0.68 2.65 -0.64 4.3 -2 6 C-2.99 6 -3.98 6 -5 6 C-5 5.34 -5 4.68 -5 4 C-4.34 4 -3.68 4 -3 4 C-3 3.34 -3 2.68 -3 2 C-2.01 1.34 -1.02 0.68 0 0 Z " fill="#072154" transform="translate(29,90)"/>
</svg>
