<?xml version="1.0" encoding="UTF-8"?>
<!-- Generator: visioncortex VTracer 0.6.4 -->
<svg version="1.1" xmlns="http://www.w3.org/2000/svg" width="128" height="128">
<path d="M0 0 C16.298 10.044 25.508 22.39 32.188 40.125 C35.823 59.068 33.668 76.804 23.375 93.312 C12.495 108.149 -0.803 116.857 -18.625 121.312 C-39.534 122.573 -55.132 119.741 -72.25 107.188 C-84.939 95.679 -93.912 81.148 -94.961 63.738 C-95.1 42.019 -90.442 26.649 -75.625 10.312 C-53.45 -8.247 -26.235 -12.535 0 0 Z M-45.625 26.312 C-48.774 31.493 -48.774 31.493 -48.625 34.312 C-53.08 34.808 -53.08 34.808 -57.625 35.312 C-63.058 40.127 -63.058 40.127 -65.625 47.312 C-64.968 52.329 -64.445 56.083 -61.625 60.312 C-61.831 62.354 -62.038 64.396 -62.25 66.5 C-63.215 73.784 -63.215 73.784 -58.625 81.312 C-50.757 85.823 -50.757 85.823 -41.625 86.312 C-39.315 88.293 -37.005 90.272 -34.625 92.312 C-30.887 93.734 -30.887 93.734 -23.625 93.312 C-15.38 89.126 -15.38 89.126 -12.625 82.312 C-12.625 81.653 -12.625 80.993 -12.625 80.312 C-8.17 79.817 -8.17 79.817 -3.625 79.312 C1.808 74.498 1.808 74.498 4.375 67.312 C3.718 62.296 3.195 58.542 0.375 54.312 C0.581 52.271 0.787 50.229 1 48.125 C1.965 40.841 1.965 40.841 -2.625 33.312 C-10.493 28.802 -10.493 28.802 -19.625 28.312 C-21.935 26.332 -24.245 24.352 -26.625 22.312 C-35.067 19.499 -38.335 21.756 -45.625 26.312 Z " fill="#0DA47E" transform="translate(94.625,6.6875)"/>
<path d="M0 0 C-0.118 2.152 -0.118 2.152 -0.238 4.348 C-0.314 10.151 -0.201 15.314 1 21 C7.192 26.046 7.192 26.046 14 28 C13.67 28.99 13.34 29.98 13 31 C5.476 32.505 1.237 28.44 -5.066 24.711 C-9 22 -9 22 -13 17 C-13 7 -13 7 -9 2 C-5 0 -5 0 0 0 Z " fill="#0F9271" transform="translate(46,44)"/>
<path d="M0 0 C14.171 7.964 14.171 7.964 19 14 C19 24 19 24 15 29 C11 31 11 31 6 31 C6.079 29.565 6.157 28.131 6.238 26.652 C6.314 20.849 6.201 15.686 5 10 C-1.192 4.954 -1.192 4.954 -8 3 C-7.67 2.01 -7.34 1.02 -7 0 C-5 -1 -5 -1 0 0 Z " fill="#0F9472" transform="translate(76,53)"/>
<path d="M0 0 C5 2 5 2 11 5.688 C16.624 9.635 16.624 9.635 22 8 C25.006 6.009 28.007 4.01 31 2 C31.99 2 32.98 2 34 2 C34 3.98 34 5.96 34 8 C30.871 9.882 27.721 11.73 24.562 13.562 C21.935 15.111 21.935 15.111 19.254 16.691 C14 19 14 19 5 18 C0 14 0 14 -2 9 C-1 1 -1 1 0 0 Z " fill="#0F9573" transform="translate(37,70)"/>
<path d="M0 0 C5 4 5 4 7 9 C6.67 11.64 6.34 14.28 6 17 C2 17 2 17 -4.938 12.938 C-11.421 8.322 -11.421 8.322 -17 10 C-20.347 11.976 -23.682 13.975 -27 16 C-27.66 16 -28.32 16 -29 16 C-29 14.02 -29 12.04 -29 10 C-11.375 -1.264 -11.375 -1.264 0 0 Z " fill="#0E9573" transform="translate(86,40)"/>
<path d="M0 0 C5 5 5 5 5 7 C-10.75 16 -10.75 16 -13 16 C-12.67 21.61 -12.34 27.22 -12 33 C-17 32 -17 32 -18 31 C-18.181 27.274 -18.268 23.543 -18.312 19.812 C-18.35 17.756 -18.387 15.7 -18.426 13.582 C-18 8 -18 8 -14 2 C-9 -1 -9 -1 0 0 Z " fill="#109171" transform="translate(67,32)"/>
<path d="M0 0 C1.65 0.66 3.3 1.32 5 2 C5.108 5.708 5.186 9.416 5.25 13.125 C5.296 15.19 5.343 17.255 5.391 19.383 C5 25 5 25 1 31 C-4 34 -4 34 -13 33 C-14.65 31.35 -16.3 29.7 -18 28 C-18 27.34 -18 26.68 -18 26 C-2.25 17 -2.25 17 0 17 C0 11.39 0 5.78 0 0 Z " fill="#109271" transform="translate(74,63)"/>
<path d="M0 0 C6 2 6 2 7 3 C7 5.64 7 8.28 7 11 C4.525 12.485 4.525 12.485 2 14 C-4 12 -4 12 -5 11 C-5 8.36 -5 5.72 -5 3 C-3.35 2.01 -1.7 1.02 0 0 Z " fill="#109473" transform="translate(63,57)"/>
<path d="M0 0 C0 1.98 0 3.96 0 6 C-3.96 7.98 -7.92 9.96 -12 12 C-12.66 11.34 -13.32 10.68 -14 10 C-14 9.01 -14 8.02 -14 7 C-3.915 0 -3.915 0 0 0 Z " fill="#108D6E" transform="translate(71,72)"/>
<path d="M0 0 C0.66 0.33 1.32 0.66 2 1 C1.34 2.32 0.68 3.64 0 5 C0.66 5.33 1.32 5.66 2 6 C-9.75 13 -9.75 13 -12 13 C-12 11.02 -12 9.04 -12 7 C-6.125 3.062 -6.125 3.062 0 0 Z " fill="#109271" transform="translate(69,43)"/>
<path d="M0 0 C3.029 1.613 6.034 3.274 9 5 C0.333 7.167 0.333 7.167 -8 3 C-7.67 2.01 -7.34 1.02 -7 0 C-5 -1 -5 -1 0 0 Z " fill="#108F6F" transform="translate(76,53)"/>
<path d="M0 0 C0.33 0 0.66 0 1 0 C1 2.31 1 4.62 1 7 C1.66 7 2.32 7 3 7 C3 12.28 3 17.56 3 23 C2.01 23 1.02 23 0 23 C0 15.41 0 7.82 0 0 Z " fill="#0EAC84" transform="translate(50,41)"/>
<path d="M0 0 C0.99 0 1.98 0 3 0 C3 7.59 3 15.18 3 23 C2.67 23 2.34 23 2 23 C1.67 20.69 1.34 18.38 1 16 C0.67 16 0.34 16 0 16 C0 10.72 0 5.44 0 0 Z " fill="#0EAC84" transform="translate(75,64)"/>
<path d="M0 0 C7 1 7 1 11 3 C10.67 3.99 10.34 4.98 10 6 C5 7 5 7 -2 3 C-1.34 2.67 -0.68 2.34 0 2 C0 1.34 0 0.68 0 0 Z " fill="#10896A" transform="translate(49,69)"/>
<path d="M0 0 C0.99 0.33 1.98 0.66 3 1 C3.33 2.32 3.66 3.64 4 5 C2.02 5.66 0.04 6.32 -2 7 C-2 5.02 -2 3.04 -2 1 C-1.34 0.67 -0.68 0.34 0 0 Z " fill="#10785E" transform="translate(59,49)"/>
<path d="M0 0 C0.99 0 1.98 0 3 0 C3 1.98 3 3.96 3 6 C1.02 6 -0.96 6 -3 6 C-2.01 4.02 -1.02 2.04 0 0 Z " fill="#0F7B60" transform="translate(68,72)"/>
<path d="M0 0 C-0.66 0.66 -1.32 1.32 -2 2 C-2.66 2 -3.32 2 -4 2 C-3.34 2.33 -2.68 2.66 -2 3 C-2 3.66 -2 4.32 -2 5 C-3.98 4.34 -5.96 3.68 -8 3 C-7.67 2.01 -7.34 1.02 -7 0 C-5 -1 -5 -1 0 0 Z " fill="#11795F" transform="translate(76,53)"/>
<path d="M0 0 C0.66 0.33 1.32 0.66 2 1 C1.67 1.66 1.34 2.32 1 3 C1.99 3.66 2.98 4.32 4 5 C2.35 5.66 0.7 6.32 -1 7 C-1.66 6.34 -2.32 5.68 -3 5 C-3 4.01 -3 3.02 -3 2 C-2.01 1.34 -1.02 0.68 0 0 Z " fill="#108064" transform="translate(60,77)"/>
<path d="M0 0 C0.66 0.33 1.32 0.66 2 1 C1.34 2.32 0.68 3.64 0 5 C0.66 5.33 1.32 5.66 2 6 C0.02 6.99 0.02 6.99 -2 8 C-2.33 6.02 -2.66 4.04 -3 2 C-2.01 1.34 -1.02 0.68 0 0 Z " fill="#107A5F" transform="translate(69,43)"/>
</svg>
