<?xml version="1.0" encoding="UTF-8"?>
<!-- Generator: visioncortex VTracer 0.6.4 -->
<svg version="1.1" xmlns="http://www.w3.org/2000/svg" width="128" height="128">
<path d="M0 0 C4.768 -0.044 4.768 -0.044 9.633 -0.088 C12.662 -0.096 15.691 -0.105 18.812 -0.113 C22.999 -0.135 22.999 -0.135 27.27 -0.157 C34 0.312 34 0.312 39 4.312 C43.452 13.216 40.283 30.261 40.312 40.062 C40.342 43.227 40.371 46.392 40.4 49.652 C40.409 52.711 40.417 55.77 40.426 58.922 C40.448 63.129 40.448 63.129 40.47 67.421 C39.324 86.67 31.573 100.888 18 114.312 C5.87 123.865 -6.361 128.594 -21.844 128.508 C-24.918 128.498 -24.918 128.498 -28.055 128.488 C-30.182 128.472 -32.309 128.455 -34.5 128.438 C-36.658 128.428 -38.816 128.419 -41.039 128.41 C-46.359 128.387 -51.68 128.351 -57 128.312 C-57.33 118.743 -57.66 109.172 -58 99.312 C-53 101.312 -53 101.312 -45 106.312 C-30.668 111.687 -16.204 112.607 -2 106.312 C10.249 99.463 16.286 92.069 22 79.312 C25.773 64.222 24.393 51.709 17.188 37.938 C9.393 26.627 0.709 21.549 -12 17.312 C-27.064 15.161 -39.119 17.242 -52 25.312 C-62.911 33.496 -68.333 43.979 -71 57.312 C-71.155 62.651 -71.25 67.992 -71.316 73.332 C-71.358 76.519 -71.4 79.706 -71.443 82.99 C-71.483 86.368 -71.523 89.747 -71.562 93.125 C-71.606 96.523 -71.649 99.921 -71.693 103.318 C-71.8 111.65 -71.902 119.981 -72 128.312 C-77.28 128.312 -82.56 128.312 -88 128.312 C-88.099 117.727 -88.172 107.142 -88.22 96.556 C-88.24 92.959 -88.267 89.361 -88.302 85.764 C-88.351 80.578 -88.373 75.393 -88.391 70.207 C-88.412 67.091 -88.433 63.975 -88.454 60.765 C-87.399 41.117 -78.962 27.953 -65.125 14.562 C-45.102 -1.213 -24.317 0.074 0 0 Z " fill="#F5F5F5" transform="translate(88,-0.3125)"/>
<path d="M0 0 C9.552 5.292 15.456 11.476 19.625 21.562 C22.039 31.22 21.092 39.747 16.625 48.562 C9.575 57.963 4.783 61.843 -6.375 65.562 C-18.201 66.374 -26.171 64.728 -35.688 57.562 C-43.167 49.584 -47.375 41.605 -47.375 30.562 C-46.073 20.859 -42.69 14.14 -36.375 6.562 C-24.698 -1.778 -13.964 -3.735 0 0 Z " fill="#20B5CB" transform="translate(78.375,31.4375)"/>
<path d="M0 0 C1.32 0.33 2.64 0.66 4 1 C2.35 2.65 0.7 4.3 -1 6 C-1.99 5.67 -2.98 5.34 -4 5 C-2.68 3.35 -1.36 1.7 0 0 Z " fill="#1992A4" transform="translate(42,38)"/>
</svg>
